<svg xmlns="http://www.w3.org/2000/svg" width="34" height="38"><path d="M10.69 23.6h3v3h-3v-3zm-5.33 0h3v3h-3v-3zm5.33 4.81h3v3h-3v-3zm13.39-7.81h3.63v3.63h-3.63V20.6zm0 7.94h3.63v3.63h-3.63v-3.63zm0-15.63h3.63v3.63h-3.63v-3.63zm-6.97 0h3.63v3.63h-3.63v-3.63zM5.36 28.41h3v3h-3v-3zM33.46.2a1.316 1.316 0 00-1.23-.09L11.11 10.12a1.251 1.251 0 00-.72 1.14v5.71H1.27A1.27 1.27 0 000 18.23v18.5a1.163 1.163 0 00.38.89 1.226 1.226 0 00.89.38l31.47-.13A1.261 1.261 0 0034 36.61V1.25A1.061 1.061 0 0033.46.2zM16.52 35.38l-13.94.04V19.54h13.94v15.84zm14.95-.04l-12.42.04v-3.21h1.69v-3.63h-1.69v-4.35h1.69v-3.63h-1.69v-2.33a1.27 1.27 0 00-1.27-1.26h-4.85v-4.9l18.54-8.79v32.06z" fill="#1aa488" fill-rule="evenodd"/></svg>