<svg xmlns="http://www.w3.org/2000/svg" width="51" height="38"><defs><filter id="a" x="553" y="1931" width="51" height="38" filterUnits="userSpaceOnUse"><feOffset result="offset" dx="2.179" dy="3.355" in="SourceAlpha"/><feGaussianBlur result="blur" stdDeviation="2"/><feFlood result="flood" flood-opacity=".12"/><feComposite result="composite" operator="in" in2="blur"/><feBlend result="blend" in="SourceGraphic"/></filter></defs><path d="M558.993 1952.39a7.435 7.435 0 01.207 1.69h8.988a22.967 22.967 0 01.236-3.33c.242-1.32 1.524-2.95 2.288-4.28s2.282-2.95 2.169-4.4a10.639 10.639 0 00-1.778-3.58c-.488-.72-2.431-3.76-3.039-3.68-.145.03-.284.05-.422.08l-1.181.54-2.059.95-1.377.63-.6.28a2.551 2.551 0 003.467 1.35 17.717 17.717 0 011.205 1.68c-2.845.83-3.845 2.41-3.9 5.17-.011.58.094 3.11-.8 3.13-.716-.04-.154-4.29-.014-5.04-.487 1.02-1.791.88-2.369.8-.055 1.48-.731 1.63-1.961 1.73-1.491.12-2.4-.92-3.233-1.85a24.908 24.908 0 00.632 3.31 4 4 0 001.484 2.6 3.644 3.644 0 012.057 2.22zm9.966 1.93v1.26h.834a.969.969 0 01.5.15h1.55a2.212 2.212 0 00-2.053-1.41h-.834zm.833 3.24h-.833v1.26h.834a2.227 2.227 0 002.053-1.41h-1.551a.964.964 0 01-.503.15zm-10.6 1.49c-.043 1.25-.105 2.35-.165 2.95h9.383c-.052-.78-.108-1.81-.152-2.95h-9.066zm15.638-1.85a.63.63 0 000-1.26h-4.912a.63.63 0 000 1.26h4.912zm.126-1.62h2.087a.964.964 0 01.5.15h1.548a2.209 2.209 0 00-2.053-1.41h-2.086a2.215 2.215 0 00-2.055 1.41h1.55a.971.971 0 01.508-.15zm2.087 1.98h-2.087a.961.961 0 01-.5-.15H572.9a2.229 2.229 0 002.054 1.41h2.087a2.229 2.229 0 002.054-1.41h-1.55a.973.973 0 01-.503.15zm5.037-.36a.63.63 0 000-1.26h-4.911a.63.63 0 000 1.26h4.911zm9.041-13.76a1.876 1.876 0 00.966-.37l.536-.77.871-1.25 1.3-1.88 1.086-1.8.064-.09c.295-.47.691-1.37-.01-1.72a1.124 1.124 0 00-1.442.07l-4.734 6.82a1.6 1.6 0 001.362.99zm1.7.61a1.5 1.5 0 00-.049.18c-.152.8.951 1.07 1.446.97a4.241 4.241 0 002.224-1.7c.456-.57 2.03-2.69 1.43-3.94a1.024 1.024 0 00-1.557-.54zm-3.845-13c-1.777-.33-2.61 1.85-3.4 3.15l2.686 1.24c.916-1.32 3.062-3.59.71-4.39zm.361 4.85c.231.12.4.21.551.29l.441.2.6.28-.176.45c-.582 1.46-1.849 3.09-3.694 2.54-.282.9.531.95 1.113 1.21a1.069 1.069 0 001.558-.42l.555-.72c0-.01 0-.01.006-.01l1.292-1.86c0-.01 0-.01.006-.01l1.644-2.37a5.779 5.779 0 00.522-.98 1.185 1.185 0 00-.513-1.82 1.436 1.436 0 00-1.828.22l-1.839 2.65zm-33.218 1.47l1.086 1.8 1.3 1.88.872 1.25.535.77a1.876 1.876 0 00.968.37 1.592 1.592 0 001.358-.99l-4.734-6.82a1.124 1.124 0 00-1.442-.07c-.7.35-.3 1.25-.008 1.72zm1.668 7.83c.494.1 1.6-.16 1.445-.97a1.332 1.332 0 00-.048-.18l-3.494-5.03a1.024 1.024 0 00-1.557.54c-.6 1.26.975 3.37 1.431 3.94a4.235 4.235 0 002.219 1.7zm8.641-11c-.789-1.3-1.622-3.48-3.4-3.15-2.353.8-.207 3.07.714 4.39zm-7.658 1.28l1.644 2.37v.01l1.3 1.87c-.04-.07-.083-.13-.125-.19.042.06.085.12.126.19l.554.72a1.069 1.069 0 001.558.42c.581-.26 1.395-.3 1.113-1.21-1.847.56-3.113-1.08-3.694-2.54l-.177-.45.605-.28.44-.2c.154-.08.319-.17.551-.29l-.241-.35-1.838-2.64a1.438 1.438 0 00-1.828-.23 1.184 1.184 0 00-.512 1.82 5.779 5.779 0 00.52.98zm35.172 10.63c-1.229-.1-1.906-.25-1.962-1.73-.576.08-1.88.22-2.366-.8.14.75.7 5-.015 5.04-.894-.03-.788-2.55-.8-3.13-.053-2.76-1.052-4.34-3.9-5.17a18.239 18.239 0 011.2-1.68 2.55 2.55 0 003.467-1.35l-.595-.28-1.378-.63-2.059-.95-1.179-.54c-.138-.03-.278-.05-.422-.08-.609-.08-2.552 2.96-3.04 3.68a10.634 10.634 0 00-1.777 3.58c-.114 1.45 1.4 3.07 2.168 4.4s2.047 2.96 2.288 4.28a23.067 23.067 0 01.238 3.33h8.99a7.554 7.554 0 01.207-1.69 3.649 3.649 0 012.052-2.22 4.005 4.005 0 001.484-2.6 24.7 24.7 0 00.633-3.31c-.837.93-1.746 1.97-3.238 1.85zm-10.2 12.94c-.044 1.14-.1 2.17-.151 2.95h9.383c-.059-.6-.121-1.7-.164-2.95h-9.068zm-2.038-1.64h-1.55a2.226 2.226 0 002.053 1.41h.8v-1.26h-.8a.963.963 0 01-.507-.15zm-1.551-1.68h1.55a.964.964 0 01.5-.15h.8v-1.26h-.8a2.215 2.215 0 00-2.051 1.41zm-21.908 2.85h10.248v-4.03h-10.249v4.03zm25.23-3v3h10.249v-4.03h-10.25v1.03z" transform="translate(-553 -1931)" fill="#fff" fill-rule="evenodd" filter="url(#a)"/></svg>