<svg style="position:absolute;width:0;height:0" xmlns="http://www.w3.org/2000/svg" overflow="hidden"><defs><symbol id="icon-twitter" viewBox="0 0 26 28"><path d="M25.312 6.375a10.85 10.85 0 01-2.531 2.609c.016.219.016.438.016.656 0 6.672-5.078 14.359-14.359 14.359-2.859 0-5.516-.828-7.75-2.266.406.047.797.063 1.219.063 2.359 0 4.531-.797 6.266-2.156a5.056 5.056 0 01-4.719-3.5c.313.047.625.078.953.078.453 0 .906-.063 1.328-.172a5.048 5.048 0 01-4.047-4.953v-.063a5.093 5.093 0 002.281.641 5.044 5.044 0 01-2.25-4.203c0-.938.25-1.797.688-2.547a14.344 14.344 0 0010.406 5.281 5.708 5.708 0 01-.125-1.156 5.045 5.045 0 015.047-5.047 5.03 5.03 0 013.687 1.594 9.943 9.943 0 003.203-1.219 5.032 5.032 0 01-2.219 2.781c1.016-.109 2-.391 2.906-.781z"/></symbol><symbol id="icon-facebook" viewBox="0 0 16 28"><path d="M14.984.187v4.125h-2.453c-1.922 0-2.281.922-2.281 2.25v2.953h4.578l-.609 4.625H10.25v11.859H5.469V14.14H1.485V9.515h3.984V6.109C5.469 2.156 7.891 0 11.422 0c1.687 0 3.141.125 3.563.187z"/></symbol><symbol id="icon-google-plus" viewBox="0 0 36 28"><path d="M22.453 14.266c0 6.547-4.391 11.188-11 11.188C5.125 25.454 0 20.329 0 14.001S5.125 2.548 11.453 2.548c3.094 0 5.672 1.125 7.672 3l-3.109 2.984c-.844-.812-2.328-1.766-4.562-1.766C7.548 6.766 4.36 10 4.36 14s3.187 7.234 7.094 7.234c4.531 0 6.234-3.266 6.5-4.937h-6.5v-3.938h10.813c.109.578.187 1.156.187 1.906zM36 12.359v3.281h-3.266v3.266h-3.281V15.64h-3.266v-3.281h3.266V9.093h3.281v3.266H36z"/></symbol><symbol id="icon-instagram" viewBox="0 0 169.063 169.063"><path d="M122.406 0H46.654C20.929 0 0 20.93 0 46.655v75.752c0 25.726 20.929 46.655 46.654 46.655h75.752c25.727 0 46.656-20.93 46.656-46.655V46.655C169.063 20.93 148.133 0 122.406 0zm31.657 122.407c0 17.455-14.201 31.655-31.656 31.655H46.654C29.2 154.063 15 139.862 15 122.407V46.655C15 29.201 29.2 15 46.654 15h75.752c17.455 0 31.656 14.201 31.656 31.655v75.752z"/><path d="M84.531 40.97c-24.021 0-43.563 19.542-43.563 43.563 0 24.02 19.542 43.561 43.563 43.561s43.563-19.541 43.563-43.561c0-24.021-19.542-43.563-43.563-43.563zm0 72.123c-15.749 0-28.563-12.812-28.563-28.561 0-15.75 12.813-28.563 28.563-28.563s28.563 12.813 28.563 28.563c0 15.749-12.814 28.561-28.563 28.561zm45.39-84.842c-2.89 0-5.729 1.17-7.77 3.22a11.053 11.053 0 00-3.23 7.78c0 2.891 1.18 5.73 3.23 7.78 2.04 2.04 4.88 3.22 7.77 3.22 2.9 0 5.73-1.18 7.78-3.22 2.05-2.05 3.22-4.89 3.22-7.78 0-2.9-1.17-5.74-3.22-7.78-2.04-2.05-4.88-3.22-7.78-3.22z"/></symbol><symbol id="icon-linkedin" viewBox="0 0 24 28"><path d="M5.453 9.766V25.25H.297V9.766h5.156zm.328-4.782c.016 1.484-1.109 2.672-2.906 2.672h-.031C1.11 7.656 0 6.468 0 4.984c0-1.516 1.156-2.672 2.906-2.672 1.766 0 2.859 1.156 2.875 2.672zM24 16.375v8.875h-5.141v-8.281c0-2.078-.75-3.5-2.609-3.5-1.422 0-2.266.953-2.641 1.875-.125.344-.172.797-.172 1.266v8.641H8.296c.063-14.031 0-15.484 0-15.484h5.141v2.25h-.031c.672-1.062 1.891-2.609 4.672-2.609 3.391 0 5.922 2.219 5.922 6.969z"/></symbol><symbol id="icon-youtube" viewBox="0 0 461.001 461.001"><path d="M365.257 67.393H95.744C42.866 67.393 0 110.259 0 163.137v134.728c0 52.878 42.866 95.744 95.744 95.744h269.513c52.878 0 95.744-42.866 95.744-95.744V163.137c0-52.878-42.866-95.744-95.744-95.744zm-64.751 169.663l-126.06 60.123c-3.359 1.602-7.239-.847-7.239-4.568V168.607c0-3.774 3.982-6.22 7.348-4.514l126.06 63.881c3.748 1.899 3.683 7.274-.109 9.082z"/></symbol><symbol id="icon-caret" viewBox="0 0 24 24"><path d="M7 10l5 5 5-5z"/><path d="M0 0h24v24H0z" fill="none"/></symbol><symbol id="icon-menu" viewBox="0 0 24 24"><path d="M0 0h24v24H0z" fill="none"/><path d="M3 18h18v-2H3v2zm0-5h18v-2H3v2zm0-7v2h18V6H3z"/></symbol><symbol id="icon-mouse" viewBox="0 0 23 40"><path d="M413 495h1a10 10 0 0110 10v8a10 10 0 01-10 10h-1a10 10 0 01-10-10v-8a10 10 0 0110-10zm-5 33l5.5 3.248L419 528v1.755L413.5 533l-5.5-3.249V528z" transform="translate(-402 -494)"/></symbol><symbol id="icon-edit" viewBox="0 0 24 24"><path d="M3 17.25V21h3.75L17.81 9.94l-3.75-3.75L3 17.25zM20.71 7.04a.996.996 0 000-1.41l-2.34-2.34a.996.996 0 00-1.41 0l-1.83 1.83 3.75 3.75 1.83-1.83z"/><path d="M0 0h24v24H0z" fill="none"/></symbol><symbol id="icon-view" viewBox="0 0 24 24"><path d="M0 0h24v24H0z" fill="none"/><path d="M12 4.5C7 4.5 2.73 7.61 1 12c1.73 4.39 6 7.5 11 7.5s9.27-3.11 11-7.5c-1.73-4.39-6-7.5-11-7.5zM12 17c-2.76 0-5-2.24-5-5s2.24-5 5-5 5 2.24 5 5-2.24 5-5 5zm0-8c-1.66 0-3 1.34-3 3s1.34 3 3 3 3-1.34 3-3-1.34-3-3-3z"/></symbol><symbol id="icon-view-off" viewBox="0 0 24 24"><path d="M0 0h24v24H0zm0 0h24v24H0zm0 0h24v24H0zm0 0h24v24H0z" fill="none"/><path d="M12 7c2.76 0 5 2.24 5 5 0 .65-.13 1.26-.36 1.83l2.92 2.92c1.51-1.26 2.7-2.89 3.43-4.75-1.73-4.39-6-7.5-11-7.5-1.4 0-2.74.25-3.98.7l2.16 2.16C10.74 7.13 11.35 7 12 7zM2 4.27l2.28 2.28.46.46A11.804 11.804 0 001 12c1.73 4.39 6 7.5 11 7.5 1.55 0 3.03-.3 4.38-.84l.42.42L19.73 22 21 20.73 3.27 3 2 4.27zM7.53 9.8l1.55 1.55c-.05.21-.08.43-.08.65 0 1.66 1.34 3 3 3 .22 0 .44-.03.65-.08l1.55 1.55c-.67.33-1.41.53-2.2.53-2.76 0-5-2.24-5-5 0-.79.2-1.53.53-2.2zm4.31-.78l3.15 3.15.02-.16c0-1.66-1.34-3-3-3l-.17.01z"/></symbol><symbol id="icon-location" viewBox="0 0 430.114 430.114"><path d="M356.208 107.051c-1.531-5.738-4.64-11.852-6.94-17.205C321.746 23.704 261.611 0 213.055 0 148.054 0 76.463 43.586 66.905 133.427v18.355c0 .766.264 7.647.639 11.089 5.358 42.816 39.143 88.32 64.375 131.136 27.146 45.873 55.314 90.999 83.221 136.106 17.208-29.436 34.354-59.259 51.17-87.933 4.583-8.415 9.903-16.825 14.491-24.857 3.058-5.348 8.9-10.696 11.569-15.672 27.145-49.699 70.838-99.782 70.838-149.104v-20.262c.001-5.347-6.627-24.081-7-25.234zm-141.963 92.142c-19.107 0-40.021-9.554-50.344-35.939-1.538-4.2-1.414-12.617-1.414-13.388v-11.852c0-33.636 28.56-48.932 53.406-48.932 30.588 0 54.245 24.472 54.245 55.06 0 30.587-25.305 55.051-55.893 55.051z"/></symbol><symbol id="icon-link" viewBox="0 0 482.8 482.8"><path d="M255.2 209.3c-5.3 5.3-5.3 13.8 0 19.1 21.9 21.9 21.9 57.5 0 79.4l-115 115c-21.9 21.9-57.5 21.9-79.4 0l-17.3-17.3c-21.9-21.9-21.9-57.5 0-79.4l115-115c5.3-5.3 5.3-13.8 0-19.1s-13.8-5.3-19.1 0l-115 115C8.7 322.7 0 343.6 0 365.8c0 22.2 8.6 43.1 24.4 58.8l17.3 17.3c16.2 16.2 37.5 24.3 58.8 24.3s42.6-8.1 58.8-24.3l115-115c32.4-32.4 32.4-85.2 0-117.6-5.2-5.3-13.8-5.3-19.1 0z"/><path d="M458.5 58.2l-17.3-17.3c-32.4-32.4-85.2-32.4-117.6 0l-115 115c-32.4 32.4-32.4 85.2 0 117.6 5.3 5.3 13.8 5.3 19.1 0s5.3-13.8 0-19.1c-21.9-21.9-21.9-57.5 0-79.4l115-115c21.9-21.9 57.5-21.9 79.4 0l17.3 17.3c21.9 21.9 21.9 57.5 0 79.4l-115 115c-5.3 5.3-5.3 13.8 0 19.1 2.6 2.6 6.1 4 9.5 4s6.9-1.3 9.5-4l115-115c15.7-15.7 24.4-36.6 24.4-58.8 0-22.2-8.6-43.1-24.3-58.8z"/></symbol><symbol id="icon-mail" viewBox="0 0 512.001 512.001"><path d="M511.646 126.634c-.021-14.449-11.782-26.189-26.227-26.189h-.034l-459.195.631c-7.005.009-13.588 2.746-18.535 7.706C2.709 113.743-.009 120.334 0 127.337l.355 258.029c.009 7.005 2.746 13.588 7.706 18.535 4.951 4.938 11.526 7.655 18.519 7.655h.035l459.194-.631c14.458-.02 26.207-11.799 26.19-26.261l-.353-258.03zm-55.035.076L256.02 266.154 55.04 127.262l401.571-.552zM340.846 292.471l118.971 92.265-407.972.56 119.696-92.825c5.722-4.439 6.764-12.675 2.326-18.399-4.439-5.722-12.675-6.764-18.399-2.326L26.561 371.715l-.32-232.475 222.344 153.657a13.093 13.093 0 007.455 2.325c2.617 0 5.236-.783 7.485-2.346l221.912-154.264.336 233.066-128.856-99.931c-5.719-4.437-13.959-3.396-18.397 2.326-4.439 5.722-3.398 13.96 2.326 18.398z"/></symbol><symbol id="icon-mobile" viewBox="0 0 24 24"><path d="M15.5 1h-8A2.5 2.5 0 005 3.5v17A2.5 2.5 0 007.5 23h8a2.5 2.5 0 002.5-2.5v-17A2.5 2.5 0 0015.5 1zm-4 21c-.83 0-1.5-.67-1.5-1.5s.67-1.5 1.5-1.5 1.5.67 1.5 1.5-.67 1.5-1.5 1.5zm4.5-4H7V4h9v14z"/><path d="M0 0h24v24H0z" fill="none"/></symbol><symbol id="icon-close" viewBox="0 0 24 24"><path d="M19 6.41L17.59 5 12 10.59 6.41 5 5 6.41 10.59 12 5 17.59 6.41 19 12 13.41 17.59 19 19 17.59 13.41 12z"/><path d="M0 0h24v24H0z" fill="none"/></symbol><symbol id="icon-language" viewBox="0 0 24 24"><path d="M11.99 2C6.47 2 2 6.48 2 12s4.47 10 9.99 10C17.52 22 22 17.52 22 12S17.52 2 11.99 2zm6.93 6h-2.95a15.65 15.65 0 00-1.38-3.56A8.03 8.03 0 0118.92 8zM12 4.04c.83 1.2 1.48 2.53 1.91 3.96h-3.82c.43-1.43 1.08-2.76 1.91-3.96zM4.26 14C4.1 13.36 4 12.69 4 12s.1-1.36.26-2h3.38c-.08.66-.14 1.32-.14 2 0 .68.06 1.34.14 2H4.26zm.82 2h2.95c.32 1.25.78 2.45 1.38 3.56A7.987 7.987 0 015.08 16zm2.95-8H5.08a7.987 7.987 0 014.33-3.56A15.65 15.65 0 008.03 8zM12 19.96c-.83-1.2-1.48-2.53-1.91-3.96h3.82c-.43 1.43-1.08 2.76-1.91 3.96zM14.34 14H9.66c-.09-.66-.16-1.32-.16-2 0-.68.07-1.35.16-2h4.68c.09.65.16 1.32.16 2 0 .68-.07 1.34-.16 2zm.25 5.56c.6-1.11 1.06-2.31 1.38-3.56h2.95a8.03 8.03 0 01-4.33 3.56zM16.36 14c.08-.66.14-1.32.14-2 0-.68-.06-1.34-.14-2h3.38c.16.64.26 1.31.26 2s-.1 1.36-.26 2h-3.38z"/></symbol><symbol id="icon-search" viewBox="0 0 24 24"><path d="M15.5 14h-.79l-.28-.27A6.471 6.471 0 0016 9.5 6.5 6.5 0 109.5 16c1.61 0 3.09-.59 4.23-1.57l.27.28v.79l5 4.99L20.49 19l-4.99-5zm-6 0C7.01 14 5 11.99 5 9.5S7.01 5 9.5 5 14 7.01 14 9.5 11.99 14 9.5 14z"/></symbol><symbol id="icon-arrow" viewBox="0 0 292.359 292.359"><path d="M222.979 133.331L95.073 5.424C91.456 1.807 87.178 0 82.226 0s-9.233 1.807-12.85 5.424c-3.617 3.617-5.424 7.898-5.424 12.847v255.813c0 4.948 1.807 9.232 5.424 12.847 3.621 3.617 7.902 5.428 12.85 5.428 4.949 0 9.23-1.811 12.847-5.428l127.906-127.907c3.614-3.613 5.428-7.897 5.428-12.847 0-4.948-1.813-9.229-5.428-12.846z"/></symbol><symbol id="icon-arrow-bottom" viewBox="0 0 292.362 292.362"><path d="M286.935 69.377c-3.614-3.617-7.898-5.424-12.848-5.424H18.274c-4.952 0-9.233 1.807-12.85 5.424C1.807 72.998 0 77.279 0 82.228c0 4.948 1.807 9.229 5.424 12.847l127.907 127.907c3.621 3.617 7.902 5.428 12.85 5.428s9.233-1.811 12.847-5.428L286.935 95.074c3.613-3.617 5.427-7.898 5.427-12.847 0-4.948-1.814-9.229-5.427-12.85z"/></symbol><symbol id="icon-back" viewBox="0 0 27.9 17.969"><path d="M1662.8 556.357a.771.771 0 01-.54-.214l-8.58-8.247a.709.709 0 010-1.036.787.787 0 011.08 0l8.58 8.246a.71.71 0 010 1.037.789.789 0 01-.54.214zm-8.58 8.263a.772.772 0 01-.54-.215.709.709 0 010-1.036l8.58-8.246a.785.785 0 011.08 0 .709.709 0 010 1.036l-8.58 8.246a.79.79 0 01-.54.215zm8.58-8.263h-26.37a.733.733 0 110-1.465h26.37a.733.733 0 110 1.465z" transform="translate(-1635.66 -546.656)"/></symbol><symbol id="icon-bell" viewBox="0 0 26 26"><path d="M554.3 675.416c1.336.843 1.011 4.146.759 5.235a.738.738 0 00.577.843h.145a.725.725 0 00.722-.562c.108-.527 1.011-5.2-1.408-6.711a.763.763 0 00-1.011.211.723.723 0 00.216.984zm5.453 8.327v-5.621a9.632 9.632 0 00-7.15-9.311h.289a2.89 2.89 0 00-5.778 0h.286a9.632 9.632 0 00-7.15 9.311v5.586a4.21 4.21 0 00-3.25 4.076v.7h8.739a4.34 4.34 0 008.522 0H563v-.7a4.2 4.2 0 00-3.25-4.041zM550 667.405a1.4 1.4 0 011.408 1.2 9.534 9.534 0 00-1.408-.106 9.177 9.177 0 00-1.408.106 1.4 1.4 0 011.408-1.2zm0 2.5a8.263 8.263 0 018.306 8.186v5.481h-16.612v-5.445A8.27 8.27 0 01550 669.9zm0 20.694a2.789 2.789 0 01-2.781-2.108h5.6a2.861 2.861 0 01-2.819 2.103zm-11.447-3.513a2.888 2.888 0 012.78-2.108h17.334a2.856 2.856 0 012.78 2.108h-22.894z" transform="translate(-537 -666)"/></symbol><symbol id="icon-envelope" viewBox="0 0 30 24"><path d="M711.022 667h-28.044a.971.971 0 00-.978 1v22a.972.972 0 00.978 1h28.044a.972.972 0 00.978-1v-22a.971.971 0 00-.978-1zm-.979 22h-26.087v-20h26.087v20zm-23.706-15.067l6.554 5.4-4.728 4.8a1 1 0 00.685 1.7.93.93 0 00.685-.3l4.923-4.967 1.957 1.6a1.012 1.012 0 00.619.234.9.9 0 00.62-.234l1.957-1.6 4.924 4.967a.931.931 0 001.369 0 .982.982 0 000-1.4l-4.793-4.8 6.554-5.366a1.018 1.018 0 00.163-1.4.966.966 0 00-1.37-.166l-7.3 6a.877.877 0 00-.2.167.032.032 0 01-.032.033L697 680.133l-9.424-7.733a.966.966 0 00-1.37.166.948.948 0 00.131 1.367z" transform="translate(-682 -667)"/></symbol><symbol id="icon-forword" viewBox="0 0 28 18"><path d="M1596.77 556.718a.785.785 0 00.54-.215l8.61-8.261a.728.728 0 000-1.038.8.8 0 00-1.09 0l-8.6 8.261a.711.711 0 000 1.038.751.751 0 00.54.215zm8.6 8.277a.8.8 0 00.55-.215.728.728 0 000-1.038l-8.61-8.261a.787.787 0 00-1.08 0 .711.711 0 000 1.038l8.6 8.261a.79.79 0 00.54.22zm-8.6-8.277h26.45a.735.735 0 100-1.468h-26.45a.735.735 0 100 1.468z" transform="translate(-1596 -547)"/></symbol><symbol id="icon-idea" viewBox="0 0 73.312 76.219"><path d="M749.6 471.906v-2.233a2.163 2.163 0 012.177-2.156h13.135a2.2 2.2 0 012.1 2.156v2.233a3.5 3.5 0 01-3.031 3.464l-.544 2a2.563 2.563 0 01-2.41 1.848h-5.441a2.425 2.425 0 01-2.409-1.848l-.545-2a3.5 3.5 0 01-3.032-3.464zm8.783-57.358a2.08 2.08 0 002.1-2.079v-7.391a2.1 2.1 0 00-4.2 0v7.391a2.08 2.08 0 002.104 2.079zm-34.583 26.87h7.462a2.131 2.131 0 002.1-2.079 2.08 2.08 0 00-2.1-2.079H723.8a2.079 2.079 0 100 4.158zm59.539-2.156a2.08 2.08 0 002.1 2.079h7.461a2.08 2.08 0 002.1-2.079 1.989 1.989 0 00-2.1-2.079h-7.462a2.08 2.08 0 00-2.1 2.079zm-42.672 17.554a2.177 2.177 0 00-2.954 0l-5.285 5.235a2.079 2.079 0 000 3 2.078 2.078 0 002.953 0l5.286-5.236a2.077 2.077 0 00-.001-2.999zm36.92-34.415a2.135 2.135 0 001.477-.616l5.285-5.235a2.079 2.079 0 000-3 2.125 2.125 0 00-3.031 0l-5.286 5.235a2.079 2.079 0 000 3 2.484 2.484 0 001.554.615zm-39.874-.616a2.079 2.079 0 002.954 0 2.079 2.079 0 000-3l-5.286-5.235a2.125 2.125 0 00-3.031 0 2.079 2.079 0 000 3zm43.605 43.269a2.078 2.078 0 002.953 0 2.079 2.079 0 000-3l-5.207-5.235a2.127 2.127 0 00-3.032 0 2.077 2.077 0 000 3zM738.567 439.8a19.609 19.609 0 0119.509-19.71h.156a19.457 19.457 0 0114.3 33.029 13.212 13.212 0 00-3.731 7.468 5.082 5.082 0 01-5.052 4.234h-10.88a5.024 5.024 0 01-5.053-4.234 14.259 14.259 0 00-3.73-7.468 20.136 20.136 0 01-5.519-13.319zm4.353-.077a14.833 14.833 0 004.352 10.317 18.1 18.1 0 014.9 9.777.694.694 0 00.777.616h3.343v-12.471l-4.508-4.465a2.031 2.031 0 010-2.849 2.079 2.079 0 012.876 0l3.653 3.618 3.653-3.618a2.079 2.079 0 012.876 0 2.032 2.032 0 010 2.849l-4.509 4.465v12.549h3.343a.836.836 0 00.777-.616 17.584 17.584 0 014.9-9.778 15.164 15.164 0 00-11.199-25.717H758a15.2 15.2 0 00-15.08 15.324z" transform="translate(-721.688 -403)"/></symbol><symbol id="icon-images" viewBox="0 0 69.91 69.94"><path d="M1621.46 5486.11v-34.96a1.169 1.169 0 00-1.17-1.16h-19.8v-2.33a7 7 0 00-6.99-6.99h-2.33v-.59a4.084 4.084 0 00-4.08-4.08 36.808 36.808 0 00-11.15 1.73l-19.39 5.82a6.948 6.948 0 00-4.99 6.7v41.15a7 7 0 004.48 6.52l15.69 6.91a17.083 17.083 0 006.04 1.1 4.084 4.084 0 004.08-4.08v-2.91h11.65c3.76 0 6.33-1.8 6.87-4.67h19.92a1.169 1.169 0 001.17-1.16v-7zm-2.33-2.81l-11.99-11.99a1.159 1.159 0 00-1.65 0l-6.16 6.17-8.5-8.5a1.147 1.147 0 00-1.64 0l-7.34 7.33v-13.5a1.723 1.723 0 011.14-1.64l5.39-1.48a4.084 4.084 0 002.79-3.87v-3.5h27.96v30.98zm-25.63-40.3a4.665 4.665 0 014.66 4.66v2.33h-6.99V5443h2.33zm-13.98 58.85a1.752 1.752 0 01-1.75 1.75 14.831 14.831 0 01-5.16-.92l-15.69-6.91a4.7 4.7 0 01-3.03-4.37v-41.15a4.644 4.644 0 013.32-4.47l19.4-5.82a34.567 34.567 0 0110.48-1.62 1.743 1.743 0 011.75 1.74v15.74a1.738 1.738 0 01-1.13 1.64l-5.4 1.48a4.075 4.075 0 00-2.79 3.87v39.04zm13.98-5.25h-11.65v-2.33h16.12c-.71 2.07-3.27 2.33-4.47 2.33zm-11.65-4.66v-12.33l8.16-8.16 8.49 8.5a1.177 1.177 0 001.65 0l6.16-6.17 12.82 12.82v5.34h-37.28zm25.63-25.64a4.66 4.66 0 10-4.66-4.66 4.665 4.665 0 004.66 4.66zm0-6.99a2.33 2.33 0 11-2.33 2.33 2.339 2.339 0 012.33-2.33z" transform="translate(-1551.56 -5436)"/></symbol><symbol id="icon-videos" viewBox="0 0 69.9 69.94"><path d="M1269.02 5486.11v-34.96a1.163 1.163 0 00-1.17-1.16h-19.8v-2.33a6.991 6.991 0 00-6.99-6.99h-2.33v-.59a4.082 4.082 0 00-4.07-4.08 36.824 36.824 0 00-11.16 1.73l-19.39 5.82a6.939 6.939 0 00-4.98 6.7v41.15a6.991 6.991 0 004.47 6.52l15.69 6.91a17.1 17.1 0 006.05 1.1 4.082 4.082 0 004.07-4.08v-2.91h11.65c3.76 0 6.33-1.8 6.87-4.67h19.92a1.163 1.163 0 001.17-1.16v-7zm-39.61-9.8v-13.5a1.723 1.723 0 011.14-1.64l5.4-1.48a4.088 4.088 0 002.78-3.87v-3.5h27.96v39.62h-37.28v-12.33m11.65-36.61a4.665 4.665 0 014.66 4.66v2.33h-6.99V5443h2.33zm-13.98 58.85a1.752 1.752 0 01-1.75 1.75 14.873 14.873 0 01-5.16-.92l-15.69-6.91a4.688 4.688 0 01-3.02-4.37v-41.15a4.632 4.632 0 013.32-4.47l19.39-5.82a34.629 34.629 0 0110.49-1.62 1.741 1.741 0 011.74 1.74v15.74a1.738 1.738 0 01-1.13 1.64l-5.4 1.48a4.075 4.075 0 00-2.79 3.87v39.04zm13.98-5.25h-11.65v-2.33h16.12c-.71 2.07-3.26 2.33-4.47 2.33zm7.56-8.39a15.845 15.845 0 1115.83-15.85 15.855 15.855 0 01-15.83 15.85zm0-30.61a14.765 14.765 0 1014.74 14.76 14.764 14.764 0 00-14.74-14.76zm0 11.22a4.27 4.27 0 114.26-4.27 4.272 4.272 0 01-4.26 4.27zm0-7.45a3.18 3.18 0 103.18 3.18 3.182 3.182 0 00-3.18-3.18zm0 22.9a4.27 4.27 0 114.26-4.27 4.272 4.272 0 01-4.26 4.27zm0-7.46a3.185 3.185 0 103.18 3.19 3.19 3.19 0 00-3.18-3.19zm7.88-.18a4.265 4.265 0 114.26-4.27 4.274 4.274 0 01-4.26 4.27zm0-7.45a3.185 3.185 0 103.18 3.18 3.182 3.182 0 00-3.18-3.18zm-15.32 7.45a4.265 4.265 0 114.26-4.27 4.274 4.274 0 01-4.26 4.27zm0-7.45a3.185 3.185 0 103.18 3.18 3.182 3.182 0 00-3.18-3.18zm7.44 5.14a1.955 1.955 0 111.95-1.96 1.961 1.961 0 01-1.95 1.96zm0-2.82a.865.865 0 10.87.86.869.869 0 00-.87-.86zm.65 16.71h-13.87a.545.545 0 010-1.09h13.87a.545.545 0 010 1.09z" transform="translate(-1199.13 -5436)"/></symbol><symbol id="icon-info" viewBox="0 0 25 25"><path d="M623.5 667v1.391h.527a11.118 11.118 0 017.525 18.77 11 11 0 01-7.941 3.448h-5.665a5.453 5.453 0 01-3.915-1.641 5.53 5.53 0 01-1.639-3.948v-5.9a11.1 11.1 0 013.36-7.647 11.225 11.225 0 017.748-3.086V667m0 0a12.5 12.5 0 00-12.5 12.152v5.9a6.949 6.949 0 006.942 6.948h5.665a12.507 12.507 0 00.472-25h-.579zm-1.944 11.068v-.584c.166-.056.389-.139.694-.223a7.53 7.53 0 01.916-.194c.334-.056.639-.112.945-.14s.583-.055.833-.055l.3.2-1.555 7.369h1.194v.612a4.414 4.414 0 01-.528.3c-.194.084-.416.167-.638.251a2.95 2.95 0 01-.667.167 5.578 5.578 0 01-.638.055 1.212 1.212 0 01-.889-.25.787.787 0 01-.25-.556 5.373 5.373 0 01.056-.668c.027-.222.083-.445.138-.723l1.167-5.311zM623 674.2a1.173 1.173 0 01.389-.917 1.443 1.443 0 011-.334 1.474 1.474 0 011.028.334 1.173 1.173 0 01.388.917 1.057 1.057 0 01-.388.862 1.521 1.521 0 01-1.028.334 1.543 1.543 0 01-1-.334 1.021 1.021 0 01-.389-.862z" transform="translate(-611 -667)"/></symbol><symbol id="icon-envelop-open" viewBox="0 0 62.062 68.91"><path d="M551.532 5464.01a2.255 2.255 0 00-.671-1.61l-6.847-6.78v-10.23a2.816 2.816 0 00-2.82-2.8H527.1l-4.97-4.92a2.307 2.307 0 00-3.246 0l-4.968 4.92h-14.095a2.817 2.817 0 00-2.821 2.8v10.23l-6.847 6.78a2.242 2.242 0 00-.675 1.61 2.14 2.14 0 00.109.52.9.9 0 00-.109.41v38.19a2.808 2.808 0 002.821 2.79h56.412a2.808 2.808 0 002.821-2.79v-38.19a.833.833 0 00-.105-.4 2.315 2.315 0 00.105-.53zm-2-.29a.426.426 0 01.075.52l-5.6 4.45v-10.44zm-29.317-24.73a.418.418 0 01.586 0l3.639 3.6h-7.866zm-20.393 5.46h41.368a.941.941 0 01.94.94v24.8l-21.33 16.98a.455.455 0 01-.663-.06l-21.257-16.92v-24.8a.94.94 0 01.941-.94zm-8.34 19.27l5.519-5.46v10.43l-5.519-4.39a.394.394 0 01-.122-.29.424.424 0 01.121-.29zm57.23 40.34H492.3a.937.937 0 01-.94-.93v-36.54l27.525 21.9a2.34 2.34 0 001.646.67 2.141 2.141 0 001.521-.6l27.6-21.98v36.55a.939.939 0 01-.941.93zm-14.1-52.15H506.4a.935.935 0 110-1.87h28.206a.935.935 0 11.002 1.87zm0 5.58H506.4a.93.93 0 110-1.86h28.206a.93.93 0 11.002 1.86zm0 5.59H506.4a.93.93 0 110-1.86h28.206a.93.93 0 11.002 1.86zm0 5.59H506.4a.93.93 0 110-1.86h28.206a.93.93 0 11.002 1.86z" transform="translate(-489.469 -5437)"/></symbol><symbol id="icon-masjed" viewBox="0 0 32.063 32.313"><path d="M863.608 74.3h-29.317a1.378 1.378 0 01-1.376-1.371V56.057a1.378 1.378 0 011.376-1.372h29.317a1.379 1.379 0 011.376 1.372V73a1.366 1.366 0 01-1.376 1.3zm-27.94-2.675H862.3v-14.2h-26.632v14.2zm23.26-14.2a1.378 1.378 0 01-1.376-1.371 8.6 8.6 0 00-17.205 0 1.377 1.377 0 01-2.753 0 11.287 11.287 0 0122.573 0 1.228 1.228 0 01-1.239 1.375zm4.68 0a1.378 1.378 0 01-1.377-1.371v-11.8a1.377 1.377 0 012.753 0v11.8a1.378 1.378 0 01-1.376 1.375zm-29.317 0a1.378 1.378 0 01-1.376-1.371v-11.8a1.377 1.377 0 012.753 0v11.8a1.378 1.378 0 01-1.377 1.375zm14.658-9.944a1.378 1.378 0 01-1.376-1.372v-2.74a1.377 1.377 0 012.753 0v2.743a1.379 1.379 0 01-1.377 1.372zm3.785 26.819h-7.57a1.378 1.378 0 01-1.376-1.371V69.5a12.847 12.847 0 014.267-9.327 1.379 1.379 0 011.858 0 12.731 12.731 0 014.266 9.327v3.43a1.487 1.487 0 01-1.445 1.37zm-6.262-2.675h4.955v-2.057a9.909 9.909 0 00-2.478-6.379 9.914 9.914 0 00-2.477 6.379v2.058z" transform="translate(-832.906 -42)"/></symbol><symbol id="icon-more-horiz" viewBox="0 0 28 8"><path d="M456 674a4 4 0 11-4 4 4 4 0 014-4zm10 0a4 4 0 11-4 4 4 4 0 014-4zm10 0a4 4 0 11-4 4 4 4 0 014-4z" transform="translate(-452 -674)"/></symbol><symbol id="icon-more-vert" viewBox="0 0 8 28"><path d="M471 605a4 4 0 11-4-4 4 4 0 014 4zm0 10a4 4 0 11-4-4 4 4 0 014 4zm0 10a4 4 0 11-4-4 4 4 0 014 4z" transform="translate(-463 -601)"/></symbol><symbol id="icon-next" viewBox="0 0 13.09 25.07"><path d="M1578.66 1402.88a1.5 1.5 0 00-.07-2.13 1.527 1.527 0 00-2.15.06l-9.29 9.27a3.923 3.923 0 000 5.56l9.29 9.29a1.528 1.528 0 002.15.07 1.507 1.507 0 00.07-2.14l-9.36-9.31a.951.951 0 01-.01-1.35h.01z" transform="translate(-1566 -1400.34)"/></symbol><symbol id="icon-icon-ads" viewBox="0 0 36 32"><path d="M2.897 0A2.906 2.906 0 000 2.87v27.9a1.244 1.244 0 002.033.948l-.002.002 4.966-4.103a1.225 1.225 0 00.249-1.726l.002.003a1.246 1.246 0 00-1.741-.246l.003-.002q-.047.035-.091.074l-2.935 2.423V2.873l-.001-.025a.386.386 0 01.416-.385h-.001 30.621l.028-.001c.213 0 .386.173.386.386l-.001.026v-.001 22.154l.001.025a.386.386 0 01-.386.386l-.03-.001h.001-23.19a1.23 1.23 0 00-.019 2.462h23.209a2.906 2.906 0 002.897-2.87V2.873A2.906 2.906 0 0033.519.001H2.898zm3.181 4.103a1.236 1.236 0 00-1.112 1.229V11.9a1.237 1.237 0 001.236 1.232h6.63c.681 0 1.233-.55 1.236-1.231V5.334a1.237 1.237 0 00-1.236-1.231H6.207l-.065-.002-.068.002h.003zm10.758 0a1.234 1.234 0 00.064 2.464l.068-.002h-.003 14.087a1.23 1.23 0 00.019-2.462H16.966a1.737 1.737 0 00-.075-.002l-.056.001h.003zM7.448 6.566h4.138v4.103H7.448V6.566zm9.388 1.64a1.233 1.233 0 00.065 2.464l.068-.002h-.003 7.465a1.23 1.23 0 00.018-2.462h-7.485a1.737 1.737 0 00-.075-.002l-.056.001h.003zM6.078 14.772A1.236 1.236 0 004.966 16v6.566c.003.68.556 1.231 1.236 1.231h6.63c.681 0 1.233-.55 1.236-1.231V16a1.237 1.237 0 00-1.236-1.231H6.207l-.059-.001a1.73 1.73 0 00-.073.002h.003zm10.758 0a1.233 1.233 0 00.065 2.464l.068-.002h-.003 13.259a1.23 1.23 0 00.019-2.462H16.966a1.153 1.153 0 00-.086-.003l-.045.001h.002zm-9.388 2.459h4.138v4.103H7.448v-4.103zm9.388 1.641a1.233 1.233 0 00.065 2.464l.068-.002h-.003 7.465a1.23 1.23 0 00.018-2.462h-7.485l-.065-.002-.068.002h.003z"/></symbol><symbol id="icon-icon-press" viewBox="0 0 46 32"><path d="M46.4 3.917A3.933 3.933 0 0042.468 0H27.84l-.395.098L23.2 1.959 18.955.099 18.56 0H3.933A3.933 3.933 0 00.001 3.916v22.121a3.932 3.932 0 003.932 3.915h14.43l4.443 1.957.395.098.395-.098 4.443-1.957h14.43a3.932 3.932 0 003.932-3.914V3.917zM18.56 27.994H3.94a1.966 1.966 0 01-1.966-1.957V3.917A1.966 1.966 0 013.94 1.96h14.424l3.85 1.713v25.839l-3.258-1.419zm25.867-1.958a1.967 1.967 0 01-1.966 1.958H27.84l-.395.098-3.258 1.419V3.672l3.85-1.713h14.424c1.083 0 1.961.875 1.966 1.957v22.121zM17.079 7.587H7.102a.983.983 0 00-.983.978v11.254a.983.983 0 00.983.981h9.984c.541 0 .98-.438.983-.978V8.568a.983.983 0 00-.983-.981h-.007zm-.987 11.254H8.096V9.547h7.996v9.296zm13.721-9.294h5.924a.979.979 0 100-1.958h-5.924a.979.979 0 100 1.958zm9.478 3.67h-9.477a.979.979 0 100 1.958h9.478a.98.98 0 00.001-1.96zm0 5.628h-9.477l-.046-.001a.979.979 0 100 1.958l.048-.001h-.002 9.478a.979.979 0 00.001-1.958z"/></symbol><symbol id="icon-prev" viewBox="0 0 13.12 25.07"><path d="M1671.78 1415.67l-9.28 9.26a1.515 1.515 0 01-2.14 0 1.491 1.491 0 010-2.12l9.35-9.26a.951.951 0 00.01-1.35h-.01l-9.43-9.32a1.5 1.5 0 01.06-2.13 1.54 1.54 0 012.16.06l9.36 9.27a3.921 3.921 0 01-.06 5.58.02.02 0 00-.02.01z" transform="translate(-1659.88 -1400.34)"/></symbol><symbol id="icon-projects" viewBox="0 0 89.69 90"><path d="M1628.93 4670a45.064 45.064 0 00-44.85 44.7 45 45 0 0044.56 45.3h.29a45 45 0 000-90zm21.93 15.2a7.513 7.513 0 016.88 8 7.413 7.413 0 01-7.38 6.9h-.59a7.461 7.461 0 01.5-14.9h.59zm-43.06 60.3a4.5 4.5 0 114.49-4.5 4.471 4.471 0 01-4.49 4.5zm19.84-3.2a1.752 1.752 0 01-1.7 1.7 1.828 1.828 0 00-1.69 1.3 16.633 16.633 0 01-1.79 4.3 1.837 1.837 0 00.29 2.2 1.845 1.845 0 01.5 1.7 42.569 42.569 0 01-10.66-3.2 10.3 10.3 0 10-14.55-11.9 38.115 38.115 0 01-5.39-9.9 1.275 1.275 0 01.4-.6 15.274 15.274 0 011.8-1.8 1.721 1.721 0 011.19-.4 2.106 2.106 0 011.3.5 1.841 1.841 0 001.19.5 1.613 1.613 0 00.9-.3 16.251 16.251 0 014.29-1.8 1.716 1.716 0 001.29-1.7v-.1a1.839 1.839 0 011.7-1.8h2.39a1.836 1.836 0 011.69 1.8v.1a1.831 1.831 0 001.3 1.7 16.392 16.392 0 014.29 1.8 1.559 1.559 0 00.89.3 1.656 1.656 0 001.2-.5 1.894 1.894 0 011.29-.5 1.922 1.922 0 011.2.4c.6.6 1.2 1.1 1.79 1.8a1.729 1.729 0 01-.09 2.4 1.824 1.824 0 00-.3 2.2 16.633 16.633 0 011.79 4.3 1.711 1.711 0 001.69 1.3 1.839 1.839 0 011.8 1.7v1.2a2.845 2.845 0 010 1.3zm1.29 11.6h-.49a8.236 8.236 0 00-.4-3.5 8.651 8.651 0 00.7-1.7 7.026 7.026 0 004.28-6.1c0-.5.1-1.1.1-1.6v-1.5a7.353 7.353 0 00-4.28-6.2 7.741 7.741 0 00-.7-1.6 7.033 7.033 0 00-1.3-7.4 22.739 22.739 0 00-2.19-2.2 6.961 6.961 0 00-4.79-1.8 8.071 8.071 0 00-2.69.5c-.5-.2-1.09-.5-1.59-.7a7.307 7.307 0 00-6.18-4.4h-3.19a7.257 7.257 0 00-6.18 4.4 11.111 11.111 0 00-1.6.7 7.978 7.978 0 00-2.69-.5 7.117 7.117 0 00-4.78 1.8.53.53 0 01-.3.2 37.389 37.389 0 01-.7-7.5 39.311 39.311 0 0126.02-36.4c-.2.4-.3.8-.5 1.3-.3.8-.5 1.5-.8 2.3a8.265 8.265 0 003.29 9.2 34.552 34.552 0 00.2 5.6 8.388 8.388 0 00-2.59 9.4 33.524 33.524 0 001.99 4.3 8.039 8.039 0 007.18 4.3 7.42 7.42 0 001.49-.1 29.823 29.823 0 004.09 3.8 8.22 8.22 0 004.78 8.4c.7.3 1.4.6 2.2.9.7.3 1.49.5 2.19.8a10.042 10.042 0 002.39.4 8.309 8.309 0 006.78-3.6h1.6c1.29 0 2.69-.1 3.98-.2a8.233 8.233 0 006.38 3.1 9.228 9.228 0 002.89-.5 23.3 23.3 0 002.39-1 38.849 38.849 0 01-36.98 27.1zm37.68-36.7a2.878 2.878 0 01-1.19 3.7c-1.2.6-2.4 1.2-3.69 1.7a3.553 3.553 0 01-1 .2 2.8 2.8 0 01-2.59-1.7 2.879 2.879 0 00-2.59-1.6h-.5a25.781 25.781 0 01-4.78.4 26.2 26.2 0 01-2.8-.1h-.29a2.706 2.706 0 00-2.6 1.8 2.779 2.779 0 01-2.59 1.8 2.2 2.2 0 01-.8-.1c-.59-.2-1.29-.4-1.89-.6a15.26 15.26 0 01-1.89-.8 2.846 2.846 0 01-1.5-3.6 2.813 2.813 0 00-.99-3.3 27.628 27.628 0 01-5.59-5.2 2.913 2.913 0 00-2.19-1.1 2.663 2.663 0 00-1.2.3 2.592 2.592 0 01-1.19.3 2.725 2.725 0 01-2.49-1.5c-.6-1.2-1.2-2.4-1.7-3.7a2.885 2.885 0 011.5-3.6 2.826 2.826 0 001.59-3.1 32.065 32.065 0 01-.3-7.6 2.759 2.759 0 00-1.79-2.9h-.1a2.762 2.762 0 01-1.7-3.5 15.872 15.872 0 01.7-2c.2-.6.5-1.2.7-1.8a2.8 2.8 0 012.59-1.7 3.553 3.553 0 011 .2h.1a3.557 3.557 0 00.99.2 2.676 2.676 0 002.3-1.2 12.157 12.157 0 01.79-1.1h.2a37.208 37.208 0 0116.95 4.1 13.281 13.281 0 00-8.97 11.5 13.145 13.145 0 0012.16 14.2h1a13.269 13.269 0 0012.65-9.5 38.512 38.512 0 014.69 17.2l-.3.3a3.037 3.037 0 00-.7 3.4z" transform="translate(-1584.09 -4670)"/></symbol><symbol id="icon-questionnaire" viewBox="0 0 60.813 60.81"><path d="M886.589 5478.46h-22.8a1.265 1.265 0 100 2.53h22.8a1.265 1.265 0 100-2.53zm0 5.07h-22.8a1.27 1.27 0 000 2.54h22.8a1.27 1.27 0 000-2.54zm0-10.15h-22.8a1.27 1.27 0 000 2.54h22.8a1.27 1.27 0 000-2.54zm17.512-12.71l-9.133-13.72a8.839 8.839 0 00-7.378-3.96h-23.41a11.36 11.36 0 00-9.521 5.14l-8.179 12.42a8.823 8.823 0 00-1.7 5.22v31.71a6.343 6.343 0 006.334 6.34h48.138a6.343 6.343 0 006.334-6.34v-31.89a8.827 8.827 0 00-1.486-4.92zm-55.556 1.36l.036-.06 8.193-12.45a8.842 8.842 0 017.406-3.99h23.41a6.311 6.311 0 015.27 2.82l9.133 13.72a6.423 6.423 0 01.573 1.21h-5.843a6.328 6.328 0 00-6.334 6.3v15.22a3.8 3.8 0 01-3.8 3.8h-22.8a3.8 3.8 0 01-3.8-3.8v-15.22a6.328 6.328 0 00-6.334-6.3h-5.805a6.36 6.36 0 01.695-1.25zm54.512 35.45a3.81 3.81 0 01-3.8 3.81h-48.138a3.81 3.81 0 01-3.8-3.81v-31.66h6.334a3.787 3.787 0 013.8 3.76v15.22a6.349 6.349 0 006.334 6.34h22.8a6.349 6.349 0 006.334-6.34v-15.22a3.787 3.787 0 013.8-3.76h6.334v31.66zm-16.468-29.17h-22.8a1.27 1.27 0 000 2.54h22.8a1.27 1.27 0 000-2.54zm-24.069-2.54h25.336a1.265 1.265 0 100-2.53H862.52a1.265 1.265 0 100 2.53z" transform="translate(-844.781 -5443)"/></symbol><symbol id="icon-services" viewBox="0 0 56 56"><path d="M829 226a27 27 0 1027 27 27.03 27.03 0 00-27-27zm25.136 26.079H843.7a32.725 32.725 0 00-3.021-12.755 28.942 28.942 0 006.458-3.734 25.071 25.071 0 016.999 16.489zm-24.522-15.954a.614.614 0 11-.614-.614.614.614 0 01.614.614zm.306 2.272a2.449 2.449 0 000-4.544v-5.887a38.072 38.072 0 018.211 10.36 28.524 28.524 0 01-8.211 1.478V238.4zm2.84-10.274a25.065 25.065 0 0113.04 6.177 27.139 27.139 0 01-5.936 3.377 39.171 39.171 0 00-7.104-9.554zm-4.681.9v4.826a2.45 2.45 0 000 4.544v1.407a28.548 28.548 0 01-7.251-1.17 37.278 37.278 0 017.251-9.603zm-9.016 9.011a27.245 27.245 0 01-6.863-3.734 25.071 25.071 0 0114.344-6.332 38.854 38.854 0 00-7.481 10.07zm9.016 3.6v10.441H820.6a4 4 0 00-3.083-2.988 31.28 31.28 0 012.5-8.785 30.443 30.443 0 008.062 1.336zm-11.352 9.214a2.148 2.148 0 11-2.148 2.152 2.15 2.15 0 012.148-2.148zm3.877 3.068h7.475v10.064a30.494 30.494 0 00-8.207 1.384 31.229 31.229 0 01-2.351-8.459 4 4 0 003.079-2.985zM831.2 265.9a3.979 3.979 0 006.676 2.268 38.312 38.312 0 01-7.957 9.871v-12.213a22.8 22.8 0 011.281.074zm1.788-.623a2.148 2.148 0 112.147 2.148 2.149 2.149 0 01-2.146-2.153zm-4.91.553v11.147a37.151 37.151 0 01-7.415-9.926 28.766 28.766 0 017.416-1.226zm-1.54 12.212a25.074 25.074 0 01-14.572-6.54 27.132 27.132 0 016.937-3.846 38.778 38.778 0 007.636 10.381zm13.492-10.025a26.879 26.879 0 016 3.483 25.087 25.087 0 01-13.274 6.382 39.088 39.088 0 007.275-9.87zm-.928-2.327a3.756 3.756 0 00.022-.413 3.988 3.988 0 00-7.787-1.213q-.709-.054-1.418-.075V253.92h11.939a30.879 30.879 0 01-2.754 11.766zm-9.183-13.606v-10.446a30.41 30.41 0 009.037-1.65 30.914 30.914 0 012.9 12.092H829.92zm-19.056-16.494a28.976 28.976 0 007.407 4.113 33.019 33.019 0 00-2.613 9.458 4 4 0 00-2.807 2.918h-8.986a25.066 25.066 0 016.999-16.489zm-7 18.33h8.986a4 4 0 002.808 2.919 33.011 33.011 0 002.468 9.139 28.907 28.907 0 00-7.474 4.212 25.065 25.065 0 01-6.787-16.27zm43.484 16.268a28.687 28.687 0 00-6.521-3.84 32.7 32.7 0 002.874-12.428h10.436a25.064 25.064 0 01-6.788 16.268z" transform="translate(-801 -225)"/></symbol><symbol id="icon-telescope" viewBox="0 0 56.031 57"><path d="M618.875 246.179l-5.424-18.257a4.282 4.282 0 00-2.013-2.434 4.394 4.394 0 00-3.149-.348l-2.887.869a4.3 4.3 0 00-2.45 2 4.8 4.8 0 00-.525 1.826l-16.1 5.825a1.35 1.35 0 00-.788 1.565l-15.921 5.475a1.2 1.2 0 00-.787 1.565l.787 2.782-3.762 1.3a1.2 1.2 0 00-.787 1.565l1.225 4.173a1.286 1.286 0 001.225.956h.262l3.85-.869.787 2.782a1.287 1.287 0 001.225.957h.35L590.441 254a1.286 1.286 0 001.225.956h.262l4.2-.956v3.565l-14 17.735a1.342 1.342 0 00.175 1.826 1.418 1.418 0 00.788.261 1.371 1.371 0 001.05-.522l12.159-15.123V278.7a1.312 1.312 0 002.624 0v-16.958L611 276.869a1.25 1.25 0 001.05.522 1.226 1.226 0 00.787-.261 1.262 1.262 0 00.175-1.826l-14.086-17.735V253.4l10.149-2.261a4.134 4.134 0 002.887 1.217 5.153 5.153 0 001.138-.174l2.887-.869a4.3 4.3 0 002.45-2 3.9 3.9 0 00.438-3.134zm-50.394 6.173l-.525-1.739 2.45-.869.612 2zm6.212 2.782l-.7-2.347a.646.646 0 00-.088-.435l-1.4-4.694c-.087-.175-.087-.262-.175-.435l-.7-2.348 14.7-5.042 3.412 11.737zm28.346-22.691l2.013 6.781 2.8 9.477-15.135 3.39-4.287-14.345zm13.211 15.649a1.387 1.387 0 01-.874.7l-2.888.869a1.494 1.494 0 01-1.837-1.043l-2.1-7.129-3.412-11.042a1.688 1.688 0 01.088-1.13 1.387 1.387 0 01.875-.695l2.887-.87c.175 0 .262-.087.437-.087a1.654 1.654 0 01.7.174 1.382 1.382 0 01.7.87l5.424 18.257a1.282 1.282 0 010 1.126z" transform="translate(-563.969 -224)"/></symbol><symbol id="icon-grap" viewBox="0 0 25.969 28.875"><path d="M61.228 45.9a13.451 13.451 0 01-9.478-3.85l-3.465-3.4a5.851 5.851 0 01-1.775-4.2v-2.57a5.847 5.847 0 011.775-4.2l1.688-1.654v-3.894a3.433 3.433 0 013.463-3.395 3.5 3.5 0 011.926.573 3.488 3.488 0 016.538 0 3.5 3.5 0 015.195 1.7 3.5 3.5 0 011.925-.574 3.433 3.433 0 013.463 3.4v11.028A11.159 11.159 0 0161.228 45.9zM49.974 28.426l-.464.455a4.175 4.175 0 00-1.267 3v2.572a4.18 4.18 0 001.267 3l3.465 3.4a11.707 11.707 0 008.252 3.347 9.443 9.443 0 009.525-9.336V23.83a1.732 1.732 0 00-3.463 0v.849a.866.866 0 01-1.732 0v-2.547a1.732 1.732 0 00-3.463 0v2.547a.866.866 0 01-1.732 0v-4.244a1.732 1.732 0 00-3.463 0v4.244a.866.866 0 01-1.732 0v-2.547a1.732 1.732 0 00-3.463 0v7.639a.866.866 0 01-1.732 0v-1.345z" transform="translate(-46.5 -17.031)"/></symbol><symbol id="icon-phone" viewBox="0 0 24 24"><path d="M6.62 10.79c1.44 2.83 3.76 5.14 6.59 6.59l2.2-2.2c.27-.27.67-.36 1.02-.24 1.12.37 2.33.57 3.57.57.55 0 1 .45 1 1V20c0 .55-.45 1-1 1-9.39 0-17-7.61-17-17 0-.55.45-1 1-1h3.5c.55 0 1 .45 1 1 0 1.25.2 2.45.57 3.57.11.35.03.74-.25 1.02l-2.2 2.2z"/></symbol><symbol id="icon-lock" viewBox="0 0 24 24"><path d="M18 8h-1V6c0-2.76-2.24-5-5-5S7 3.24 7 6v2H6c-1.1 0-2 .9-2 2v10c0 1.1.9 2 2 2h12c1.1 0 2-.9 2-2V10c0-1.1-.9-2-2-2zM9 6c0-1.66 1.34-3 3-3s3 1.34 3 3v2H9V6zm9 14H6V10h12v10zm-6-3c1.1 0 2-.9 2-2s-.9-2-2-2-2 .9-2 2 .9 2 2 2z"/></symbol><symbol id="icon-chart" viewBox="0 0 24 24"><path d="M11 2v20c-5.07-.5-9-4.79-9-10s3.93-9.5 9-10zm2.03 0v8.99H22c-.47-4.74-4.24-8.52-8.97-8.99zm0 11.01V22c4.74-.47 8.5-4.25 8.97-8.99h-8.97z"/></symbol><symbol id="icon-date" viewBox="0 0 24 24"><path d="M20 3h-1V1h-2v2H7V1H5v2H4c-1.1 0-2 .9-2 2v16c0 1.1.9 2 2 2h16c1.1 0 2-.9 2-2V5c0-1.1-.9-2-2-2zm0 18H4V8h16v13z"/></symbol><symbol id="icon-print" viewBox="0 0 24 24"><path d="M19 8H5c-1.66 0-3 1.34-3 3v6h4v4h12v-4h4v-6c0-1.66-1.34-3-3-3zm-3 11H8v-5h8v5zm3-7c-.55 0-1-.45-1-1s.45-1 1-1 1 .45 1 1-.45 1-1 1zm-1-9H6v4h12V3z"/><path d="M0 0h24v24H0z" fill="none"/></symbol><symbol id="icon-email" viewBox="0 0 24 24"><path d="M20 4H4c-1.1 0-1.99.9-1.99 2L2 18c0 1.1.9 2 2 2h16c1.1 0 2-.9 2-2V6c0-1.1-.9-2-2-2zm0 4l-8 5-8-5V6l8 5 8-5v2z"/><path d="M0 0h24v24H0z" fill="none"/></symbol><symbol id="icon-delete" viewBox="0 0 24 24"><path d="M6 19c0 1.1.9 2 2 2h8c1.1 0 2-.9 2-2V7H6v12zM19 4h-3.5l-1-1h-5l-1 1H5v2h14V4z"/><path d="M0 0h24v24H0z" fill="none"/></symbol><symbol id="icon-service1" viewBox="0 0 34 38"><path d="M1610.69 1871.6h3v3h-3v-3zm-5.33 0h3v3h-3v-3zm5.33 4.81h3v3h-3v-3zm13.39-7.81h3.63v3.63h-3.63v-3.63zm0 7.94h3.63v3.63h-3.63v-3.63zm0-15.63h3.63v3.63h-3.63v-3.63zm-6.97 0h3.63v3.63h-3.63v-3.63zm-11.75 15.5h3v3h-3v-3zm28.1-28.21a1.316 1.316 0 00-1.23-.09l-21.12 10.01a1.251 1.251 0 00-.72 1.14v5.71h-9.12a1.27 1.27 0 00-1.27 1.26v18.5a1.163 1.163 0 00.38.89 1.226 1.226 0 00.89.38l31.47-.13a1.261 1.261 0 001.26-1.26v-35.36a1.061 1.061 0 00-.54-1.05zm-16.94 35.18l-13.94.04v-15.88h13.94v15.84zm14.95-.04l-12.42.04v-3.21h1.69v-3.63h-1.69v-4.35h1.69v-3.63h-1.69v-2.33a1.27 1.27 0 00-1.27-1.26h-4.85v-4.9l18.54-8.79v32.06z" transform="translate(-1600 -1848)"/></symbol><symbol id="icon-service2" viewBox="0 0 42 42"><path d="M1190 1962.08a2.923 2.923 0 002.92 2.92h29.16a2.923 2.923 0 002.92-2.92v-14.59a2.93 2.93 0 00-2.92-2.92h-29.16a2.93 2.93 0 00-2.92 2.92v14.59zm27.62-14.59h2.92v2.92h-2.92v-2.92zm0 5.84h2.92v2.92h-2.92v-2.92zm0 5.83h2.92v2.92h-2.92v-2.92zm-5.82-11.67h2.92v2.92h-2.92v-2.92zm0 5.84h2.92v2.92h-2.92v-2.92zm-5.8-5.84h2.91v2.92H1206v-2.92zm0 5.84h2.91v2.92H1206v-2.92zm-5.82-5.84h2.92v2.92h-2.92v-2.92zm0 5.84h2.92v2.92h-2.92v-2.92zm0 5.83h14.54v2.92h-14.54v-2.92zm-5.81-11.67h2.92v2.92h-2.92v-2.92zm0 5.84h2.92v2.92h-2.92v-2.92zm0 5.83h2.92v2.92h-2.92v-2.92zm23.32-27.7v2.92a1.453 1.453 0 01-1.45 1.46h-17.42a4.381 4.381 0 00-4.37 4.37v1.45h2.91v-1.45a1.468 1.468 0 011.46-1.46h17.42a4.374 4.374 0 004.37-4.37v-2.92a1.46 1.46 0 10-2.92 0z" transform="translate(-1189 -1930)"/></symbol><symbol id="icon-service3" viewBox="0 0 47 38"><path d="M910.428 1947.91h-5.714v4.23h-1.429v-8.46h8.572V1931h-18.572v12.68h8.572v8.46h-1.429v-4.23h-12.857L879 1962h40zm-12.857-12.68h10v1.41h-10v-1.41zm0 2.82h10v1.4h-10v-1.4z" transform="translate(-878 -1931)"/></symbol><symbol id="icon-service4" viewBox="0 0 51 38"><path d="M558.993 1952.39a7.435 7.435 0 01.207 1.69h8.988a22.967 22.967 0 01.236-3.33c.242-1.32 1.524-2.95 2.288-4.28s2.282-2.95 2.169-4.4a10.639 10.639 0 00-1.778-3.58c-.488-.72-2.431-3.76-3.039-3.68-.145.03-.284.05-.422.08l-1.181.54-2.059.95-1.377.63-.6.28a2.551 2.551 0 003.467 1.35 17.717 17.717 0 011.205 1.68c-2.845.83-3.845 2.41-3.9 5.17-.011.58.094 3.11-.8 3.13-.716-.04-.154-4.29-.014-5.04-.487 1.02-1.791.88-2.369.8-.055 1.48-.731 1.63-1.961 1.73-1.491.12-2.4-.92-3.233-1.85a24.908 24.908 0 00.632 3.31 4 4 0 001.484 2.6 3.644 3.644 0 012.057 2.22zm9.966 1.93v1.26h.834a.969.969 0 01.5.15h1.55a2.212 2.212 0 00-2.053-1.41h-.834zm.833 3.24h-.833v1.26h.834a2.227 2.227 0 002.053-1.41h-1.551a.964.964 0 01-.503.15zm-10.6 1.49c-.043 1.25-.105 2.35-.165 2.95h9.383c-.052-.78-.108-1.81-.152-2.95h-9.066zm15.638-1.85a.63.63 0 000-1.26h-4.912a.63.63 0 000 1.26h4.912zm.126-1.62h2.087a.964.964 0 01.5.15h1.548a2.209 2.209 0 00-2.053-1.41h-2.086a2.215 2.215 0 00-2.055 1.41h1.55a.971.971 0 01.508-.15zm2.087 1.98h-2.087a.961.961 0 01-.5-.15H572.9a2.229 2.229 0 002.054 1.41h2.087a2.229 2.229 0 002.054-1.41h-1.55a.973.973 0 01-.503.15zm5.037-.36a.63.63 0 000-1.26h-4.911a.63.63 0 000 1.26h4.911zm9.041-13.76a1.876 1.876 0 00.966-.37l.536-.77.871-1.25 1.3-1.88 1.086-1.8.064-.09c.295-.47.691-1.37-.01-1.72a1.124 1.124 0 00-1.442.07l-4.734 6.82a1.6 1.6 0 001.362.99zm1.7.61a1.5 1.5 0 00-.049.18c-.152.8.951 1.07 1.446.97a4.241 4.241 0 002.224-1.7c.456-.57 2.03-2.69 1.43-3.94a1.024 1.024 0 00-1.557-.54zm-3.845-13c-1.777-.33-2.61 1.85-3.4 3.15l2.686 1.24c.916-1.32 3.062-3.59.71-4.39zm.361 4.85c.231.12.4.21.551.29l.441.2.6.28-.176.45c-.582 1.46-1.849 3.09-3.694 2.54-.282.9.531.95 1.113 1.21a1.069 1.069 0 001.558-.42l.555-.72c0-.01 0-.01.006-.01l1.292-1.86c0-.01 0-.01.006-.01l1.644-2.37a5.779 5.779 0 00.522-.98 1.185 1.185 0 00-.513-1.82 1.436 1.436 0 00-1.828.22l-1.839 2.65zm-33.218 1.47l1.086 1.8 1.3 1.88.872 1.25.535.77a1.876 1.876 0 00.968.37 1.592 1.592 0 001.358-.99l-4.734-6.82a1.124 1.124 0 00-1.442-.07c-.7.35-.3 1.25-.008 1.72zm1.668 7.83c.494.1 1.6-.16 1.445-.97a1.332 1.332 0 00-.048-.18l-3.494-5.03a1.024 1.024 0 00-1.557.54c-.6 1.26.975 3.37 1.431 3.94a4.235 4.235 0 002.219 1.7zm8.641-11c-.789-1.3-1.622-3.48-3.4-3.15-2.353.8-.207 3.07.714 4.39zm-7.658 1.28l1.644 2.37v.01l1.3 1.87c-.04-.07-.083-.13-.125-.19.042.06.085.12.126.19l.554.72a1.069 1.069 0 001.558.42c.581-.26 1.395-.3 1.113-1.21-1.847.56-3.113-1.08-3.694-2.54l-.177-.45.605-.28.44-.2c.154-.08.319-.17.551-.29l-.241-.35-1.838-2.64a1.438 1.438 0 00-1.828-.23 1.184 1.184 0 00-.512 1.82 5.779 5.779 0 00.52.98zm35.172 10.63c-1.229-.1-1.906-.25-1.962-1.73-.576.08-1.88.22-2.366-.8.14.75.7 5-.015 5.04-.894-.03-.788-2.55-.8-3.13-.053-2.76-1.052-4.34-3.9-5.17a18.239 18.239 0 011.2-1.68 2.55 2.55 0 003.467-1.35l-.595-.28-1.378-.63-2.059-.95-1.179-.54c-.138-.03-.278-.05-.422-.08-.609-.08-2.552 2.96-3.04 3.68a10.634 10.634 0 00-1.777 3.58c-.114 1.45 1.4 3.07 2.168 4.4s2.047 2.96 2.288 4.28a23.067 23.067 0 01.238 3.33h8.99a7.554 7.554 0 01.207-1.69 3.649 3.649 0 012.052-2.22 4.005 4.005 0 001.484-2.6 24.7 24.7 0 00.633-3.31c-.837.93-1.746 1.97-3.238 1.85zm-10.2 12.94c-.044 1.14-.1 2.17-.151 2.95h9.383c-.059-.6-.121-1.7-.164-2.95h-9.068zm-2.038-1.64h-1.55a2.226 2.226 0 002.053 1.41h.8v-1.26h-.8a.963.963 0 01-.507-.15zm-1.551-1.68h1.55a.964.964 0 01.5-.15h.8v-1.26h-.8a2.215 2.215 0 00-2.051 1.41zm-21.908 2.85h10.248v-4.03h-10.249v4.03zm25.23-3v3h10.249v-4.03h-10.25v1.03z" transform="translate(-553 -1931)"/></symbol><symbol id="icon-arrow-forword" viewBox="0 0 370.814 370.814"><path d="M292.92 24.848L268.781 0 77.895 185.401l190.886 185.413 24.139-24.853-165.282-160.56z"/></symbol><symbol id="icon-weather" viewBox="0 0 450.4 450.4"><path d="M374.4 219c0-20.8-8.4-40-22.4-53.6-13.6-13.6-32.8-22.4-53.6-22.4-14 0-27.6 4-39.2 10.8-8.4 5.2-16 12-22 20-1.6-1.2-3.6-2.8-5.2-4-17.6-12.4-38.8-19.2-61.2-19.2-26.4 0-51.2 9.6-70 26C84 191 71.6 211 66 233.8c-17.2 2-32.4 9.6-44 21.2-13.6 13.6-22 32-22 52.8 0 20.4 8.4 39.2 22 52.8 13.6 13.6 32 22 52.8 22H276c24-.4 45.2-9.6 60.4-25.2 15.2-15.2 24.8-36.4 24.8-60 0-10-1.6-20-5.2-28.8 5.2-6 9.6-12.8 12.4-20 4-9.2 6-19.6 6-29.6zm-53.6 125.6c-11.6 11.6-27.6 18.8-45.6 18.8H75.6c-15.2-1.6-28.4-7.6-38.4-17.6-9.6-9.6-16-23.2-16-38s6-28.4 16-38c9.6-9.6 23.2-16 38-16 1.6 0 3.6-.4 4.8-1.2 2.4-1.6 4-4 4.4-6.8 3.2-21.2 14-39.6 29.2-52.8 15.2-13.2 35.2-20.8 56.8-20.8 18 0 35.2 5.6 49.6 15.6 11.2 7.6 20.8 18.4 27.2 30.8-2.4.8-4.4 1.6-6.4 2.8-10.8 4.8-20.8 12-28.8 21.2-3.6 4.4-3.2 10.8.8 14.4 4.4 3.6 10.8 3.2 14.4-.8 6-6.8 13.6-12.4 21.6-16 8-3.6 17.2-5.6 26.4-5.6 17.6 0 34 7.2 45.6 18.8 11.6 11.6 18.8 27.6 18.8 45.6s-7.2 34-18.8 45.6zM350 240.2c-1.2 2.8-2.4 5.2-4 8-2.8-4-6-7.6-9.2-10.8-15.2-15.2-36.4-24.8-60-24.8-2.4 0-5.2 0-7.6.4-4-9.2-9.6-17.2-16-24.8 4.4-6.8 10.4-12.4 17.2-16.8 8.4-5.2 18.4-8 28.8-8 15.2 0 29.2 6 39.2 16s16 24 16 39.2c0 7.6-1.6 14.8-4.4 21.6zm56-128.4c-4-4-10.4-4-14.4 0l-22 22c-4 4-4 10.4 0 14.4s10.4 4 14.4 0l22-22c4-4 4-10.4 0-14.4zm-106.8-44c-5.6 0-10.4 4.4-10.4 10V109c0 5.6 4.8 10.4 10.4 10.4 5.6 0 10.4-4.8 10.4-10.4V78.2c0-5.6-4.8-10.4-10.4-10.4z"/><path d="M228.4 133.8l-22-22c-3.6-4-10.4-4-14.4 0s-4 10.4 0 14.4l22 22c4 4 10.4 4 14.4 0s4-10.4 0-14.4zM440 208.6h-30.8c-5.6 0-10.4 4.8-10.4 10.4s4.8 10.4 10.4 10.4H440c5.6 0 10.4-4.8 10.4-10.4 0-6-4.8-10.4-10.4-10.4zm-34 102.8l-22-22c-4-4-10.4-4-14.4 0s-4 10.4 0 14.4l22 22c4 4 10.4 4 14.4 0s4-10.4 0-14.4z"/></symbol><symbol id="icon-vision2030" viewBox="0 0 198.425 132.744"><path d="M141.468 75.372v.145c0 9.575-6.977 16.611-18.315 16.611-9.157 0-15.48-3.627-19.84-8.777l7.704-7.327c3.488 3.918 7.122 6.093 12.282 6.093 4.215 0 7.195-2.393 7.195-6.165-.056-.1.822-6.6-9.957-6.6h-4.651l-1.745-7.11 16.32-16.385-6.54 4.2h-17.628v-9.574h34.375v8.414l-12.863 12.258c6.904 1.161 13.663 4.787 13.663 14.217m-31.905-58.107c0-4.597 3.302-8.297 7.936-8.297h5.222l-1.367.681c.062 12.6-.25 14.187.556 16.029l-4.353-.001c-4.634 0-7.994-3.758-7.994-8.354v-.058zm7.936 10.523h4.637v-1.667a3.222 3.222 0 001.464 1.359c1.475.7.403.26 42.703.39V6.858h-2.231v18.785s-38.678.149-39.413-.181c-.638-.287-.87-.943-.976-1.642-.169-1.135-.066-1.156-.097-16.962h-6.029c-6.169 0-10.369 4.885-10.369 10.465v.058c0 5.579 4.142 10.407 10.311 10.407M182.746 4.63h-4.888c.106-1.616-.642-4.63 2.651-4.63h1.574v1.552c-1.524.113-2.401-.371-2.401.846v.515h3.064V4.63zm5.65 23.467a6.84 6.84 0 01-1.813-.251l.586-2.143c1.009.287 2.299.304 2.831-.598.621-1.068.399-1.444.432-18.247h2.231c-.064 15.685.154 16.123-.209 17.941-.428 2.127-1.718 3.298-4.058 3.298M123.586 4.63h-2.232V2.403h2.232V4.63zm49.106 7.684c1.047-2.039 3.245-3.174 5.492-3.198v-.004h3.605l-1.274.635v10c-1.756-.052-2.99.167-4.616-.349-2.22-.698-3.724-2.406-3.724-4.885 0-.797.172-1.531.517-2.199m0 7.892c2.905 2.07 6.866 1.728 7.073 1.767l.75-1.571c-.121 1.523.419 3.651-1.004 4.717-1.203.899-3.348.87-4.672.556-.548-.129-1.176-.352-1.883-.667l-.697 2.143c1.414.521 2.766.946 4.267.946 2.176 0 3.756-.515 4.742-1.544.985-1.031 1.478-2.418 1.478-4.162V6.858c-2.746.086-4.829-.277-7.335.585-6.715 2.309-6.849 9.823-2.719 12.763M119.123 4.63h-2.232V2.403h2.232V4.63zM96.028 6.834h2.304v20.911h-1.886L81.607 8.936l1.312 3.048v15.761h-2.305V6.834h2.215l14.17 17.99-.971-2.566V6.834zM9.009 27.894L0 6.834h2.634l8.042 19.439-.228-2.298 7.121-17.141h2.543l-9.008 21.06H9.009zm39.923-21.06h2.364v20.91h-2.364V6.834zM74.29 17.349c0 4.75-3.411 8.573-8.2 8.573s-8.261-3.883-8.261-8.632v-.061c0-4.749 3.413-8.572 8.201-8.572 4.789 0 8.26 3.883 8.26 8.633v.059zm-8.2-10.873c-6.375 0-10.715 5.048-10.715 10.814v.059c0 5.765 4.28 10.754 10.655 10.754s10.715-5.048 10.715-10.813v-.061c0-5.764-4.28-10.753-10.655-10.753M45.031 22.069v.059c0 3.584-2.993 5.915-7.153 5.915-3.322 0-6.045-1.105-8.559-3.346l1.466-1.732c2.185 1.971 4.28 2.956 7.184 2.956 2.813 0 4.668-1.492 4.668-3.554v-.059c0-5.836-12.48-1.986-12.48-10.008v-.059c0-3.286 2.903-5.706 6.884-5.706 3.052 0 5.237.867 7.362 2.57l-1.376 1.821c-4.75-3.864-10.506-2.384-10.506 1.106v.06c0 1.971 1.077 3.076 5.687 4.062 4.669 1.016 6.823 2.719 6.823 5.915m-19.343 5.676h-2.364V6.835h2.364v20.91zm137.605 2.351h2.232v2.227h-2.232v-2.227zm-4.463 0h2.232v2.227h-2.232v-2.227zM18.71 81.609h19.398v9.649H.461v-8.85c18.811-15.964 25.728-19.084 25.728-26.04 0-4.28-2.835-6.601-6.832-6.601-3.925 0-6.614 2.175-10.393 6.817l-7.849-6.309C6.13 43.456 11 39.756 20.084 39.756c10.538 0 17.515 6.166 17.515 15.669v.144c0 11.916-9.021 15.757-24.49 28.223l-2.16 1.664 7.761-3.847zm168.015-15.594c0 8.704-6.25 15.813-15.263 15.813-9.012 0-15.407-7.254-15.407-15.959v-.145c0-8.704 6.251-15.812 15.262-15.812s15.408 7.254 15.408 15.957v.146zm-15.263-26.403c-15.697 0-27.108 11.823-27.108 26.257v.146c0 14.435 11.264 26.113 26.963 26.113s27.108-11.824 27.108-26.259v-.145c0-14.434-11.265-26.112-26.963-26.112m-102.944-3.34l2.577 2.468-2.473 2.571-2.576-2.468m8.369 0l2.575 2.468 2.473-2.571-2.576-2.468m-6.1 5.812l2.007 1.921 1.924-2.002-2.005-1.921m5.429 3.101l2.006 1.922 1.924-2.002-2.006-1.922m-12.559 3.964l2.006 1.922 1.924-2.002-2.004-1.922m4.805 2.235l2.005 1.922 1.925-2.002-2.006-1.922m-4.557 4.305l1.411 1.352 1.354-1.409-1.411-1.352m3.969 2.47l1.411 1.352 1.355-1.409-1.411-1.351"/><path d="M88.918 37.593h4.45v4.442h-4.45z" transform="rotate(-10.39 91.135 39.818)"/><path d="M83.133 39.508h3.57v3.564h-3.57z" transform="rotate(-10.376 84.927 41.294)"/><path d="M89.92 44.395h3.57v3.564h-3.57z" transform="rotate(-10.39 91.7 46.17)"/><path d="M85.014 44.984h2.78v2.774h-2.78z" transform="rotate(-10.382 86.413 46.375)"/><path d="M90.334 50.169h2.78v2.775h-2.78z" transform="rotate(-10.382 91.733 51.56)"/><path d="M80.917 46.094h2.781v2.775h-2.781z" transform="rotate(-10.382 82.315 47.485)"/><path d="M85.88 49.669h2.78v2.775h-2.78z" transform="rotate(-10.382 87.28 51.06)"/><path d="M82.329 50.08h1.956v1.952h-1.956z" transform="rotate(-10.39 83.314 51.066)"/><path d="M86.024 54.05h1.955v1.951h-1.955z" transform="rotate(-10.36 87.01 55.033)"/><path d="M101.572 52.342l-1.913 4.012 4.02 1.908 1.911-4.011m-9.723-3.762l-1.534 3.218 3.224 1.531 1.534-3.218m-.586 6.396l-1.534 3.219 3.225 1.53 1.534-3.218m-7.45-3.945l-1.194 2.506 2.511 1.192 1.195-2.506m-1.237 6.121l-1.195 2.506 2.51 1.192 1.196-2.506m-7.76-9.997l-1.195 2.506 2.511 1.192 1.195-2.506m-.58 4.606l-1.195 2.506 2.51 1.192 1.196-2.506m-5.531-2.959l-.841 1.763 1.766.838.841-1.762"/><path d="M89.372 64.241h1.952v1.955h-1.952z" transform="rotate(-64.552 90.342 65.217)"/><path d="M103.737 71.551l-3.902 2.136 2.141 3.895 3.902-2.136m-5.68-8.729l-3.13 1.714 1.717 3.124 3.13-1.714m-4.224 4.845L94.56 76.4l1.718 3.125 3.13-1.714m-3.729-7.55l-2.437 1.335 1.336 2.432 2.439-1.334m-4.591 4.242l-2.438 1.335 1.337 2.432 2.438-1.334m-.432-12.638l-2.438 1.334 1.337 2.434 2.439-1.335m-3.171 3.396l-2.438 1.335 1.337 2.432 2.438-1.334m-2.751-5.629l-1.715.939.941 1.711 1.714-.938m-3.549 3.038l-1.715.939.94 1.711 1.715-.938"/><path d="M89.529 88.1h4.443v4.451h-4.443z" transform="rotate(-82.958 91.74 90.32)"/><path d="M90.424 82.17h3.564v3.57h-3.564z" transform="rotate(-82.935 92.21 83.955)"/><path d="M83.719 87.169h3.564v3.571h-3.564z" transform="rotate(-82.935 85.504 88.955)"/><path d="M85.516 82.459h2.775v2.78h-2.775z" transform="rotate(-82.952 86.912 83.852)"/><path d="M78.966 85.97h2.775v2.78h-2.775z" transform="rotate(-82.952 80.36 87.365)"/><path d="M85.681 78.224h2.776v2.781h-2.776z" transform="rotate(-82.935 87.072 79.615)"/><path d="M80.778 81.88h2.775v2.781h-2.775z" transform="rotate(-82.935 82.168 83.27)"/><path d="M82.377 78.518h1.952v1.955h-1.952z" transform="rotate(-82.946 83.36 79.498)"/><path d="M77.476 80.846h1.952v1.956h-1.952z" transform="rotate(-82.952 78.455 81.827)"/><path d="M76.652 96.502l-3.262-3.023-3.028 3.256 3.262 3.022m2.427-65.478l-3.262-3.023-3.028 3.256 3.262 3.022m7.11 54.091L77.516 89.2l-2.429 2.612 2.617 2.424m-5.939-2.472l-2.618-2.425-2.429 2.612 2.617 2.424m6.002-5.912l-2.038-1.888-1.891 2.033 2.037 1.888m-5.48-3.01l-2.037-1.888-1.891 2.033 2.038 1.889m11.879-4.394l-2.038-1.888-1.891 2.033 2.037 1.888m-4.229-1.932l-2.038-1.888-1.891 2.033 2.037 1.888m4.485-4.379l-1.433-1.329-1.33 1.431 1.433 1.328m-4.009-2.404l-1.433-1.328-1.331 1.43 1.433 1.328"/><path d="M52.797 88.848h4.451v4.442h-4.451z" transform="rotate(-11.333 55.022 91.072)"/><path d="M59.437 87.709h3.57v3.564h-3.57z" transform="rotate(-11.333 61.207 89.493)"/><path d="M52.569 82.934h3.57v3.564h-3.57z" transform="rotate(-11.344 54.34 84.698)"/><path d="M58.262 83.048h2.78v2.775h-2.78z" transform="rotate(-11.333 59.64 84.44)"/><path d="M62.34 81.869h2.78v2.776h-2.78z" transform="rotate(-11.333 63.72 83.263)"/><path d="M57.317 78.377h2.78v2.775h-2.78z" transform="rotate(-11.333 58.696 79.77)"/><path d="M61.693 78.724h1.956v1.952h-1.956z" transform="rotate(-11.314 62.682 79.71)"/><path d="M57.934 74.815h1.955v1.952h-1.955z" transform="rotate(-11.344 58.916 75.795)"/><path d="M44.388 78.715l1.845-4.042-4.051-1.842-1.845 4.042m9.785 3.601l1.48-3.243-3.249-1.477-1.481 3.243m.479-6.405l1.481-3.243-3.25-1.478-1.48 3.244"/><path d="M49.54 71.708h2.776v2.779H49.54z" transform="rotate(-65.485 50.93 73.102)"/><path d="M55.002 81.249l1.153-2.525-2.53-1.15-1.153 2.525"/><path d="M48.145 64.418h2.776v2.779h-2.776z" transform="rotate(-65.474 49.535 65.806)"/><path d="M53.538 73.134h2.776v2.779h-2.776z" transform="rotate(-65.474 54.928 74.522)"/><path d="M51.512 67.369h2.776v2.779h-2.776z" transform="rotate(-65.455 52.905 68.762)"/><path d="M56.637 72.312l.811-1.776-1.78-.81-.811 1.777m1.022-4.555l.811-1.777-1.78-.809-.811 1.777m-12.197-6.595l3.867-2.2-2.206-3.859-3.866 2.2m5.825 8.635l3.102-1.765-1.77-3.096-3.101 1.766m4.144-4.915l3.102-1.765-1.77-3.097-3.101 1.766m3.854 7.487l2.414-1.375-1.377-2.41-2.415 1.374m4.52-4.316l2.414-1.375-1.377-2.41-2.415 1.374m.641 12.629l2.416-1.374-1.377-2.411-2.416 1.375m3.114-3.448l2.415-1.374-1.377-2.411-2.415 1.375m2.844 5.582l1.699-.967-.969-1.695-1.699.966m3.498-3.097l1.7-.967-.969-1.695-1.7.967"/><path d="M51.354 38.35h4.442v4.45h-4.442z" transform="rotate(-83.898 53.578 40.576)"/><path d="M51.445 45.166h3.563v3.571h-3.563z" transform="rotate(-83.892 53.227 46.953)"/><path d="M58.066 40.057h3.564v3.571h-3.564z" transform="rotate(-83.892 59.848 41.844)"/><path d="M57.142 45.581h2.775v2.78h-2.775z" transform="rotate(-83.886 58.533 46.972)"/><path d="M63.634 41.961h2.775v2.78h-2.775z" transform="rotate(-83.91 65.016 43.35)"/><path d="M57.047 49.818h2.775v2.78h-2.775z" transform="rotate(-83.886 58.435 51.21)"/><path d="M61.889 46.08h2.775v2.78h-2.775z" transform="rotate(-83.886 63.278 47.47)"/><path d="M61.176 50.287h1.952v1.956h-1.952z" transform="rotate(-83.892 62.153 51.266)"/><path d="M66.039 47.877h1.952v1.957h-1.952z" transform="rotate(-83.927 67.016 48.854)"/><path d="M86.941 68.235c-2.33-1.342-5.572-1.732-8.931-.502-1.468.555-2.938 1.524-4.178 2.473-.781-4.735-.4-9.13-.218-11.289.001-.012.015-.018.026-.011 1.677 1.055 1.207 4.003.855 4.846-.007.017.018.028.03.014 2.09-2.468 1.069-5.193.64-5.883-.078-.125.395.254.783.751 1.461 1.86.786 3.949.949 3.9.004-.001.009 0 .011-.005.971-1.905.659-4.321-1.338-6.066-.091-.077.265.039.378.079 1.703.591 2.591 2.345 2.579 3.909 0 .344 1.15-2.938-1.63-4.606-.52-.311-1.054-.482-1.403-.524-.272-.029 1.489-.294 2.726.544.743.501.938 1.107.919.937-.216-2.197-2.806-3.065-4.376-2.406-.166.083.618-1.079 2.134-.989.292.017.562.08.778.183.015.007.029-.013.018-.026-1.145-1.309-3.029-1.336-4.029.178-.007.01-.022.01-.028 0a7.686 7.686 0 01-.833-2.368c-.033-.21-.103 1.015-.863 2.368-.006.01-.02.01-.027 0-1.003-1.518-2.885-1.488-4.029-.178-.012.013.002.033.018.026.764-.363 2.207-.256 2.93.781.009.014-.004.032-.02.025-1.618-.68-4.16.243-4.375 2.406-.001.018.023.028.032.012.072-.135.25-.423.583-.715 1.294-1.14 3.329-.81 3.03-.778-.795.098-2.427.806-3.03 2.424-.493 1.322-.018 3.063 0 2.632.016-1.471.859-3.441 2.94-3.943.016-.004.028.018.015.029-3.234 2.843-1.278 6.334-1.308 6.058-.1-1.127-.183-3.139 1.686-4.658.014-.011.036.004.026.02-.429.69-1.449 3.415.64 5.883.012.014.037.003.03-.014-.351-.843-.821-3.791.855-4.846.011-.007.025-.001.026.011.183 2.159.564 6.554-.218 11.289-2.656-2.03-5.271-3.361-8.639-3.213-1.694.074-3.301.567-4.47 1.242-.042.024-.011.085.034.071 4.899-1.566 9.139.334 13.081 3.614-1.991 1.735-3.798 3.551-4.848 4.099a1.1 1.1 0 00-1.135-.427c-.876.193-1.085 1.29-.61 1.762 1.721 1.717 4.412-1.69 7.631-4.538 3.098 2.738 5.913 6.254 7.631 4.538.137-.137.296-.589.214-.948-.207-.896-1.398-1.155-1.959-.387-1.01-.509-2.783-2.301-4.848-4.099 3.97-3.309 8.164-5.156 13.08-3.614.046.014.077-.047.035-.071m-15.676 46.873h1.277v-11.436h-1.277v11.436zm-33.461-1.275l-1.995-4.891c2.064-1.747 4.625-1.426 6.273 0l-1.995 4.891h-2.283zm-7.04 0c-1.004-.03-1.71.095-2.642-.198-3.451-1.09-2.513-5.888 1.349-5.888h1.293v6.086zm35.504 0c-2.057-.063-3.91.363-4.853-1.274.186-.818.084-1.552.112-5.306H60.25v4.318c0 3.169-3.824 2.963-4.726 1.06-.362-.765-.141-1.085-.207-5.378h-1.278v4.414c0 1.44-.901 2.166-2.155 2.166H49.41v-6.58h-1.277v6.58h-6.705l2.235-5.337c-1.268-1.108-3.033-2.151-4.725-2.151-1.719 0-3.45.998-4.726 2.151l2.251 5.337h-4.422v-7.376h-2.043c-2.888 0-5.285 1.66-5.285 4.381 0 4.843 5.941 4.246 6.051 4.27-.02.157.159 1.251-.575 1.801-.686.514-1.911.499-2.674.319a6.222 6.222 0 01-1.077-.383l-.399 1.227c.81.298 1.583.542 2.442.542 2.434 0 3.56-1.214 3.56-3.267v-.239c20.842-.131 20.226.3 21.496-.398a3.277 3.277 0 001.173-1.068c.309.51.729.909 1.261 1.196 1.117.599 2.821.543 3.856.031a2.73 2.73 0 001.237-1.227c.493.842 1.258 1.383 2.794 1.451v.015h3.687v-11.436h-1.277v10.161zm114.59-.565c-1.13 2.641-5.02 2.717-6.146-.04a3.5 3.5 0 010-2.589c1.363-3.378 6.41-2.408 6.41 1.299 0 .477-.088.921-.264 1.33m-12.388 0c-.977 2.27-3.921 2.606-5.46 1.02-1.263-1.306-1.226-3.433-.007-4.716.993-1.055 2.524-1.225 3.695-.742 1.846.77 2.461 2.837 1.772 4.438m-31.058.565c-.977-.03-1.685.098-2.611-.206-3.363-1.105-2.561-5.896 1.349-5.896h1.262v6.102zm48.977 0H182c1.37-3.007-.758-6.532-4.263-6.532-3.228 0-5.486 3.308-4.167 6.532h-3.959c1.335-2.919-.688-6.532-4.262-6.532-3.23 0-5.486 3.309-4.167 6.532h-4.055v-10.161h-1.277v10.161h-4.07c-.07-1.309.297-3.246-.799-4.469-.743-.838-1.57-1.099-2.698-1.099h-5.651l2.404-4.593h-1.389l-2.452 4.577c.079.508.233.905.575 1.29 6.387.054 6.804-.134 7.559.184.592.245.953.692 1.078 1.235.152.654.075 1.146.096 2.875h-11.814v-7.376h-2.012c-3.384 0-5.268 2.013-5.268 4.333 0 2.907 2.338 4.318 5.268 4.318h25.335c1.879 2.024 5.042 1.852 6.769 0h5.619c1.873 2.018 5.033 1.859 6.77 0h6.497v-11.436h-1.278v10.161zm4.997 1.275h1.277v-11.436h-1.277v11.436zm-94.098 2.806H98.6v-1.309h-1.312v1.309zm12.486-4.081l-1.996-4.891c2.048-1.734 4.605-1.441 6.274 0l-1.995 4.891h-2.283zm9.051 0h-5.427l2.234-5.337c-1.271-1.114-3.042-2.151-4.725-2.151-1.725 0-3.451 1.003-4.726 2.151l2.251 5.337h-4.756v-7.376h-1.278v8.922c0 1.127-.082 1.96-1.213 1.96-.263 0-.402-.023-.654-.096l-.335 1.228c1.067.292 2.327.194 2.953-.726.566-.833.499-1.983.527-2.637h16.427v-11.436h-1.278v10.161zm-96.953-6.261c-1.42-1.55-3.064-.988-3.624-1.115v1.274c.932.036 1.363-.103 1.995.199.532.256.908.669 1.062 1.251.173.669.076 1.191.104 4.652h-5.987v1.275h7.264c-.053-4.83.132-5.342-.2-6.421a2.929 2.929 0 00-.614-1.115m70.747 10.357h1.312v-1.309h-1.312v1.309zm-7.765-4.096c-.975-.03-1.684.098-2.611-.206-3.367-1.106-2.556-5.896 1.349-5.896h1.262v6.102zm13.729-7.376h-1.277v7.376h-4.821v-7.376h-1.277v7.376h-5.077v-7.376c-1.606.05-4.002-.325-5.843 1.234-2.61 2.211-1.937 7.417 3.832 7.417h14.463v-8.651zm-8.201 11.472h1.312v-1.309h-1.312v1.309zM5.037 103.672H3.725v1.309h1.312v-1.309zm131.409 0h-1.312v1.309h1.312v-1.309zm-50.321 0h-1.312v1.309h1.312v-1.309zm-73.554 14.257h1.312v-1.309h-1.312v1.309zm71.317-14.257h-1.312v1.309h1.312v-1.309zm-76.614 0H5.962v1.309h1.312v-1.309zm3.06 14.257h1.312v-1.309h-1.312v1.309zm-4.331-4.096c-.973-.03-1.686.098-2.61-.206-3.361-1.102-2.567-5.896 1.349-5.896h1.261v6.102zm7.631-7.376h-1.277v7.376H7.28v-7.376c-1.531.047-2.748-.153-4.183.326-1.203.404-2.186 1.147-2.722 2.287-.558 1.186-.457 2.696.057 3.664.925 1.746 2.86 2.374 4.836 2.374h8.366v-8.651zm110.188 8.651h1.277v-11.436h-1.277v11.436zm14.86-11.436h-1.312v1.309h1.312v-1.309zM1.251 123.484h1.603v4.578l4.339-4.578h1.968l-3.792 3.915 3.961 5.189H7.389l-3.114-4.097-1.421 1.457v2.64H1.251m9.541-9.104h1.603v9.104h-1.603zm4.071 0h1.486l4.887 6.295v-6.295h1.576v9.104H21.47l-5.03-6.477v6.477h-1.577m9.934-4.526v-.026c0-2.549 1.955-4.709 4.704-4.709 1.59 0 2.568.443 3.506 1.236l-1.016 1.21c-2.47-2.098-5.512-.587-5.512 2.237v.026c0 1.873 1.237 3.251 3.1 3.251.861 0 1.643-.273 2.203-.689v-1.704h-2.333v-1.391h3.884v3.823c-3.262 2.787-8.536 1.355-8.536-3.264m14.151 3.069c4.254 0 4.203-6.191 0-6.191H37.15v6.191h1.798zm-3.401-7.647h3.401c6.508 0 6.42 9.104 0 9.104h-3.401v-9.104z"/><path d="M53.155 128.062v-.026c0-1.769-1.29-3.238-3.102-3.238-1.811 0-3.075 1.443-3.075 3.212v.026c0 1.769 1.29 3.239 3.101 3.239 1.812 0 3.076-1.444 3.076-3.213m-7.858 0v-.026c0-2.562 1.981-4.709 4.782-4.709 2.802 0 4.757 2.121 4.757 4.683v.026c0 2.562-1.98 4.708-4.783 4.708-2.801 0-4.756-2.12-4.756-4.682m11.53-4.578h1.707l2.776 4.305 2.775-4.305h1.707v9.104h-1.603v-6.529l-2.879 4.292h-.052l-2.854-4.266v6.503h-1.577m22.679-4.526v-.026c0-1.769-1.29-3.238-3.102-3.238-1.811 0-3.075 1.443-3.075 3.212v.026c0 1.769 1.29 3.239 3.101 3.239 1.812 0 3.076-1.444 3.076-3.213m-7.858 0v-.026c0-2.562 1.981-4.709 4.782-4.709 2.802 0 4.757 2.121 4.757 4.683v.026c0 2.562-1.981 4.708-4.783 4.708-2.801 0-4.756-2.12-4.756-4.682m11.531-4.578h6.789v1.457h-5.186v2.484h4.6v1.456h-4.6v3.707h-1.603m11.848-1.326l.964-1.145c.873.755 1.746 1.184 2.88 1.184.99 0 1.616-.455 1.616-1.145v-.025c0-2.034-5.096-.646-5.096-4.111v-.026c0-2.794 3.911-3.507 6.425-1.495l-.86 1.209c-2.098-1.561-3.961-.947-3.961.144v.026c0 2.005 5.095.737 5.095 4.096V130c0 3.192-4.526 3.521-7.063 1.262m14.269-2.289l-1.577-3.642-1.564 3.642h3.141zm-2.294-5.554h1.485l4.014 9.169h-1.694l-.925-2.198h-4.314l-.937 2.198h-1.643l4.014-9.169zm6.442 5.307v-5.242h1.603v5.177c0 1.691.873 2.601 2.306 2.601 1.421 0 2.294-.858 2.294-2.536v-5.242h1.603v5.164c0 2.718-1.538 4.084-3.923 4.084-2.372 0-3.883-1.366-3.883-4.006m13.553 2.405c4.254 0 4.204-6.191 0-6.191h-1.798v6.191h1.798zm-3.401-7.647h3.401c6.508 0 6.42 9.104 0 9.104h-3.401v-9.104zm10.279 0h1.603v9.104h-1.603zm13.477 5.489l-1.577-3.642-1.564 3.642h3.141zm-2.294-5.554h1.485l4.014 9.169h-1.694l-.925-2.198h-4.314l-.937 2.198h-1.643l4.014-9.169zm10.962 4.578c1.147 0 1.877-.598 1.877-1.522v-.026c0-.975-.704-1.509-1.89-1.509h-2.332v3.057h2.345zm-3.948-4.513h4.065c1.928 0 3.389.969 3.389 2.874-.037.1.19 2.108-2.177 2.784l2.463 3.446h-1.89l-2.241-3.174h-2.006v3.174h-1.603v-9.104zm15.227 5.489l-1.577-3.642-1.564 3.642h3.141zm-2.294-5.554h1.486l4.013 9.169h-1.694l-.925-2.198h-4.314l-.937 2.198h-1.643l4.014-9.169zm11.248 7.752c1.095 0 1.759-.43 1.759-1.249v-.026c0-.767-.612-1.223-1.876-1.223h-2.541v2.498h2.658zm-.469-3.85c1.029 0 1.72-.403 1.72-1.236v-.026c0-.715-.573-1.157-1.603-1.157h-2.306v2.419h2.189zm-3.766-3.837h4.092c1.604 0 2.997.75 2.997 2.315-.037.1.164 1.294-1.303 2.055 1.069.364 1.811.976 1.811 2.211v.026c0 1.626-1.342 2.497-3.375 2.497h-4.222v-9.104zm9.582 0h1.603v9.104H181.6zm9.441 5.489l-1.577-3.642-1.564 3.642h3.141zm-2.294-5.554h1.485l4.014 9.169h-1.694l-.925-2.198h-4.314l-.937 2.198h-1.643l4.014-9.169z"/></symbol><symbol id="icon-user" viewBox="0 0 24 24"><path d="M12 2C6.48 2 2 6.48 2 12s4.48 10 10 10 10-4.48 10-10S17.52 2 12 2zm0 3c1.66 0 3 1.34 3 3s-1.34 3-3 3-3-1.34-3-3 1.34-3 3-3zm0 14.2a7.2 7.2 0 01-6-3.22c.03-1.99 4-3.08 6-3.08 1.99 0 5.97 1.09 6 3.08a7.2 7.2 0 01-6 3.22z"/><path d="M0 0h24v24H0z" fill="none"/></symbol><symbol id="icon-zoom-out" viewBox="0 0 498.61 498.75"><path d="M408.54 391.12c78.86-88.05 76-223.88-8.57-308.46C313.45-3.78 173.66-5 85.61 79.84S-6.34 304.46 76.86 394.1s222.86 96.15 314 14.66l103.42 103.38a12.47 12.47 0 0017.64-17.64zm-308.46-8.57C21.78 305 21.19 178.61 98.76 100.3S302.71 21.41 381 99l1.32 1.32c77.81 77.81 77.81 204.43 0 282.25s-204.43 77.79-282.24-.02z" transform="translate(-16.93 -17)"/><path d="M253.65 253.87H316a12.48 12.48 0 000-25H166.37a12.48 12.48 0 100 25h87.28z" transform="translate(-16.93 -17)"/></symbol><symbol id="icon-zoom" viewBox="0 0 498.61 498.75"><path d="M408.54 391.12c78.86-88.05 76-223.88-8.57-308.46C313.45-3.78 173.66-5 85.61 79.84S-6.34 304.46 76.86 394.1s222.86 96.15 314 14.66l103.42 103.38a12.47 12.47 0 0017.64-17.64zm-308.46-8.57C21.78 305 21.19 178.61 98.76 100.3S302.71 21.41 381 99l1.32 1.32c77.81 77.81 77.81 204.43 0 282.25s-204.43 77.79-282.24-.02z" transform="translate(-16.93 -17)"/></symbol><symbol id="icon-zoom-in" viewBox="-17 -17 532 532.001"><path d="M391.54 374.117c78.862-88.047 76.015-223.879-8.571-308.46-86.516-86.434-226.313-87.688-314.364-2.813-88.054 84.87-91.94 224.62-8.742 314.254 83.2 89.636 222.852 96.156 314.035 14.66l103.38 103.379c4.878 4.836 12.745 4.816 17.6-.04 4.856-4.855 4.876-12.722.04-17.6zm-308.462-8.57c-78.3-77.578-78.89-203.942-1.316-282.25 77.578-78.3 203.945-78.89 282.25-1.317l1.316 1.317c77.817 77.816 77.817 204.43 0 282.25-77.82 77.82-204.437 77.816-282.25 0zm0 0"/><path d="M299.035 211.922h-62.387V149.59c0-6.887-5.582-12.473-12.472-12.473-6.883 0-12.473 5.586-12.473 12.473v62.332h-62.336c-6.883 0-12.472 5.59-12.472 12.473 0 6.89 5.59 12.472 12.472 12.472h62.336v62.39c0 6.888 5.59 12.473 12.473 12.473 6.89 0 12.472-5.585 12.472-12.472v-62.39h62.387c6.89 0 12.473-5.583 12.473-12.473 0-6.883-5.582-12.473-12.473-12.473zm0 0"/></symbol><symbol id="icon-share" viewBox="0 0 481.6 481.6" xml:space="preserve"><path d="M381.6 309.4c-27.7 0-52.4 13.2-68.2 33.6l-132.3-73.9c3.1-8.9 4.8-18.5 4.8-28.4 0-10-1.7-19.5-4.9-28.5l132.2-73.8c15.7 20.5 40.5 33.8 68.3 33.8 47.4 0 86.1-38.6 86.1-86.1S429 0 381.5 0s-86.1 38.6-86.1 86.1c0 10 1.7 19.6 4.9 28.5l-132.1 73.8c-15.7-20.6-40.5-33.8-68.3-33.8-47.4 0-86.1 38.6-86.1 86.1s38.7 86.1 86.2 86.1c27.8 0 52.6-13.3 68.4-33.9l132.2 73.9c-3.2 9-5 18.7-5 28.7 0 47.4 38.6 86.1 86.1 86.1s86.1-38.6 86.1-86.1-38.7-86.1-86.2-86.1zm0-282.3c32.6 0 59.1 26.5 59.1 59.1s-26.5 59.1-59.1 59.1-59.1-26.5-59.1-59.1 26.6-59.1 59.1-59.1zM100 299.8c-32.6 0-59.1-26.5-59.1-59.1s26.5-59.1 59.1-59.1 59.1 26.5 59.1 59.1-26.6 59.1-59.1 59.1zm281.6 154.7c-32.6 0-59.1-26.5-59.1-59.1s26.5-59.1 59.1-59.1 59.1 26.5 59.1 59.1-26.5 59.1-59.1 59.1z"/></symbol><symbol id="icon-sound" viewBox="0 0 60 60" xml:space="preserve"><path d="M28.404 7.758a3.029 3.029 0 00-3.09.044.929.929 0 00-.13.093l-13.55 11.463H1a1 1 0 00-1 1v19a1.002 1.002 0 001 1l10.61-.005 13.543 12.44c.05.046.104.086.161.12a3.055 3.055 0 001.582.446 3.07 3.07 0 001.508-.402A3.122 3.122 0 0030 50.201V10.514a3.125 3.125 0 00-1.596-2.756zM28 50.201c0 .431-.217.81-.579 1.015a1.049 1.049 0 01-1 .026L13 38.913v-4.556a1 1 0 10-2 0v3.996l-9 .004v-17h9v4a1 1 0 102 0v-4.536l13.405-11.34c.461-.242.861-.07 1.016.018.362.205.579.584.579 1.015v39.687zm24.026-20.343a19.48 19.48 0 00-13.229-18.447 1.002 1.002 0 00-1.269.626 1.002 1.002 0 00.626 1.269 17.48 17.48 0 0111.872 16.553 17.492 17.492 0 01-11.849 16.554 1 1 0 00.646 1.893 19.491 19.491 0 0013.203-18.448z"/><path d="M44.453 6.374a1.003 1.003 0 00-1.312.53 1.001 1.001 0 00.531 1.312A23.472 23.472 0 0158 29.858c0 9.777-5.894 18.38-15.015 21.914a1 1 0 00.723 1.866C53.605 49.801 60 40.467 60 29.858A25.47 25.47 0 0044.453 6.374z"/><path d="M43.026 29.858c0-5.972-4.009-11.302-9.749-12.962a1 1 0 10-.554 1.922c4.889 1.413 8.304 5.953 8.304 11.04s-3.415 9.627-8.304 11.04a1 1 0 00.554 1.922c5.741-1.661 9.749-6.991 9.749-12.962z"/></symbol><symbol id="icon-news" viewBox="0 0 463.101 463.101" xml:space="preserve"><path d="M451.2 42.401c-6.6 0-12 5.4-12 12v318.5c0 33.7-27.4 61-61 61H85c-33.7 0-61-27.4-61-61v-343.6h351.3v309c0 6.6 5.4 12 12 12s12-5.4 12-12v-321c0-6.6-5.4-12-12-12H12c-6.6 0-12 5.4-12 12v355.5c0 46.9 38.1 85 85 85h293.1c46.9 0 85-38.1 85-85v-318.4c.1-6.6-5.3-12-11.9-12z"/><path d="M329.3 98.501c6.6 0 12-5.4 12-12s-5.4-12-12-12H67.7c-6.6 0-12 5.4-12 12s5.4 12 12 12h261.6zm0 220.6H67.7c-6.6 0-12 5.4-12 12s5.4 12 12 12h261.5c6.6 0 12-5.4 12-12s-5.3-12-11.9-12zm0 61.5H109.2c-6.6 0-12 5.4-12 12s5.4 12 12 12h220.1c6.6 0 12-5.4 12-12s-5.4-12-12-12zm-277.6-240.2v129.8c0 6.6 5.4 12 12 12H194c6.6 0 12-5.4 12-12v-129.8c0-6.6-5.4-12-12-12H63.7c-6.6 0-12 5.4-12 12zm24 12H182v105.8H75.7v-105.8zm260-12h-86.3c-6.6 0-12 5.4-12 12s5.4 12 12 12h86.3c6.6 0 12-5.4 12-12s-5.3-12-12-12zm0 54.2h-86.3c-6.6 0-12 5.4-12 12s5.4 12 12 12h86.3c6.6 0 12-5.4 12-12s-5.3-12-12-12zm12 69.6c0-6.6-5.4-12-12-12h-86.3c-6.6 0-12 5.4-12 12s5.4 12 12 12h86.3c6.7 0 12-5.4 12-12z"/></symbol><symbol id="icon-ads" data-name="Layer 1" viewBox="0 0 512 512"><path d="M348.266 116.7l-31.283 31.282a96.058 96.058 0 109.912 9.889l31.27-31.271 34.206 8.552a7 7 0 006.648-1.842L451.338 81a7 7 0 00-4.261-11.916l-37.57-3.716-3.717-37.57a7 7 0 00-11.916-4.261l-52.319 52.32a7 7 0 00-1.841 6.647zm-9.933 103.963a84.131 84.131 0 11-29.868-64.162l-30.878 30.878a40.7 40.7 0 109.922 9.878l30.865-30.857a83.61 83.61 0 0119.959 54.267zm-55.373 0a28.657 28.657 0 11-14.04-24.618l-19.68 19.68a7 7 0 009.9 9.9l19.714-19.715a28.444 28.444 0 014.106 14.757zm108.961-100.051l-22.211-5.552 36-36 25.266 2.5zm1.393-76.72l2.5 25.264-36 36-5.553-22.211z"/><path d="M162.916 321.586a85.612 85.612 0 0127.384 63.006v64.693a25.966 25.966 0 0025.936 25.936h32.379V495.1a6 6 0 0012 0v-19.879h32.379a25.966 25.966 0 0025.937-25.936V384.5a87.4 87.4 0 0128.1-63.572 135.77 135.77 0 0043.125-102.798 134.191 134.191 0 00-28.511-79.53 6 6 0 10-9.467 7.374 122.269 122.269 0 0125.982 72.463 123.772 123.772 0 01-39.314 93.7 99.768 99.768 0 00-31.722 66.449H202.107a97.489 97.489 0 00-31.074-65.845A123.589 123.589 0 01254.6 98.114h1.163a122.417 122.417 0 0172.791 24.668 6 6 0 007.2-9.6 134.341 134.341 0 00-79.878-27.062q-.638-.006-1.274-.006a135.59 135.59 0 00-91.686 235.472zm130.075 141.635h-76.758a13.952 13.952 0 01-13.933-13.936v-2.574h68.751a6 6 0 000-12H202.3V418.2h16.915a6 6 0 000-12H202.3v-15.61h104.628v15.61h-67.08a6 6 0 100 12h67.08v16.509h-15.244a6 6 0 100 12h15.244v2.574a13.952 13.952 0 01-13.937 13.938zM259.347 62.772a6 6 0 006-6V16.9a6 6 0 00-12 0v39.872a6 6 0 006 6zM404.738 200.9a6 6 0 000 12h39.874a6 6 0 000-12zm-340.126 12h39.874a6 6 0 100-12H64.612a6 6 0 100 12zm76.682-110.834a6 6 0 008.486-8.485l-31.114-31.115a6 6 0 00-8.486 8.486z"/></symbol><symbol id="icon-reports" viewBox="0 0 480.006 480.006" xml:space="preserve"><path d="M40.003 48.006h104v16h-104zm0 32h104v16h-104zm0 32h72v16h-72zm0 32h72v16h-72zm-40 320h480v16h-480zM463.163 68.43l-32-64a8 8 0 00-10.73-3.587l-.006.003-64 32a8.004 8.004 0 007.152 14.32l46.352-23.16-12.648 36.112C341.69 218.446 198.501 329.522 31.323 344.006l1.36 16C206.16 344.978 354.737 229.701 412.395 65.398l12.912-36.896 23.536 47.08a8.004 8.004 0 0014.32-7.152zM96.003 384.006h-56a8 8 0 00-8 8v48a8 8 0 008 8h56a8 8 0 008-8v-48a8 8 0 00-8-8zm-8 48h-40v-32h40v32zm96-72h-56a8 8 0 00-8 8v72a8 8 0 008 8h56a8 8 0 008-8v-72a8 8 0 00-8-8zm-8 72h-40v-56h40v56zm96-112h-56a8 8 0 00-8 8v112a8 8 0 008 8h56a8 8 0 008-8v-112a8 8 0 00-8-8zm-8 112h-40v-96h40v96z"/><path d="M360.003 264.006h-56a8 8 0 00-8 8v168a8 8 0 008 8h56a8 8 0 008-8v-168a8 8 0 00-8-8zm-8 168h-40v-152h40v152zm96-280h-56a8 8 0 00-8 8v280a8 8 0 008 8h56a8 8 0 008-8v-280a8 8 0 00-8-8zm-8 280h-40v-264h40v264z"/></symbol><symbol id="icon-play" viewBox="0 0 30.051 30.051" xml:space="preserve"><path d="M19.982 14.438l-6.24-4.536a.752.752 0 00-1.195.607v9.069a.75.75 0 001.195.606l6.24-4.532a.747.747 0 000-1.214z"/><path d="M15.026.002C6.726.002 0 6.728 0 15.028c0 8.297 6.726 15.021 15.026 15.021 8.298 0 15.025-6.725 15.025-15.021.001-8.3-6.727-15.026-15.025-15.026zm0 27.54c-6.912 0-12.516-5.601-12.516-12.514 0-6.91 5.604-12.518 12.516-12.518 6.911 0 12.514 5.607 12.514 12.518.001 6.913-5.603 12.514-12.514 12.514z"/></symbol></defs></svg>