<svg xmlns="http://www.w3.org/2000/svg" width="34" height="38" viewBox="0 0 34 38">
  <defs>
    <style>
      .cls-1 {
        fill: #1aa488;
        fill-rule: evenodd;
      }
    </style>
  </defs>
  <path id="service1.svg" class="cls-1" d="M1610.69,1871.6h3v3h-3v-3Zm-5.33,0h3v3h-3v-3Zm5.33,4.81h3v3h-3v-3Zm13.39-7.81h3.63v3.63h-3.63v-3.63Zm0,7.94h3.63v3.63h-3.63v-3.63Zm0-15.63h3.63v3.63h-3.63v-3.63Zm-6.97,0h3.63v3.63h-3.63v-3.63Zm-11.75,15.5h3v3h-3v-3Zm28.1-28.21a1.316,1.316,0,0,0-1.23-.09l-21.12,10.01a1.251,1.251,0,0,0-.72,1.14v5.71h-9.12a1.27,1.27,0,0,0-1.27,1.26v18.5a1.163,1.163,0,0,0,.38.89,1.226,1.226,0,0,0,.89.38h0l31.47-.13a1.261,1.261,0,0,0,1.26-1.26v-35.36A1.061,1.061,0,0,0,1633.46,1848.2Zm-16.94,35.18-13.94.04v-15.88h13.94v15.84Zm14.95-.04-12.42.04v-3.21h1.69v-3.63h-1.69v-4.35h1.69v-3.63h-1.69v-2.33a1.27,1.27,0,0,0-1.27-1.26h-4.85v-4.9l18.54-8.79v32.06Z" transform="translate(-1600 -1848)"/>
</svg>
