<svg xmlns="http://www.w3.org/2000/svg" xmlns:xlink="http://www.w3.org/1999/xlink" width="51" height="38" viewBox="0 0 51 38">
  <defs>
    <style>
      .cls-1 {
        fill: #fff;
        fill-rule: evenodd;
        filter: url(#filter);
      }
    </style>
    <filter id="filter" x="553" y="1931" width="51" height="38" filterUnits="userSpaceOnUse">
      <feOffset result="offset" dx="2.179" dy="3.355" in="SourceAlpha"/>
      <feGaussianBlur result="blur" stdDeviation="2"/>
      <feFlood result="flood" flood-opacity="0.12"/>
      <feComposite result="composite" operator="in" in2="blur"/>
      <feBlend result="blend" in="SourceGraphic"/>
    </filter>
  </defs>
  <path id="service4.svg" class="cls-1" d="M558.993,1952.39a7.435,7.435,0,0,1,.207,1.69h8.988a22.967,22.967,0,0,1,.236-3.33c0.242-1.32,1.524-2.95,2.288-4.28s2.282-2.95,2.169-4.4a10.639,10.639,0,0,0-1.778-3.58c-0.488-.72-2.431-3.76-3.039-3.68-0.145.03-.284,0.05-0.422,0.08l-1.181.54-2.059.95-1.377.63-0.6.28a2.551,2.551,0,0,0,3.467,1.35,17.717,17.717,0,0,1,1.205,1.68c-2.845.83-3.845,2.41-3.9,5.17-0.011.58,0.094,3.11-.8,3.13-0.716-.04-0.154-4.29-0.014-5.04-0.487,1.02-1.791.88-2.369,0.8-0.055,1.48-.731,1.63-1.961,1.73-1.491.12-2.4-.92-3.233-1.85a24.908,24.908,0,0,0,.632,3.31,4,4,0,0,0,1.484,2.6A3.644,3.644,0,0,1,558.993,1952.39Zm9.966,1.93v1.26h0.834a0.969,0.969,0,0,1,.5.15h1.55a2.212,2.212,0,0,0-2.053-1.41h-0.834Zm0.833,3.24h-0.833v1.26h0.834a2.227,2.227,0,0,0,2.053-1.41h-1.551A0.964,0.964,0,0,1,569.792,1957.56Zm-10.6,1.49c-0.043,1.25-.105,2.35-0.165,2.95h9.383c-0.052-.78-0.108-1.81-0.152-2.95h-9.066Zm15.638-1.85a0.63,0.63,0,0,0,0-1.26h-4.912a0.63,0.63,0,0,0,0,1.26h4.912Zm0.126-1.62h2.087a0.964,0.964,0,0,1,.5.15h1.548a2.209,2.209,0,0,0-2.053-1.41h-2.086a2.215,2.215,0,0,0-2.055,1.41h1.55A0.971,0.971,0,0,1,574.955,1955.58Zm2.087,1.98h-2.087a0.961,0.961,0,0,1-.5-0.15H572.9a2.229,2.229,0,0,0,2.054,1.41h2.087a2.229,2.229,0,0,0,2.054-1.41h-1.55A0.973,0.973,0,0,1,577.042,1957.56Zm5.037-.36a0.63,0.63,0,0,0,0-1.26h-4.911a0.63,0.63,0,0,0,0,1.26h4.911Zm9.041-13.76a1.876,1.876,0,0,0,.966-0.37l0.536-.77,0.871-1.25,1.3-1.88,1.086-1.8,0.064-.09c0.295-.47.691-1.37-0.01-1.72a1.124,1.124,0,0,0-1.442.07l-4.734,6.82A1.6,1.6,0,0,0,591.12,1943.44Zm1.7,0.61a1.5,1.5,0,0,0-.049.18c-0.152.8,0.951,1.07,1.446,0.97a4.241,4.241,0,0,0,2.224-1.7c0.456-.57,2.03-2.69,1.43-3.94a1.024,1.024,0,0,0-1.557-.54Zm-3.845-13c-1.777-.33-2.61,1.85-3.4,3.15l2.686,1.24C589.178,1934.12,591.324,1931.85,588.972,1931.05Zm0.361,4.85c0.231,0.12.4,0.21,0.551,0.29l0.441,0.2,0.6,0.28-0.176.45c-0.582,1.46-1.849,3.09-3.694,2.54-0.282.9,0.531,0.95,1.113,1.21a1.069,1.069,0,0,0,1.558-.42l0.555-.72c0-.01,0-0.01.006-0.01l1.292-1.86c0-.01,0-0.01.006-0.01l1.644-2.37a5.779,5.779,0,0,0,.522-0.98,1.185,1.185,0,0,0-.513-1.82,1.436,1.436,0,0,0-1.828.22l-1.839,2.65Zm-33.218,1.47,1.086,1.8,1.3,1.88,0.872,1.25,0.535,0.77a1.876,1.876,0,0,0,.968.37,1.592,1.592,0,0,0,1.358-.99l-4.734-6.82a1.124,1.124,0,0,0-1.442-.07c-0.7.35-.3,1.25-0.008,1.72Zm1.668,7.83c0.494,0.1,1.6-.16,1.445-0.97a1.332,1.332,0,0,0-.048-0.18l-3.494-5.03a1.024,1.024,0,0,0-1.557.54c-0.6,1.26.975,3.37,1.431,3.94A4.235,4.235,0,0,0,557.783,1945.2Zm8.641-11c-0.789-1.3-1.622-3.48-3.4-3.15-2.353.8-.207,3.07,0.714,4.39Zm-7.658,1.28,1.644,2.37s0,0,0,.01l1.3,1.87c-0.04-.07-0.083-0.13-0.125-0.19,0.042,0.06.085,0.12,0.126,0.19l0.554,0.72a1.069,1.069,0,0,0,1.558.42c0.581-.26,1.395-0.3,1.113-1.21-1.847.56-3.113-1.08-3.694-2.54l-0.177-.45,0.605-.28,0.44-.2c0.154-.08.319-0.17,0.551-0.29l-0.241-.35-1.838-2.64a1.438,1.438,0,0,0-1.828-.23,1.184,1.184,0,0,0-.512,1.82A5.779,5.779,0,0,0,558.766,1935.48Zm35.172,10.63c-1.229-.1-1.906-0.25-1.962-1.73-0.576.08-1.88,0.22-2.366-.8,0.14,0.75.7,5-.015,5.04-0.894-.03-0.788-2.55-0.8-3.13-0.053-2.76-1.052-4.34-3.9-5.17a18.239,18.239,0,0,1,1.2-1.68,2.55,2.55,0,0,0,3.467-1.35l-0.595-.28-1.378-.63-2.059-.95-1.179-.54c-0.138-.03-0.278-0.05-0.422-0.08-0.609-.08-2.552,2.96-3.04,3.68a10.634,10.634,0,0,0-1.777,3.58c-0.114,1.45,1.4,3.07,2.168,4.4s2.047,2.96,2.288,4.28a23.067,23.067,0,0,1,.238,3.33H592.8a7.554,7.554,0,0,1,.207-1.69,3.649,3.649,0,0,1,2.052-2.22,4.005,4.005,0,0,0,1.484-2.6,24.7,24.7,0,0,0,.633-3.31C596.339,1945.19,595.43,1946.23,593.938,1946.11Zm-10.2,12.94c-0.044,1.14-.1,2.17-0.151,2.95h9.383c-0.059-.6-0.121-1.7-0.164-2.95h-9.068Zm-2.038-1.64h-1.55a2.226,2.226,0,0,0,2.053,1.41h0.8v-1.26h-0.8A0.963,0.963,0,0,1,581.7,1957.41Zm-1.551-1.68h1.55a0.964,0.964,0,0,1,.5-0.15h0.8v-1.26h-0.8A2.215,2.215,0,0,0,580.152,1955.73Zm-21.908,2.85h10.248v-4.03H558.244v4.03Zm25.23-3v3h10.249v-4.03H583.474v1.03Z" transform="translate(-553 -1931)"/>
</svg>
