<svg style="position: absolute; width: 0; height: 0; overflow: hidden;" version="1.1" xmlns="http://www.w3.org/2000/svg" xmlns:xlink="http://www.w3.org/1999/xlink">
    <defs>
        <symbol id="icon-twitter" viewBox="0 0 26 28">
            <title>twitter</title>
            <path d="M25.312 6.375c-0.688 1-1.547 1.891-2.531 2.609 0.016 0.219 0.016 0.438 0.016 0.656 0 6.672-5.078 14.359-14.359 14.359-2.859 0-5.516-0.828-7.75-2.266 0.406 0.047 0.797 0.063 1.219 0.063 2.359 0 4.531-0.797 6.266-2.156-2.219-0.047-4.078-1.5-4.719-3.5 0.313 0.047 0.625 0.078 0.953 0.078 0.453 0 0.906-0.063 1.328-0.172-2.312-0.469-4.047-2.5-4.047-4.953v-0.063c0.672 0.375 1.453 0.609 2.281 0.641-1.359-0.906-2.25-2.453-2.25-4.203 0-0.938 0.25-1.797 0.688-2.547 2.484 3.062 6.219 5.063 10.406 5.281-0.078-0.375-0.125-0.766-0.125-1.156 0-2.781 2.25-5.047 5.047-5.047 1.453 0 2.766 0.609 3.687 1.594 1.141-0.219 2.234-0.641 3.203-1.219-0.375 1.172-1.172 2.156-2.219 2.781 1.016-0.109 2-0.391 2.906-0.781z"></path>
        </symbol>
        <symbol id="icon-facebook" viewBox="0 0 16 28">
            <title>facebook</title>
            <path d="M14.984 0.187v4.125h-2.453c-1.922 0-2.281 0.922-2.281 2.25v2.953h4.578l-0.609 4.625h-3.969v11.859h-4.781v-11.859h-3.984v-4.625h3.984v-3.406c0-3.953 2.422-6.109 5.953-6.109 1.687 0 3.141 0.125 3.563 0.187z"></path>
        </symbol>
        <symbol id="icon-google-plus" viewBox="0 0 36 28">
            <title>google-plus</title>
            <path d="M22.453 14.266c0 6.547-4.391 11.188-11 11.188-6.328 0-11.453-5.125-11.453-11.453s5.125-11.453 11.453-11.453c3.094 0 5.672 1.125 7.672 3l-3.109 2.984c-0.844-0.812-2.328-1.766-4.562-1.766-3.906 0-7.094 3.234-7.094 7.234s3.187 7.234 7.094 7.234c4.531 0 6.234-3.266 6.5-4.937h-6.5v-3.938h10.813c0.109 0.578 0.187 1.156 0.187 1.906zM36 12.359v3.281h-3.266v3.266h-3.281v-3.266h-3.266v-3.281h3.266v-3.266h3.281v3.266h3.266z"></path>
        </symbol>
        <symbol id="icon-instagram" viewBox="0 0 169.063 169.063">
            <path d="M122.406,0H46.654C20.929,0,0,20.93,0,46.655v75.752c0,25.726,20.929,46.655,46.654,46.655h75.752   c25.727,0,46.656-20.93,46.656-46.655V46.655C169.063,20.93,148.133,0,122.406,0z M154.063,122.407   c0,17.455-14.201,31.655-31.656,31.655H46.654C29.2,154.063,15,139.862,15,122.407V46.655C15,29.201,29.2,15,46.654,15h75.752   c17.455,0,31.656,14.201,31.656,31.655V122.407z"/><path d="M84.531,40.97c-24.021,0-43.563,19.542-43.563,43.563c0,24.02,19.542,43.561,43.563,43.561s43.563-19.541,43.563-43.561   C128.094,60.512,108.552,40.97,84.531,40.97z M84.531,113.093c-15.749,0-28.563-12.812-28.563-28.561   c0-15.75,12.813-28.563,28.563-28.563s28.563,12.813,28.563,28.563C113.094,100.281,100.28,113.093,84.531,113.093z"/><path d="M129.921,28.251c-2.89,0-5.729,1.17-7.77,3.22c-2.051,2.04-3.23,4.88-3.23,7.78c0,2.891,1.18,5.73,3.23,7.78   c2.04,2.04,4.88,3.22,7.77,3.22c2.9,0,5.73-1.18,7.78-3.22c2.05-2.05,3.22-4.89,3.22-7.78c0-2.9-1.17-5.74-3.22-7.78   C135.661,29.421,132.821,28.251,129.921,28.251z"/>
        </symbol>
        <symbol id="icon-linkedin" viewBox="0 0 24 28">
            <title>linkedin</title>
            <path d="M5.453 9.766v15.484h-5.156v-15.484h5.156zM5.781 4.984c0.016 1.484-1.109 2.672-2.906 2.672v0h-0.031c-1.734 0-2.844-1.188-2.844-2.672 0-1.516 1.156-2.672 2.906-2.672 1.766 0 2.859 1.156 2.875 2.672zM24 16.375v8.875h-5.141v-8.281c0-2.078-0.75-3.5-2.609-3.5-1.422 0-2.266 0.953-2.641 1.875-0.125 0.344-0.172 0.797-0.172 1.266v8.641h-5.141c0.063-14.031 0-15.484 0-15.484h5.141v2.25h-0.031c0.672-1.062 1.891-2.609 4.672-2.609 3.391 0 5.922 2.219 5.922 6.969z"></path>
        </symbol>
        <symbol id="icon-youtube" viewBox="0 0 461.001 461.001">
            <path d="M365.257,67.393H95.744C42.866,67.393,0,110.259,0,163.137v134.728  c0,52.878,42.866,95.744,95.744,95.744h269.513c52.878,0,95.744-42.866,95.744-95.744V163.137  C461.001,110.259,418.135,67.393,365.257,67.393z M300.506,237.056l-126.06,60.123c-3.359,1.602-7.239-0.847-7.239-4.568V168.607  c0-3.774,3.982-6.22,7.348-4.514l126.06,63.881C304.363,229.873,304.298,235.248,300.506,237.056z"/>
        </symbol>
        <symbol id="icon-caret" viewBox="0 0 24 24">
            <title>caret</title>
            <path d="M7 10l5 5 5-5z" />
            <path d="M0 0h24v24H0z" fill="none" />
        </symbol>
        <symbol id="icon-menu" viewBox="0 0 24 24">
            <title>menu</title>
            <path d="M0 0h24v24H0z" fill="none"/>
            <path d="M3 18h18v-2H3v2zm0-5h18v-2H3v2zm0-7v2h18V6H3z"/>
        </symbol>
        <symbol id="icon-mouse" viewBox="0 0 23 40">
            <path d="M413,495h1a10,10,0,0,1,10,10v8a10,10,0,0,1-10,10h-1a10,10,0,0,1-10-10v-8A10,10,0,0,1,413,495Zm-5,33,5.5,3.248L419,528v1.755L413.5,533l-5.5-3.249V528Z" transform="translate(-402 -494)"/>
        </symbol>
        <symbol id="icon-edit" viewBox="0 0 24 24">
            <path d="M3 17.25V21h3.75L17.81 9.94l-3.75-3.75L3 17.25zM20.71 7.04c.39-.39.39-1.02 0-1.41l-2.34-2.34c-.39-.39-1.02-.39-1.41 0l-1.83 1.83 3.75 3.75 1.83-1.83z"/>
            <path d="M0 0h24v24H0z" fill="none"/>
        </symbol>
        <symbol id="icon-view" viewBox="0 0 24 24">
            <path d="M0 0h24v24H0z" fill="none"/>
            <path d="M12 4.5C7 4.5 2.73 7.61 1 12c1.73 4.39 6 7.5 11 7.5s9.27-3.11 11-7.5c-1.73-4.39-6-7.5-11-7.5zM12 17c-2.76 0-5-2.24-5-5s2.24-5 5-5 5 2.24 5 5-2.24 5-5 5zm0-8c-1.66 0-3 1.34-3 3s1.34 3 3 3 3-1.34 3-3-1.34-3-3-3z"/>
        </symbol>
        <symbol id="icon-view-off" viewBox="0 0 24 24"><path d="M0 0h24v24H0zm0 0h24v24H0zm0 0h24v24H0zm0 0h24v24H0z" fill="none"/><path d="M12 7c2.76 0 5 2.24 5 5 0 .65-.13 1.26-.36 1.83l2.92 2.92c1.51-1.26 2.7-2.89 3.43-4.75-1.73-4.39-6-7.5-11-7.5-1.4 0-2.74.25-3.98.7l2.16 2.16C10.74 7.13 11.35 7 12 7zM2 4.27l2.28 2.28.46.46C3.08 8.3 1.78 10.02 1 12c1.73 4.39 6 7.5 11 7.5 1.55 0 3.03-.3 4.38-.84l.42.42L19.73 22 21 20.73 3.27 3 2 4.27zM7.53 9.8l1.55 1.55c-.05.21-.08.43-.08.65 0 1.66 1.34 3 3 3 .22 0 .44-.03.65-.08l1.55 1.55c-.67.33-1.41.53-2.2.53-2.76 0-5-2.24-5-5 0-.79.2-1.53.53-2.2zm4.31-.78l3.15 3.15.02-.16c0-1.66-1.34-3-3-3l-.17.01z"/></symbol>
        <symbol id="icon-location" viewBox="0 0 430.114 430.114">
            <path d="M356.208,107.051c-1.531-5.738-4.64-11.852-6.94-17.205C321.746,23.704,261.611,0,213.055,0
            C148.054,0,76.463,43.586,66.905,133.427v18.355c0,0.766,0.264,7.647,0.639,11.089c5.358,42.816,39.143,88.32,64.375,131.136
            c27.146,45.873,55.314,90.999,83.221,136.106c17.208-29.436,34.354-59.259,51.17-87.933c4.583-8.415,9.903-16.825,14.491-24.857
            c3.058-5.348,8.9-10.696,11.569-15.672c27.145-49.699,70.838-99.782,70.838-149.104v-20.262
            C363.209,126.938,356.581,108.204,356.208,107.051z M214.245,199.193c-19.107,0-40.021-9.554-50.344-35.939
            c-1.538-4.2-1.414-12.617-1.414-13.388v-11.852c0-33.636,28.56-48.932,53.406-48.932c30.588,0,54.245,24.472,54.245,55.06
            C270.138,174.729,244.833,199.193,214.245,199.193z"/>
        </symbol>
        <symbol id="icon-link" viewBox="0 0 482.8 482.8">
            <path d="M255.2,209.3c-5.3,5.3-5.3,13.8,0,19.1c21.9,21.9,21.9,57.5,0,79.4l-115,115c-21.9,21.9-57.5,21.9-79.4,0l-17.3-17.3    c-21.9-21.9-21.9-57.5,0-79.4l115-115c5.3-5.3,5.3-13.8,0-19.1s-13.8-5.3-19.1,0l-115,115C8.7,322.7,0,343.6,0,365.8    c0,22.2,8.6,43.1,24.4,58.8l17.3,17.3c16.2,16.2,37.5,24.3,58.8,24.3s42.6-8.1,58.8-24.3l115-115c32.4-32.4,32.4-85.2,0-117.6    C269.1,204,260.5,204,255.2,209.3z"/>
            <path d="M458.5,58.2l-17.3-17.3c-32.4-32.4-85.2-32.4-117.6,0l-115,115c-32.4,32.4-32.4,85.2,0,117.6c5.3,5.3,13.8,5.3,19.1,0    s5.3-13.8,0-19.1c-21.9-21.9-21.9-57.5,0-79.4l115-115c21.9-21.9,57.5-21.9,79.4,0l17.3,17.3c21.9,21.9,21.9,57.5,0,79.4l-115,115    c-5.3,5.3-5.3,13.8,0,19.1c2.6,2.6,6.1,4,9.5,4s6.9-1.3,9.5-4l115-115c15.7-15.7,24.4-36.6,24.4-58.8    C482.8,94.8,474.2,73.9,458.5,58.2z"/>
        </symbol>
        <symbol id="icon-mail" viewBox="0 0 512.001 512.001">
            <path d="M511.646,126.634c-0.021-14.449-11.782-26.189-26.227-26.189c-0.012,0-0.024,0-0.034,0L26.19,101.076
			c-7.005,0.009-13.588,2.746-18.535,7.706C2.709,113.743-0.009,120.334,0,127.337l0.355,258.029
			c0.009,7.005,2.746,13.588,7.706,18.535c4.951,4.938,11.526,7.655,18.519,7.655c0.012,0,0.025,0,0.035,0l459.194-0.631
			c14.458-0.02,26.207-11.799,26.19-26.261L511.646,126.634z M456.611,126.71L256.02,266.154L55.04,127.262L456.611,126.71z
			 M340.846,292.471l118.971,92.265l-407.972,0.56l119.696-92.825c5.722-4.439,6.764-12.675,2.326-18.399
			c-4.439-5.722-12.675-6.764-18.399-2.326L26.561,371.715l-0.32-232.475l222.344,153.657c2.244,1.551,4.849,2.325,7.455,2.325
			c2.617,0,5.236-0.783,7.485-2.346l221.912-154.264l0.336,233.066l-128.856-99.931c-5.719-4.437-13.959-3.396-18.397,2.326
			C334.081,279.795,335.122,288.033,340.846,292.471z"/>
        </symbol>
        <symbol id="icon-mobile" viewBox="0 0 24 24"><path d="M15.5 1h-8C6.12 1 5 2.12 5 3.5v17C5 21.88 6.12 23 7.5 23h8c1.38 0 2.5-1.12 2.5-2.5v-17C18 2.12 16.88 1 15.5 1zm-4 21c-.83 0-1.5-.67-1.5-1.5s.67-1.5 1.5-1.5 1.5.67 1.5 1.5-.67 1.5-1.5 1.5zm4.5-4H7V4h9v14z"/><path d="M0 0h24v24H0z" fill="none"/></symbol>
        <symbol id="icon-close" viewBox="0 0 24 24">
            <path d="M19 6.41L17.59 5 12 10.59 6.41 5 5 6.41 10.59 12 5 17.59 6.41 19 12 13.41 17.59 19 19 17.59 13.41 12z"/>
            <path d="M0 0h24v24H0z" fill="none"/>
        </symbol>
        <symbol id="icon-language" viewBox="0 0 24 24">
            <path d="M11.99 2C6.47 2 2 6.48 2 12s4.47 10 9.99 10C17.52 22 22 17.52 22 12S17.52 2 11.99 2zm6.93 6h-2.95c-.32-1.25-.78-2.45-1.38-3.56 1.84.63 3.37 1.91 4.33 3.56zM12 4.04c.83 1.2 1.48 2.53 1.91 3.96h-3.82c.43-1.43 1.08-2.76 1.91-3.96zM4.26 14C4.1 13.36 4 12.69 4 12s.1-1.36.26-2h3.38c-.08.66-.14 1.32-.14 2 0 .68.06 1.34.14 2H4.26zm.82 2h2.95c.32 1.25.78 2.45 1.38 3.56-1.84-.63-3.37-1.9-4.33-3.56zm2.95-8H5.08c.96-1.66 2.49-2.93 4.33-3.56C8.81 5.55 8.35 6.75 8.03 8zM12 19.96c-.83-1.2-1.48-2.53-1.91-3.96h3.82c-.43 1.43-1.08 2.76-1.91 3.96zM14.34 14H9.66c-.09-.66-.16-1.32-.16-2 0-.68.07-1.35.16-2h4.68c.09.65.16 1.32.16 2 0 .68-.07 1.34-.16 2zm.25 5.56c.6-1.11 1.06-2.31 1.38-3.56h2.95c-.96 1.65-2.49 2.93-4.33 3.56zM16.36 14c.08-.66.14-1.32.14-2 0-.68-.06-1.34-.14-2h3.38c.16.64.26 1.31.26 2s-.1 1.36-.26 2h-3.38z"/>
        </symbol>
        <symbol id="icon-search" viewBox="0 0 24 24">
            <path d="M15.5 14h-.79l-.28-.27C15.41 12.59 16 11.11 16 9.5 16 5.91 13.09 3 9.5 3S3 5.91 3 9.5 5.91 16 9.5 16c1.61 0 3.09-.59 4.23-1.57l.27.28v.79l5 4.99L20.49 19l-4.99-5zm-6 0C7.01 14 5 11.99 5 9.5S7.01 5 9.5 5 14 7.01 14 9.5 11.99 14 9.5 14z"/>
        </symbol>
        <symbol id="icon-arrow" viewBox="0 0 292.359 292.359">
            <path d="M222.979,133.331L95.073,5.424C91.456,1.807,87.178,0,82.226,0c-4.952,0-9.233,1.807-12.85,5.424
                c-3.617,3.617-5.424,7.898-5.424,12.847v255.813c0,4.948,1.807,9.232,5.424,12.847c3.621,3.617,7.902,5.428,12.85,5.428
                c4.949,0,9.23-1.811,12.847-5.428l127.906-127.907c3.614-3.613,5.428-7.897,5.428-12.847
                C228.407,141.229,226.594,136.948,222.979,133.331z"/>
        </symbol>
        <symbol id="icon-arrow-bottom" viewBox="0 0 292.362 292.362">
            <path d="M286.935,69.377c-3.614-3.617-7.898-5.424-12.848-5.424H18.274c-4.952,0-9.233,1.807-12.85,5.424
                C1.807,72.998,0,77.279,0,82.228c0,4.948,1.807,9.229,5.424,12.847l127.907,127.907c3.621,3.617,7.902,5.428,12.85,5.428
                s9.233-1.811,12.847-5.428L286.935,95.074c3.613-3.617,5.427-7.898,5.427-12.847C292.362,77.279,290.548,72.998,286.935,69.377z"/>
        </symbol>
        <symbol id="icon-back" viewBox="0 0 27.9 17.969">
            <path  d="M1662.8,556.357a0.771,0.771,0,0,1-.54-0.214l-8.58-8.247a0.709,0.709,0,0,1,0-1.036,0.787,0.787,0,0,1,1.08,0l8.58,8.246a0.71,0.71,0,0,1,0,1.037A0.789,0.789,0,0,1,1662.8,556.357Zm-8.58,8.263a0.772,0.772,0,0,1-.54-0.215,0.709,0.709,0,0,1,0-1.036l8.58-8.246a0.785,0.785,0,0,1,1.08,0,0.709,0.709,0,0,1,0,1.036l-8.58,8.246A0.79,0.79,0,0,1,1654.22,564.62Zm8.58-8.263h-26.37a0.733,0.733,0,1,1,0-1.465h26.37A0.733,0.733,0,1,1,1662.8,556.357Z" transform="translate(-1635.66 -546.656)"/>
        </symbol>
        <symbol id="icon-bell" viewBox="0 0 26 26">
            <path d="M554.3,675.416c1.336,0.843,1.011,4.146.759,5.235a0.738,0.738,0,0,0,.577.843h0.145a0.725,0.725,0,0,0,.722-0.562c0.108-.527,1.011-5.2-1.408-6.711a0.763,0.763,0,0,0-1.011.211A0.723,0.723,0,0,0,554.3,675.416Zm5.453,8.327v-5.621a9.632,9.632,0,0,0-7.15-9.311h0.289a2.89,2.89,0,0,0-5.778,0H547.4a9.632,9.632,0,0,0-7.15,9.311v5.586a4.21,4.21,0,0,0-3.25,4.076v0.7h8.739a4.34,4.34,0,0,0,8.522,0H563v-0.7A4.2,4.2,0,0,0,559.75,683.743ZM550,667.405a1.4,1.4,0,0,1,1.408,1.2,9.534,9.534,0,0,0-1.408-.106,9.177,9.177,0,0,0-1.408.106A1.4,1.4,0,0,1,550,667.405Zm0,2.5a8.263,8.263,0,0,1,8.306,8.186v5.481H541.694v-5.445A8.27,8.27,0,0,1,550,669.9Zm0,20.694a2.789,2.789,0,0,1-2.781-2.108h5.6A2.861,2.861,0,0,1,550,690.594Zm-11.447-3.513a2.888,2.888,0,0,1,2.78-2.108h17.334a2.856,2.856,0,0,1,2.78,2.108H538.553Z" transform="translate(-537 -666)"/>
        </symbol>
        <symbol id="icon-envelope" viewBox="0 0 30 24">
            <path d="M711.022,667H682.978a0.971,0.971,0,0,0-.978,1v22a0.972,0.972,0,0,0,.978,1h28.044a0.972,0.972,0,0,0,.978-1V668A0.971,0.971,0,0,0,711.022,667Zm-0.979,22H683.956V669h26.087v20Zm-23.706-15.067,6.554,5.4-4.728,4.8a1,1,0,0,0,.685,1.7,0.93,0.93,0,0,0,.685-0.3l4.923-4.967,1.957,1.6a1.012,1.012,0,0,0,.619.234,0.9,0.9,0,0,0,.62-0.234l1.957-1.6,4.924,4.967a0.931,0.931,0,0,0,1.369,0,0.982,0.982,0,0,0,0-1.4l-4.793-4.8,6.554-5.366a1.018,1.018,0,0,0,.163-1.4,0.966,0.966,0,0,0-1.37-.166l-7.3,6a0.877,0.877,0,0,0-.2.167,0.032,0.032,0,0,1-.032.033L697,680.133l-9.424-7.733a0.966,0.966,0,0,0-1.37.166A0.948,0.948,0,0,0,686.337,673.933Z" transform="translate(-682 -667)"/>
        </symbol>
        <symbol id="icon-forword" viewBox="0 0 28 18">
            <path d="M1596.77,556.718a0.785,0.785,0,0,0,.54-0.215l8.61-8.261a0.728,0.728,0,0,0,0-1.038,0.8,0.8,0,0,0-1.09,0l-8.6,8.261a0.711,0.711,0,0,0,0,1.038A0.751,0.751,0,0,0,1596.77,556.718Zm8.6,8.277a0.8,0.8,0,0,0,.55-0.215,0.728,0.728,0,0,0,0-1.038l-8.61-8.261a0.787,0.787,0,0,0-1.08,0,0.711,0.711,0,0,0,0,1.038l8.6,8.261A0.79,0.79,0,0,0,1605.37,565Zm-8.6-8.277h26.45a0.735,0.735,0,1,0,0-1.468h-26.45A0.735,0.735,0,1,0,1596.77,556.718Z" transform="translate(-1596 -547)"/>
        </symbol>
        <symbol id="icon-idea" viewBox="0 0 73.312 76.219">
            <path d="M749.6,471.906v-2.233a2.163,2.163,0,0,1,2.177-2.156h13.135a2.2,2.2,0,0,1,2.1,2.156v2.233a3.5,3.5,0,0,1-3.031,3.464l-0.544,2a2.563,2.563,0,0,1-2.41,1.848h-5.441a2.425,2.425,0,0,1-2.409-1.848l-0.545-2A3.5,3.5,0,0,1,749.6,471.906Zm8.783-57.358a2.08,2.08,0,0,0,2.1-2.079v-7.391a2.1,2.1,0,0,0-4.2,0v7.391A2.08,2.08,0,0,0,758.387,414.548ZM723.8,441.418h7.462a2.131,2.131,0,0,0,2.1-2.079,2.08,2.08,0,0,0-2.1-2.079H723.8A2.079,2.079,0,1,0,723.8,441.418Zm59.539-2.156a2.08,2.08,0,0,0,2.1,2.079H792.9a2.08,2.08,0,0,0,2.1-2.079,1.989,1.989,0,0,0-2.1-2.079h-7.462A2.08,2.08,0,0,0,783.338,439.262Zm-42.672,17.554a2.177,2.177,0,0,0-2.954,0l-5.285,5.235a2.079,2.079,0,0,0,0,3,2.078,2.078,0,0,0,2.953,0l5.286-5.236A2.077,2.077,0,0,0,740.666,456.816Zm36.92-34.415a2.135,2.135,0,0,0,1.477-.616l5.285-5.235a2.079,2.079,0,0,0,0-3,2.125,2.125,0,0,0-3.031,0l-5.286,5.235a2.079,2.079,0,0,0,0,3A2.484,2.484,0,0,0,777.586,422.4Zm-39.874-.616a2.079,2.079,0,0,0,2.954,0,2.079,2.079,0,0,0,0-3l-5.286-5.235a2.125,2.125,0,0,0-3.031,0,2.079,2.079,0,0,0,0,3Zm43.605,43.269a2.078,2.078,0,0,0,2.953,0,2.079,2.079,0,0,0,0-3l-5.207-5.235a2.127,2.127,0,0,0-3.032,0,2.077,2.077,0,0,0,0,3ZM738.567,439.8a19.609,19.609,0,0,1,19.509-19.71h0.156a19.457,19.457,0,0,1,14.3,33.029,13.212,13.212,0,0,0-3.731,7.468,5.082,5.082,0,0,1-5.052,4.234H752.869a5.024,5.024,0,0,1-5.053-4.234,14.259,14.259,0,0,0-3.73-7.468A20.136,20.136,0,0,1,738.567,439.8Zm4.353-.077a14.833,14.833,0,0,0,4.352,10.317,18.1,18.1,0,0,1,4.9,9.777,0.694,0.694,0,0,0,.777.616h3.343V447.962l-4.508-4.465a2.031,2.031,0,0,1,0-2.849h0a2.079,2.079,0,0,1,2.876,0l3.653,3.618,3.653-3.618a2.079,2.079,0,0,1,2.876,0h0a2.032,2.032,0,0,1,0,2.849l-4.509,4.465v12.549h3.343a0.836,0.836,0,0,0,.777-0.616,17.584,17.584,0,0,1,4.9-9.778A15.164,15.164,0,0,0,758.154,424.4H758A15.2,15.2,0,0,0,742.92,439.724Z" transform="translate(-721.688 -403)"/>
        </symbol>
        <symbol id="icon-images" viewBox="0 0 69.91 69.94">
            <path d="M1621.46,5486.11v-34.96a1.169,1.169,0,0,0-1.17-1.16h-19.8v-2.33a7,7,0,0,0-6.99-6.99h-2.33v-0.59a4.084,4.084,0,0,0-4.08-4.08,36.808,36.808,0,0,0-11.15,1.73l-19.39,5.82a6.948,6.948,0,0,0-4.99,6.7v41.15a7,7,0,0,0,4.48,6.52l15.69,6.91a17.083,17.083,0,0,0,6.04,1.1,4.084,4.084,0,0,0,4.08-4.08v-2.91h11.65c3.76,0,6.33-1.8,6.87-4.67h19.92a1.169,1.169,0,0,0,1.17-1.16v-7Zm-2.33-2.81-11.99-11.99a1.159,1.159,0,0,0-1.65,0l-6.16,6.17-8.5-8.5a1.147,1.147,0,0,0-1.64,0l-7.34,7.33v-13.5a1.723,1.723,0,0,1,1.14-1.64l5.39-1.48a4.084,4.084,0,0,0,2.79-3.87v-3.5h27.96v30.98ZM1593.5,5443a4.665,4.665,0,0,1,4.66,4.66v2.33h-6.99V5443h2.33Zm-13.98,58.85a1.752,1.752,0,0,1-1.75,1.75,14.831,14.831,0,0,1-5.16-.92l-15.69-6.91a4.7,4.7,0,0,1-3.03-4.37v-41.15a4.644,4.644,0,0,1,3.32-4.47l19.4-5.82a34.567,34.567,0,0,1,10.48-1.62,1.743,1.743,0,0,1,1.75,1.74v15.74a1.738,1.738,0,0,1-1.13,1.64l-5.4,1.48a4.075,4.075,0,0,0-2.79,3.87v39.04Zm13.98-5.25h-11.65v-2.33h16.12C1597.26,5496.34,1594.7,5496.6,1593.5,5496.6Zm-11.65-4.66v-12.33l8.16-8.16,8.49,8.5a1.177,1.177,0,0,0,1.65,0l6.16-6.17,12.82,12.82v5.34h-37.28Zm25.63-25.64a4.66,4.66,0,1,0-4.66-4.66A4.665,4.665,0,0,0,1607.48,5466.3Zm0-6.99a2.33,2.33,0,1,1-2.33,2.33A2.339,2.339,0,0,1,1607.48,5459.31Z" transform="translate(-1551.56 -5436)"/>
        </symbol>
        <symbol id="icon-videos" viewBox="0 0 69.9 69.94">
            <path d="M1269.02,5486.11v-34.96a1.163,1.163,0,0,0-1.17-1.16h-19.8v-2.33a6.991,6.991,0,0,0-6.99-6.99h-2.33v-0.59a4.082,4.082,0,0,0-4.07-4.08,36.824,36.824,0,0,0-11.16,1.73l-19.39,5.82a6.939,6.939,0,0,0-4.98,6.7v41.15a6.991,6.991,0,0,0,4.47,6.52l15.69,6.91a17.1,17.1,0,0,0,6.05,1.1,4.082,4.082,0,0,0,4.07-4.08v-2.91h11.65c3.76,0,6.33-1.8,6.87-4.67h19.92a1.163,1.163,0,0,0,1.17-1.16v-7Zm-39.61-9.8v-13.5a1.723,1.723,0,0,1,1.14-1.64l5.4-1.48a4.088,4.088,0,0,0,2.78-3.87v-3.5h27.96v39.62h-37.28v-12.33m11.65-36.61a4.665,4.665,0,0,1,4.66,4.66v2.33h-6.99V5443h2.33Zm-13.98,58.85a1.752,1.752,0,0,1-1.75,1.75,14.873,14.873,0,0,1-5.16-.92l-15.69-6.91a4.688,4.688,0,0,1-3.02-4.37v-41.15a4.632,4.632,0,0,1,3.32-4.47l19.39-5.82a34.629,34.629,0,0,1,10.49-1.62,1.741,1.741,0,0,1,1.74,1.74v15.74a1.738,1.738,0,0,1-1.13,1.64l-5.4,1.48a4.075,4.075,0,0,0-2.79,3.87v39.04Zm13.98-5.25h-11.65v-2.33h16.12C1244.82,5496.34,1242.27,5496.6,1241.06,5496.6Zm7.56-8.39a15.845,15.845,0,1,1,15.83-15.85A15.855,15.855,0,0,1,1248.62,5488.21Zm0-30.61a14.765,14.765,0,1,0,14.74,14.76A14.764,14.764,0,0,0,1248.62,5457.6Zm0,11.22a4.27,4.27,0,1,1,4.26-4.27A4.272,4.272,0,0,1,1248.62,5468.82Zm0-7.45a3.18,3.18,0,1,0,3.18,3.18A3.182,3.182,0,0,0,1248.62,5461.37Zm0,22.9a4.27,4.27,0,1,1,4.26-4.27A4.272,4.272,0,0,1,1248.62,5484.27Zm0-7.46a3.185,3.185,0,1,0,3.18,3.19A3.19,3.19,0,0,0,1248.62,5476.81Zm7.88-.18a4.265,4.265,0,1,1,4.26-4.27A4.274,4.274,0,0,1,1256.5,5476.63Zm0-7.45a3.185,3.185,0,1,0,3.18,3.18A3.182,3.182,0,0,0,1256.5,5469.18Zm-15.32,7.45a4.265,4.265,0,1,1,4.26-4.27A4.274,4.274,0,0,1,1241.18,5476.63Zm0-7.45a3.185,3.185,0,1,0,3.18,3.18A3.182,3.182,0,0,0,1241.18,5469.18Zm7.44,5.14a1.955,1.955,0,1,1,1.95-1.96A1.961,1.961,0,0,1,1248.62,5474.32Zm0-2.82a0.865,0.865,0,1,0,.87.86A0.869,0.869,0,0,0,1248.62,5471.5Zm0.65,16.71H1235.4a0.545,0.545,0,0,1,0-1.09h13.87A0.545,0.545,0,0,1,1249.27,5488.21Z" transform="translate(-1199.13 -5436)"/>
        </symbol>
        <symbol id="icon-info" viewBox="0 0 25 25">
            <path d="M623.5,667v1.391h0.527a11.118,11.118,0,0,1,7.525,18.77,11,11,0,0,1-7.941,3.448h-5.665a5.453,5.453,0,0,1-3.915-1.641,5.53,5.53,0,0,1-1.639-3.948v-5.9a11.1,11.1,0,0,1,3.36-7.647,11.225,11.225,0,0,1,7.748-3.086V667m0,0A12.5,12.5,0,0,0,611,679.152v5.9A6.949,6.949,0,0,0,617.942,692h5.665a12.507,12.507,0,0,0,.472-25H623.5Zm-1.944,11.068v-0.584c0.166-.056.389-0.139,0.694-0.223a7.53,7.53,0,0,1,.916-0.194c0.334-.056.639-0.112,0.945-0.14s0.583-.055.833-0.055l0.3,0.2-1.555,7.369h1.194v0.612a4.414,4.414,0,0,1-.528.3c-0.194.084-.416,0.167-0.638,0.251a2.95,2.95,0,0,1-.667.167,5.578,5.578,0,0,1-.638.055,1.212,1.212,0,0,1-.889-0.25,0.787,0.787,0,0,1-.25-0.556,5.373,5.373,0,0,1,.056-0.668c0.027-.222.083-0.445,0.138-0.723l1.167-5.311ZM623,674.2a1.173,1.173,0,0,1,.389-0.917,1.443,1.443,0,0,1,1-.334,1.474,1.474,0,0,1,1.028.334,1.173,1.173,0,0,1,.388.917,1.057,1.057,0,0,1-.388.862,1.521,1.521,0,0,1-1.028.334,1.543,1.543,0,0,1-1-.334A1.021,1.021,0,0,1,623,674.2Z" transform="translate(-611 -667)"/>
        </symbol>
        <symbol id="icon-envelop-open" viewBox="0 0 62.062 68.91">
            <path d="M551.532,5464.01a2.255,2.255,0,0,0-.671-1.61l-6.847-6.78h0v-10.23a2.816,2.816,0,0,0-2.82-2.8H527.1l-4.97-4.92a2.307,2.307,0,0,0-3.246,0l-4.968,4.92H499.821a2.817,2.817,0,0,0-2.821,2.8v10.23l-6.847,6.78a2.242,2.242,0,0,0-.675,1.61,2.14,2.14,0,0,0,.109.52,0.9,0.9,0,0,0-.109.41v38.19a2.808,2.808,0,0,0,2.821,2.79h56.412a2.808,2.808,0,0,0,2.821-2.79v-38.19a0.833,0.833,0,0,0-.105-0.4A2.315,2.315,0,0,0,551.532,5464.01Zm-2-.29a0.426,0.426,0,0,1,.075.52l-5.6,4.45v-10.44Zm-29.317-24.73a0.418,0.418,0,0,1,.586,0l3.639,3.6h-7.866Zm-20.393,5.46H541.19a0.941,0.941,0,0,1,.94.94v24.8l-21.33,16.98a0.455,0.455,0,0,1-.663-0.06l-21.257-16.92v-24.8A0.94,0.94,0,0,1,499.821,5444.45Zm-8.34,19.27,5.519-5.46v10.43l-5.519-4.39a0.394,0.394,0,0,1-.122-0.29A0.424,0.424,0,0,1,491.481,5463.72Zm57.23,40.34H492.3a0.937,0.937,0,0,1-.94-0.93v-36.54l27.525,21.9a2.34,2.34,0,0,0,1.646.67,2.141,2.141,0,0,0,1.521-.6l27.6-21.98v36.55A0.939,0.939,0,0,1,548.711,5504.06Zm-14.1-52.15H506.4a0.935,0.935,0,1,1,0-1.87h28.206A0.935,0.935,0,1,1,534.608,5451.91Zm0,5.58H506.4a0.93,0.93,0,1,1,0-1.86h28.206A0.93,0.93,0,1,1,534.608,5457.49Zm0,5.59H506.4a0.93,0.93,0,1,1,0-1.86h28.206A0.93,0.93,0,1,1,534.608,5463.08Zm0,5.59H506.4a0.93,0.93,0,1,1,0-1.86h28.206A0.93,0.93,0,1,1,534.608,5468.67Z" transform="translate(-489.469 -5437)"/>
        </symbol>
        <symbol id="icon-masjed" viewBox="0 0 32.063 32.313">
            <path d="M863.608,74.3H834.291a1.378,1.378,0,0,1-1.376-1.371V56.057a1.378,1.378,0,0,1,1.376-1.372h29.317a1.379,1.379,0,0,1,1.376,1.372V73A1.366,1.366,0,0,1,863.608,74.3Zm-27.94-2.675H862.3v-14.2H835.668v14.2Zm23.26-14.2a1.378,1.378,0,0,1-1.376-1.371,8.6,8.6,0,0,0-17.205,0,1.377,1.377,0,0,1-2.753,0,11.287,11.287,0,0,1,22.573,0A1.228,1.228,0,0,1,858.928,57.429Zm4.68,0a1.378,1.378,0,0,1-1.377-1.371v-11.8a1.377,1.377,0,0,1,2.753,0v11.8A1.378,1.378,0,0,1,863.608,57.429Zm-29.317,0a1.378,1.378,0,0,1-1.376-1.371v-11.8a1.377,1.377,0,0,1,2.753,0v11.8A1.378,1.378,0,0,1,834.291,57.429Zm14.658-9.944a1.378,1.378,0,0,1-1.376-1.372V43.369a1.377,1.377,0,0,1,2.753,0v2.743A1.379,1.379,0,0,1,848.949,47.484ZM852.734,74.3h-7.57a1.378,1.378,0,0,1-1.376-1.371V69.5a12.847,12.847,0,0,1,4.267-9.327,1.379,1.379,0,0,1,1.858,0,12.731,12.731,0,0,1,4.266,9.327v3.43A1.487,1.487,0,0,1,852.734,74.3Zm-6.262-2.675h4.955V69.568a9.909,9.909,0,0,0-2.478-6.379,9.914,9.914,0,0,0-2.477,6.379v2.058Z" transform="translate(-832.906 -42)"/>
        </symbol>
        <symbol id="icon-more-horiz" viewBox="0 0 28 8">
            <path d="M456,674a4,4,0,1,1-4,4A4,4,0,0,1,456,674Zm10,0a4,4,0,1,1-4,4A4,4,0,0,1,466,674Zm10,0a4,4,0,1,1-4,4A4,4,0,0,1,476,674Z" transform="translate(-452 -674)"/>
        </symbol>
        <symbol id="icon-more-vert" viewBox="0 0 8 28">
            <path d="M471,605a4,4,0,1,1-4-4A4,4,0,0,1,471,605Zm0,10a4,4,0,1,1-4-4A4,4,0,0,1,471,615Zm0,10a4,4,0,1,1-4-4A4,4,0,0,1,471,625Z" transform="translate(-463 -601)"/>
        </symbol>
        <symbol id="icon-next" viewBox="0 0 13.09 25.07">
            <path d="M1578.66,1402.88a1.5,1.5,0,0,0-.07-2.13,1.527,1.527,0,0,0-2.15.06l-9.29,9.27a3.923,3.923,0,0,0,0,5.56l9.29,9.29a1.528,1.528,0,0,0,2.15.07,1.507,1.507,0,0,0,.07-2.14h0l-9.36-9.31a0.951,0.951,0,0,1-.01-1.35h0.01Z" transform="translate(-1566 -1400.34)"/>
        </symbol>
		
		<symbol id="icon-icon-ads" viewBox="0 0 36 32">
			<title>icon-ads</title>
			<path d="M2.897 0c-1.589 0.005-2.878 1.285-2.897 2.87l-0 0.002v27.898c0.008 0.681 0.562 1.23 1.244 1.23 0.3 0 0.574-0.106 0.789-0.282l-0.002 0.002 4.966-4.103c0.303-0.225 0.498-0.583 0.498-0.986 0-0.278-0.093-0.535-0.249-0.74l0.002 0.003c-0.23-0.302-0.59-0.494-0.995-0.494-0.28 0-0.538 0.092-0.746 0.248l0.003-0.002q-0.047 0.035-0.091 0.074l-2.935 2.423v-25.27c-0.001-0.008-0.001-0.016-0.001-0.025 0-0.213 0.173-0.386 0.386-0.386 0.010 0 0.020 0 0.030 0.001l-0.001-0h30.621c0.008-0.001 0.018-0.001 0.028-0.001 0.213 0 0.386 0.173 0.386 0.386 0 0.009-0 0.018-0.001 0.026l0-0.001v22.154c0.001 0.008 0.001 0.016 0.001 0.025 0 0.213-0.173 0.386-0.386 0.386-0.010 0-0.020-0-0.030-0.001l0.001 0h-23.172c-0.005-0-0.011-0-0.018-0-0.68 0-1.231 0.551-1.231 1.231 0 0.674 0.541 1.221 1.212 1.231h23.209c1.589-0.005 2.878-1.285 2.897-2.87l0-0.002v-22.154c-0.019-1.587-1.307-2.867-2.896-2.872h-30.621zM6.078 4.103c-0.627 0.064-1.112 0.59-1.112 1.229 0 0.001 0 0.002 0 0.002v-0 6.566c0.003 0.681 0.555 1.232 1.236 1.232 0.002 0 0.003 0 0.005 0h6.62c0.001 0 0.003 0 0.005 0 0.681 0 1.233-0.55 1.236-1.231v-6.567c-0.003-0.68-0.556-1.231-1.236-1.231-0.002 0-0.004 0-0.005 0h-6.62c-0.019-0.001-0.042-0.002-0.065-0.002s-0.045 0.001-0.068 0.002l0.003-0zM16.836 4.103c-0.653 0.035-1.169 0.573-1.169 1.231 0 0.681 0.552 1.233 1.233 1.233 0.023 0 0.045-0.001 0.068-0.002l-0.003 0h14.069c0.005 0 0.011 0 0.018 0 0.68 0 1.231-0.551 1.231-1.231 0-0.674-0.541-1.221-1.212-1.231h-14.105c-0.023-0.001-0.049-0.002-0.075-0.002-0.019 0-0.038 0-0.056 0.001l0.003-0zM7.448 6.566h4.138v4.103h-4.138v-4.103zM16.836 8.206c-0.652 0.035-1.168 0.573-1.168 1.231 0 0.681 0.552 1.233 1.233 1.233 0.023 0 0.045-0.001 0.068-0.002l-0.003 0h7.448c0.005 0 0.011 0 0.017 0 0.68 0 1.231-0.551 1.231-1.231 0-0.674-0.541-1.221-1.213-1.231h-7.485c-0.023-0.001-0.049-0.002-0.075-0.002-0.019 0-0.038 0-0.056 0.001l0.003-0zM6.078 14.772c-0.627 0.064-1.112 0.59-1.112 1.228v6.566c0.003 0.68 0.556 1.231 1.236 1.231 0.002 0 0.003 0 0.005 0h6.62c0.001 0 0.003 0 0.005 0 0.681 0 1.233-0.55 1.236-1.231v-6.566c-0.003-0.68-0.556-1.231-1.236-1.231-0.002 0-0.004 0-0.005 0h-6.62c-0.018-0.001-0.038-0.001-0.059-0.001-0.025 0-0.049 0.001-0.073 0.002l0.003-0zM16.836 14.772c-0.652 0.035-1.168 0.573-1.168 1.231 0 0.681 0.552 1.233 1.233 1.233 0.023 0 0.045-0.001 0.068-0.002l-0.003 0h13.241c0.005 0 0.011 0 0.018 0 0.68 0 1.231-0.551 1.231-1.231 0-0.674-0.541-1.221-1.212-1.231h-13.278c-0.026-0.002-0.056-0.003-0.086-0.003-0.015 0-0.030 0-0.045 0.001l0.002-0zM7.448 17.231h4.138v4.103h-4.138v-4.103zM16.836 18.872c-0.652 0.035-1.168 0.573-1.168 1.231 0 0.681 0.552 1.233 1.233 1.233 0.023 0 0.045-0.001 0.068-0.002l-0.003 0h7.448c0.005 0 0.011 0 0.017 0 0.68 0 1.231-0.551 1.231-1.231 0-0.674-0.541-1.221-1.213-1.231h-7.485c-0.019-0.001-0.042-0.002-0.065-0.002s-0.045 0.001-0.068 0.002l0.003-0z"></path>
		</symbol>
		<symbol id="icon-icon-press" viewBox="0 0 46 32">
			<title>icon-press</title>
			<path d="M46.4 3.917c-0.009-2.165-1.766-3.917-3.932-3.917-0.005 0-0.010 0-0.015 0h-14.613l-0.395 0.098-4.245 1.861-4.245-1.86-0.395-0.099h-14.613c-0.004-0-0.009-0-0.014-0-2.166 0-3.923 1.752-3.932 3.916v22.121c0.010 2.164 1.766 3.915 3.932 3.915 0.005 0 0.010 0 0.015-0h14.415l4.443 1.957 0.395 0.098 0.395-0.098 4.443-1.957h14.416c0.004 0 0.009 0 0.014 0 2.166 0 3.923-1.751 3.932-3.914v-22.121zM18.56 27.994h-14.613c-0.002 0-0.005 0-0.007 0-1.083 0-1.961-0.876-1.966-1.957v-22.12c0.005-1.082 0.883-1.957 1.966-1.957 0.003 0 0.005 0 0.008 0h14.416l3.85 1.713v25.839l-3.258-1.419zM44.427 26.036c-0.005 1.082-0.883 1.958-1.966 1.958-0.003 0-0.005 0-0.008 0h-14.613l-0.395 0.098-3.258 1.419v-25.839l3.85-1.713h14.416c0.002 0 0.005 0 0.008 0 1.083 0 1.961 0.875 1.966 1.957v22.121zM17.079 7.587h-9.973c-0.001 0-0.003 0-0.004 0-0.541 0-0.981 0.438-0.983 0.978v11.254c0.001 0.542 0.441 0.981 0.983 0.981 0.002 0 0.005 0 0.007-0h9.973c0.001 0 0.003 0 0.004 0 0.541 0 0.98-0.438 0.983-0.978v-11.254c-0.001-0.542-0.441-0.981-0.983-0.981-0.002 0-0.005 0-0.007 0h0zM16.092 18.841h-7.996v-9.294h7.996v9.296zM29.813 9.547h5.924c0.541 0 0.979-0.438 0.979-0.979s-0.438-0.979-0.979-0.979v0h-5.924c-0.541 0-0.979 0.438-0.979 0.979s0.438 0.979 0.979 0.979v0zM39.291 13.217h-9.477c-0.541 0-0.979 0.438-0.979 0.979s0.438 0.979 0.979 0.979v0h9.477c0 0 0 0 0.001 0 0.541 0 0.98-0.439 0.98-0.98s-0.438-0.979-0.979-0.98h-0zM39.291 18.845h-9.477c-0.014-0.001-0.030-0.001-0.046-0.001-0.541 0-0.979 0.438-0.979 0.979s0.438 0.979 0.979 0.979c0.016 0 0.032-0 0.048-0.001l-0.002 0h9.477c0 0 0 0 0.001 0 0.541 0 0.979-0.438 0.979-0.979s-0.438-0.978-0.978-0.979h-0z"></path>
		</symbol>

        <symbol id="icon-prev" viewBox="0 0 13.12 25.07">
            <path d="M1671.78,1415.67l-9.28,9.26a1.515,1.515,0,0,1-2.14,0,1.491,1.491,0,0,1,0-2.12l9.35-9.26a0.951,0.951,0,0,0,.01-1.35h-0.01l-9.43-9.32a1.5,1.5,0,0,1,.06-2.13,1.54,1.54,0,0,1,2.16.06l9.36,9.27a3.921,3.921,0,0,1-.06,5.58A0.02,0.02,0,0,0,1671.78,1415.67Z" transform="translate(-1659.88 -1400.34)"/>
        </symbol>
        <symbol id="icon-projects" viewBox="0 0 89.69 90">
            <path d="M1628.93,4670a45.064,45.064,0,0,0-44.85,44.7,45,45,0,0,0,44.56,45.3h0.29A45,45,0,0,0,1628.93,4670Zm21.93,15.2a7.513,7.513,0,0,1,6.88,8,7.413,7.413,0,0,1-7.38,6.9h-0.59a7.461,7.461,0,0,1,.5-14.9h0.59Zm-43.06,60.3a4.5,4.5,0,1,1,4.49-4.5A4.471,4.471,0,0,1,1607.8,4745.5Zm19.84-3.2a1.752,1.752,0,0,1-1.7,1.7h0a1.828,1.828,0,0,0-1.69,1.3,16.633,16.633,0,0,1-1.79,4.3,1.837,1.837,0,0,0,.29,2.2,1.845,1.845,0,0,1,.5,1.7,42.569,42.569,0,0,1-10.66-3.2,10.3,10.3,0,1,0-14.55-11.9,38.115,38.115,0,0,1-5.39-9.9,1.275,1.275,0,0,1,.4-0.6,15.274,15.274,0,0,1,1.8-1.8,1.721,1.721,0,0,1,1.19-.4,2.106,2.106,0,0,1,1.3.5h0a1.841,1.841,0,0,0,1.19.5,1.613,1.613,0,0,0,.9-0.3,16.251,16.251,0,0,1,4.29-1.8,1.716,1.716,0,0,0,1.29-1.7v-0.1a1.839,1.839,0,0,1,1.7-1.8h2.39a1.836,1.836,0,0,1,1.69,1.8v0.1a1.831,1.831,0,0,0,1.3,1.7,16.392,16.392,0,0,1,4.29,1.8,1.559,1.559,0,0,0,.89.3,1.656,1.656,0,0,0,1.2-.5h0a1.894,1.894,0,0,1,1.29-.5,1.922,1.922,0,0,1,1.2.4c0.6,0.6,1.2,1.1,1.79,1.8a1.729,1.729,0,0,1-.09,2.4h0a1.824,1.824,0,0,0-.3,2.2,16.633,16.633,0,0,1,1.79,4.3,1.711,1.711,0,0,0,1.69,1.3h0a1.839,1.839,0,0,1,1.8,1.7v1.2A2.845,2.845,0,0,1,1627.64,4742.3Zm1.29,11.6h-0.49a8.236,8.236,0,0,0-.4-3.5,8.651,8.651,0,0,0,.7-1.7,7.026,7.026,0,0,0,4.28-6.1c0-.5.1-1.1,0.1-1.6v-1.5a7.353,7.353,0,0,0-4.28-6.2,7.741,7.741,0,0,0-.7-1.6,7.033,7.033,0,0,0-1.3-7.4,22.739,22.739,0,0,0-2.19-2.2,6.961,6.961,0,0,0-4.79-1.8,8.071,8.071,0,0,0-2.69.5c-0.5-.2-1.09-0.5-1.59-0.7a7.307,7.307,0,0,0-6.18-4.4h-3.19a7.257,7.257,0,0,0-6.18,4.4,11.111,11.111,0,0,0-1.6.7,7.978,7.978,0,0,0-2.69-.5,7.117,7.117,0,0,0-4.78,1.8,0.53,0.53,0,0,1-.3.2,37.389,37.389,0,0,1-.7-7.5,39.311,39.311,0,0,1,26.02-36.4c-0.2.4-.3,0.8-0.5,1.3-0.3.8-.5,1.5-0.8,2.3a8.265,8.265,0,0,0,3.29,9.2,34.552,34.552,0,0,0,.2,5.6,8.388,8.388,0,0,0-2.59,9.4,33.524,33.524,0,0,0,1.99,4.3,8.039,8.039,0,0,0,7.18,4.3,7.42,7.42,0,0,0,1.49-.1,29.823,29.823,0,0,0,4.09,3.8,8.22,8.22,0,0,0,4.78,8.4c0.7,0.3,1.4.6,2.2,0.9,0.7,0.3,1.49.5,2.19,0.8a10.042,10.042,0,0,0,2.39.4,8.309,8.309,0,0,0,6.78-3.6h1.6c1.29,0,2.69-.1,3.98-0.2a8.233,8.233,0,0,0,6.38,3.1,9.228,9.228,0,0,0,2.89-.5,23.3,23.3,0,0,0,2.39-1A38.849,38.849,0,0,1,1628.93,4753.9Zm37.68-36.7h0a2.878,2.878,0,0,1-1.19,3.7c-1.2.6-2.4,1.2-3.69,1.7a3.553,3.553,0,0,1-1,.2,2.8,2.8,0,0,1-2.59-1.7h0a2.879,2.879,0,0,0-2.59-1.6h-0.5a25.781,25.781,0,0,1-4.78.4,26.2,26.2,0,0,1-2.8-.1h-0.29a2.706,2.706,0,0,0-2.6,1.8h0a2.779,2.779,0,0,1-2.59,1.8,2.2,2.2,0,0,1-.8-0.1c-0.59-.2-1.29-0.4-1.89-0.6a15.26,15.26,0,0,1-1.89-.8,2.846,2.846,0,0,1-1.5-3.6,2.813,2.813,0,0,0-.99-3.3,27.628,27.628,0,0,1-5.59-5.2,2.913,2.913,0,0,0-2.19-1.1,2.663,2.663,0,0,0-1.2.3h0a2.592,2.592,0,0,1-1.19.3,2.725,2.725,0,0,1-2.49-1.5c-0.6-1.2-1.2-2.4-1.7-3.7a2.885,2.885,0,0,1,1.5-3.6h0a2.826,2.826,0,0,0,1.59-3.1,32.065,32.065,0,0,1-.3-7.6,2.759,2.759,0,0,0-1.79-2.9h-0.1a2.762,2.762,0,0,1-1.7-3.5,15.872,15.872,0,0,1,.7-2c0.2-.6.5-1.2,0.7-1.8a2.8,2.8,0,0,1,2.59-1.7,3.553,3.553,0,0,1,1,.2h0.1a3.557,3.557,0,0,0,.99.2,2.676,2.676,0,0,0,2.3-1.2,12.157,12.157,0,0,1,.79-1.1h0.2a37.208,37.208,0,0,1,16.95,4.1,13.281,13.281,0,0,0-8.97,11.5,13.145,13.145,0,0,0,12.16,14.2h1a13.269,13.269,0,0,0,12.65-9.5,38.512,38.512,0,0,1,4.69,17.2l-0.3.3A3.037,3.037,0,0,0,1666.61,4717.2Z" transform="translate(-1584.09 -4670)"/>
        </symbol>
        <symbol id="icon-questionnaire" viewBox="0 0 60.813 60.81">
            <path d="M886.589,5478.46h-22.8a1.265,1.265,0,1,0,0,2.53h22.8A1.265,1.265,0,1,0,886.589,5478.46Zm0,5.07h-22.8a1.27,1.27,0,0,0,0,2.54h22.8A1.27,1.27,0,0,0,886.589,5483.53Zm0-10.15h-22.8a1.27,1.27,0,0,0,0,2.54h22.8A1.27,1.27,0,0,0,886.589,5473.38Zm17.512-12.71-9.133-13.72a8.839,8.839,0,0,0-7.378-3.96H864.18a11.36,11.36,0,0,0-9.521,5.14l-8.179,12.42a8.823,8.823,0,0,0-1.7,5.22v31.71a6.343,6.343,0,0,0,6.334,6.34h48.138a6.343,6.343,0,0,0,6.334-6.34v-31.89A8.827,8.827,0,0,0,904.1,5460.67Zm-55.556,1.36q0.019-.03.036-0.06l8.193-12.45a8.842,8.842,0,0,1,7.406-3.99h23.41a6.311,6.311,0,0,1,5.27,2.82l9.133,13.72a6.423,6.423,0,0,1,.573,1.21h-5.843a6.328,6.328,0,0,0-6.334,6.3v15.22a3.8,3.8,0,0,1-3.8,3.8h-22.8a3.8,3.8,0,0,1-3.8-3.8v-15.22a6.328,6.328,0,0,0-6.334-6.3h-5.805A6.36,6.36,0,0,1,848.545,5462.03Zm54.512,35.45a3.81,3.81,0,0,1-3.8,3.81H851.119a3.81,3.81,0,0,1-3.8-3.81v-31.66h6.334a3.787,3.787,0,0,1,3.8,3.76v15.22a6.349,6.349,0,0,0,6.334,6.34h22.8a6.349,6.349,0,0,0,6.334-6.34v-15.22a3.787,3.787,0,0,1,3.8-3.76h6.334v31.66Zm-16.468-29.17h-22.8a1.27,1.27,0,0,0,0,2.54h22.8A1.27,1.27,0,0,0,886.589,5468.31Zm-24.069-2.54h25.336a1.265,1.265,0,1,0,0-2.53H862.52A1.265,1.265,0,1,0,862.52,5465.77Z" transform="translate(-844.781 -5443)"/>
        </symbol>		
        <symbol id="icon-services" viewBox="0 0 56 56">
            <g transform="translate(-801 -225)">
                <path d="M829,226a27,27,0,1,0,27,27A27.03,27.03,0,0,0,829,226Zm25.136,26.079H843.7a32.725,32.725,0,0,0-3.021-12.755,28.942,28.942,0,0,0,6.458-3.734A25.071,25.071,0,0,1,854.136,252.079Zm-24.522-15.954a0.614,0.614,0,1,1-.614-0.614A0.614,0.614,0,0,1,829.614,236.125Zm0.306,2.272a2.449,2.449,0,0,0,0-4.544v-5.887a38.072,38.072,0,0,1,8.211,10.36,28.524,28.524,0,0,1-8.211,1.478V238.4Zm2.84-10.274A25.065,25.065,0,0,1,845.8,234.3a27.139,27.139,0,0,1-5.936,3.377A39.171,39.171,0,0,0,832.76,228.123Zm-4.681.9v4.826a2.45,2.45,0,0,0,0,4.544V239.8a28.548,28.548,0,0,1-7.251-1.17A37.278,37.278,0,0,1,828.079,229.027Zm-9.016,9.011A27.245,27.245,0,0,1,812.2,234.3a25.071,25.071,0,0,1,14.344-6.332A38.854,38.854,0,0,0,819.063,238.038Zm9.016,3.6v10.441H820.6a4,4,0,0,0-3.083-2.988,31.28,31.28,0,0,1,2.5-8.785A30.443,30.443,0,0,0,828.079,241.638Zm-11.352,9.214A2.148,2.148,0,1,1,814.579,253,2.15,2.15,0,0,1,816.727,250.852Zm3.877,3.068h7.475v10.064a30.494,30.494,0,0,0-8.207,1.384,31.229,31.229,0,0,1-2.351-8.459A4,4,0,0,0,820.6,253.92ZM831.2,265.9a3.979,3.979,0,0,0,6.676,2.268,38.312,38.312,0,0,1-7.957,9.871V265.826C830.347,265.84,830.774,265.862,831.2,265.9Zm1.788-.623a2.148,2.148,0,1,1,2.147,2.148A2.149,2.149,0,0,1,832.989,265.272Zm-4.91.553v11.147a37.151,37.151,0,0,1-7.415-9.926A28.766,28.766,0,0,1,828.079,265.825Zm-1.54,12.212a25.074,25.074,0,0,1-14.572-6.54,27.132,27.132,0,0,1,6.937-3.846A38.778,38.778,0,0,0,826.539,278.037Zm13.492-10.025a26.879,26.879,0,0,1,6,3.483,25.087,25.087,0,0,1-13.274,6.382A39.088,39.088,0,0,0,840.031,268.012Zm-0.928-2.327a3.756,3.756,0,0,0,.022-0.413,3.988,3.988,0,0,0-7.787-1.213q-0.709-.054-1.418-0.075V253.92h11.939a30.879,30.879,0,0,1-2.754,11.766h0Zm-9.183-13.606V241.638a30.41,30.41,0,0,0,9.037-1.65,30.914,30.914,0,0,1,2.9,12.092H829.92ZM810.863,235.59a28.976,28.976,0,0,0,7.407,4.113,33.019,33.019,0,0,0-2.613,9.458,4,4,0,0,0-2.807,2.918h-8.986A25.066,25.066,0,0,1,810.863,235.59Zm-7,18.33h8.986a4,4,0,0,0,2.808,2.919,33.011,33.011,0,0,0,2.468,9.139,28.907,28.907,0,0,0-7.474,4.212A25.065,25.065,0,0,1,803.864,253.92Zm43.484,16.268a28.687,28.687,0,0,0-6.521-3.84A32.7,32.7,0,0,0,843.7,253.92h10.436A25.064,25.064,0,0,1,847.348,270.188Z"/>
            </g>
        </symbol>
        <symbol id="icon-telescope" viewBox="0 0 56.031 57">
            <g transform="translate(-563.969 -224)">
                <path d="M618.875,246.179l-5.424-18.257a4.282,4.282,0,0,0-2.013-2.434,4.394,4.394,0,0,0-3.149-.348l-2.887.869a4.3,4.3,0,0,0-2.45,2,4.8,4.8,0,0,0-.525,1.826l-16.1,5.825a1.35,1.35,0,0,0-.788,1.565h0L569.618,242.7a1.2,1.2,0,0,0-.787,1.565l0.787,2.782-3.762,1.3a1.2,1.2,0,0,0-.787,1.565l1.225,4.173a1.286,1.286,0,0,0,1.225.956h0.262l3.85-.869,0.787,2.782a1.287,1.287,0,0,0,1.225.957h0.35L590.441,254h0a1.286,1.286,0,0,0,1.225.956h0.262l4.2-.956v3.565l-14,17.735a1.342,1.342,0,0,0,.175,1.826,1.418,1.418,0,0,0,.788.261,1.371,1.371,0,0,0,1.05-.522L596.3,261.742V278.7a1.312,1.312,0,0,0,2.624,0V261.742L611,276.869a1.25,1.25,0,0,0,1.05.522,1.226,1.226,0,0,0,.787-0.261,1.262,1.262,0,0,0,.175-1.826l-14.086-17.735V253.4l10.149-2.261a4.134,4.134,0,0,0,2.887,1.217,5.153,5.153,0,0,0,1.138-.174l2.887-.869a4.3,4.3,0,0,0,2.45-2A3.9,3.9,0,0,0,618.875,246.179Zm-50.394,6.173-0.525-1.739,2.45-.869,0.612,2Zm6.212,2.782-0.7-2.347a0.646,0.646,0,0,0-.088-0.435l-1.4-4.694c-0.087-.175-0.087-0.262-0.175-0.435l-0.7-2.348,14.7-5.042,3.412,11.737Zm28.346-22.691,2.013,6.781,2.8,9.477-15.135,3.39-4.287-14.345Zm13.211,15.649a1.387,1.387,0,0,1-.874.7l-2.888.869a1.494,1.494,0,0,1-1.837-1.043l-2.1-7.129-3.412-11.042a1.688,1.688,0,0,1,.088-1.13,1.387,1.387,0,0,1,.875-0.695l2.887-.87c0.175,0,.262-0.087.437-0.087a1.654,1.654,0,0,1,.7.174,1.382,1.382,0,0,1,.7.87l5.424,18.257A1.282,1.282,0,0,1,616.25,248.092Z"/>
            </g>
        </symbol>
        <symbol id="icon-grap" viewBox="0 0 25.969 28.875">
            <path d="M61.228,45.9A13.451,13.451,0,0,1,51.75,42.05l-3.465-3.4a5.851,5.851,0,0,1-1.775-4.2V31.88a5.847,5.847,0,0,1,1.775-4.2l1.688-1.654V22.132a3.433,3.433,0,0,1,3.463-3.395,3.5,3.5,0,0,1,1.926.573,3.488,3.488,0,0,1,6.538,0,3.5,3.5,0,0,1,5.195,1.7,3.5,3.5,0,0,1,1.925-.574,3.433,3.433,0,0,1,3.463,3.4V34.864A11.159,11.159,0,0,1,61.228,45.9ZM49.974,28.426l-0.464.455a4.175,4.175,0,0,0-1.267,3v2.572a4.18,4.18,0,0,0,1.267,3l3.465,3.4A11.707,11.707,0,0,0,61.227,44.2a9.443,9.443,0,0,0,9.525-9.336V23.83a1.732,1.732,0,0,0-3.463,0v0.849a0.866,0.866,0,0,1-1.732,0V22.132a1.732,1.732,0,0,0-3.463,0v2.547a0.866,0.866,0,0,1-1.732,0V20.435a1.732,1.732,0,0,0-3.463,0v4.244a0.866,0.866,0,0,1-1.732,0V22.132a1.732,1.732,0,0,0-3.463,0v7.639a0.866,0.866,0,0,1-1.732,0V28.426Z" transform="translate(-46.5 -17.031)"/>
        </symbol>
        <symbol id="icon-phone" viewBox="0 0 24 24">
            <path d="M6.62 10.79c1.44 2.83 3.76 5.14 6.59 6.59l2.2-2.2c.27-.27.67-.36 1.02-.24 1.12.37 2.33.57 3.57.57.55 0 1 .45 1 1V20c0 .55-.45 1-1 1-9.39 0-17-7.61-17-17 0-.55.45-1 1-1h3.5c.55 0 1 .45 1 1 0 1.25.2 2.45.57 3.57.11.35.03.74-.25 1.02l-2.2 2.2z"/>
        </symbol>
        <symbol id="icon-lock" viewBox="0 0 24 24">
            <path d="M18,8h-1V6c0-2.76-2.24-5-5-5S7,3.24,7,6v2H6c-1.1,0-2,0.9-2,2v10c0,1.1,0.9,2,2,2h12c1.1,0,2-0.9,2-2V10   C20,8.9,19.1,8,18,8z M9,6c0-1.66,1.34-3,3-3s3,1.34,3,3v2H9V6z M18,20H6V10h12V20z M12,17c1.1,0,2-0.9,2-2c0-1.1-0.9-2-2-2   c-1.1,0-2,0.9-2,2C10,16.1,10.9,17,12,17z"/>
        </symbol>
        <symbol id="icon-chart" viewBox="0 0 24 24">
            <path d="M11 2v20c-5.07-.5-9-4.79-9-10s3.93-9.5 9-10zm2.03 0v8.99H22c-.47-4.74-4.24-8.52-8.97-8.99zm0 11.01V22c4.74-.47 8.5-4.25 8.97-8.99h-8.97z"/>
        </symbol>
        <symbol id="icon-date" viewBox="0 0 24 24">
            <path d="M20 3h-1V1h-2v2H7V1H5v2H4c-1.1 0-2 .9-2 2v16c0 1.1.9 2 2 2h16c1.1 0 2-.9 2-2V5c0-1.1-.9-2-2-2zm0 18H4V8h16v13z"/>
        </symbol>
        <symbol id="icon-print" viewBox="0 0 24 24">
            <path d="M19 8H5c-1.66 0-3 1.34-3 3v6h4v4h12v-4h4v-6c0-1.66-1.34-3-3-3zm-3 11H8v-5h8v5zm3-7c-.55 0-1-.45-1-1s.45-1 1-1 1 .45 1 1-.45 1-1 1zm-1-9H6v4h12V3z"/>
            <path d="M0 0h24v24H0z" fill="none"/>
        </symbol>
        <symbol id="icon-email" viewBox="0 0 24 24">
            <path d="M20 4H4c-1.1 0-1.99.9-1.99 2L2 18c0 1.1.9 2 2 2h16c1.1 0 2-.9 2-2V6c0-1.1-.9-2-2-2zm0 4l-8 5-8-5V6l8 5 8-5v2z"/>
            <path d="M0 0h24v24H0z" fill="none"/>
        </symbol>
        <symbol id="icon-delete" viewBox="0 0 24 24">
            <path d="M6 19c0 1.1.9 2 2 2h8c1.1 0 2-.9 2-2V7H6v12zM19 4h-3.5l-1-1h-5l-1 1H5v2h14V4z"/>
            <path d="M0 0h24v24H0z" fill="none"/>
        </symbol>
        <symbol id="icon-service1" viewBox="0 0 34 38">
            <path d="M1610.69,1871.6h3v3h-3v-3Zm-5.33,0h3v3h-3v-3Zm5.33,4.81h3v3h-3v-3Zm13.39-7.81h3.63v3.63h-3.63v-3.63Zm0,7.94h3.63v3.63h-3.63v-3.63Zm0-15.63h3.63v3.63h-3.63v-3.63Zm-6.97,0h3.63v3.63h-3.63v-3.63Zm-11.75,15.5h3v3h-3v-3Zm28.1-28.21a1.316,1.316,0,0,0-1.23-.09l-21.12,10.01a1.251,1.251,0,0,0-.72,1.14v5.71h-9.12a1.27,1.27,0,0,0-1.27,1.26v18.5a1.163,1.163,0,0,0,.38.89,1.226,1.226,0,0,0,.89.38h0l31.47-.13a1.261,1.261,0,0,0,1.26-1.26v-35.36A1.061,1.061,0,0,0,1633.46,1848.2Zm-16.94,35.18-13.94.04v-15.88h13.94v15.84Zm14.95-.04-12.42.04v-3.21h1.69v-3.63h-1.69v-4.35h1.69v-3.63h-1.69v-2.33a1.27,1.27,0,0,0-1.27-1.26h-4.85v-4.9l18.54-8.79v32.06Z" transform="translate(-1600 -1848)"/>
        </symbol>
        <symbol id="icon-service2" viewBox="0 0 42 42">
            <path d="M1190,1962.08a2.923,2.923,0,0,0,2.92,2.92h29.16a2.923,2.923,0,0,0,2.92-2.92v-14.59a2.93,2.93,0,0,0-2.92-2.92h-29.16a2.93,2.93,0,0,0-2.92,2.92v14.59Zm27.62-14.59h2.92v2.92h-2.92v-2.92Zm0,5.84h2.92v2.92h-2.92v-2.92Zm0,5.83h2.92v2.92h-2.92v-2.92Zm-5.82-11.67h2.92v2.92h-2.92v-2.92Zm0,5.84h2.92v2.92h-2.92v-2.92Zm-5.8-5.84h2.91v2.92H1206v-2.92Zm0,5.84h2.91v2.92H1206v-2.92Zm-5.82-5.84h2.92v2.92h-2.92v-2.92Zm0,5.84h2.92v2.92h-2.92v-2.92Zm0,5.83h14.54v2.92h-14.54v-2.92Zm-5.81-11.67h2.92v2.92h-2.92v-2.92Zm0,5.84h2.92v2.92h-2.92v-2.92Zm0,5.83h2.92v2.92h-2.92v-2.92Zm23.32-27.7v2.92a1.453,1.453,0,0,1-1.45,1.46h-17.42a4.381,4.381,0,0,0-4.37,4.37v1.45h2.91v-1.45a1.468,1.468,0,0,1,1.46-1.46h17.42a4.374,4.374,0,0,0,4.37-4.37v-2.92A1.46,1.46,0,1,0,1217.69,1931.46Z" transform="translate(-1189 -1930)"/>
        </symbol>
        <symbol id="icon-service3" viewBox="0 0 47 38">
            <path d="M910.428,1947.91h-5.714v4.23h-1.429v-8.46h8.572V1931H893.285v12.68h8.572v8.46h-1.429v-4.23H887.571L879,1962h40Zm-12.857-12.68h10v1.41h-10v-1.41Zm0,2.82h10v1.4h-10v-1.4Z" transform="translate(-878 -1931)"/>
        </symbol>
        <symbol id="icon-service4" viewBox="0 0 51 38">
            <path d="M558.993,1952.39a7.435,7.435,0,0,1,.207,1.69h8.988a22.967,22.967,0,0,1,.236-3.33c0.242-1.32,1.524-2.95,2.288-4.28s2.282-2.95,2.169-4.4a10.639,10.639,0,0,0-1.778-3.58c-0.488-.72-2.431-3.76-3.039-3.68-0.145.03-.284,0.05-0.422,0.08l-1.181.54-2.059.95-1.377.63-0.6.28a2.551,2.551,0,0,0,3.467,1.35,17.717,17.717,0,0,1,1.205,1.68c-2.845.83-3.845,2.41-3.9,5.17-0.011.58,0.094,3.11-.8,3.13-0.716-.04-0.154-4.29-0.014-5.04-0.487,1.02-1.791.88-2.369,0.8-0.055,1.48-.731,1.63-1.961,1.73-1.491.12-2.4-.92-3.233-1.85a24.908,24.908,0,0,0,.632,3.31,4,4,0,0,0,1.484,2.6A3.644,3.644,0,0,1,558.993,1952.39Zm9.966,1.93v1.26h0.834a0.969,0.969,0,0,1,.5.15h1.55a2.212,2.212,0,0,0-2.053-1.41h-0.834Zm0.833,3.24h-0.833v1.26h0.834a2.227,2.227,0,0,0,2.053-1.41h-1.551A0.964,0.964,0,0,1,569.792,1957.56Zm-10.6,1.49c-0.043,1.25-.105,2.35-0.165,2.95h9.383c-0.052-.78-0.108-1.81-0.152-2.95h-9.066Zm15.638-1.85a0.63,0.63,0,0,0,0-1.26h-4.912a0.63,0.63,0,0,0,0,1.26h4.912Zm0.126-1.62h2.087a0.964,0.964,0,0,1,.5.15h1.548a2.209,2.209,0,0,0-2.053-1.41h-2.086a2.215,2.215,0,0,0-2.055,1.41h1.55A0.971,0.971,0,0,1,574.955,1955.58Zm2.087,1.98h-2.087a0.961,0.961,0,0,1-.5-0.15H572.9a2.229,2.229,0,0,0,2.054,1.41h2.087a2.229,2.229,0,0,0,2.054-1.41h-1.55A0.973,0.973,0,0,1,577.042,1957.56Zm5.037-.36a0.63,0.63,0,0,0,0-1.26h-4.911a0.63,0.63,0,0,0,0,1.26h4.911Zm9.041-13.76a1.876,1.876,0,0,0,.966-0.37l0.536-.77,0.871-1.25,1.3-1.88,1.086-1.8,0.064-.09c0.295-.47.691-1.37-0.01-1.72a1.124,1.124,0,0,0-1.442.07l-4.734,6.82A1.6,1.6,0,0,0,591.12,1943.44Zm1.7,0.61a1.5,1.5,0,0,0-.049.18c-0.152.8,0.951,1.07,1.446,0.97a4.241,4.241,0,0,0,2.224-1.7c0.456-.57,2.03-2.69,1.43-3.94a1.024,1.024,0,0,0-1.557-.54Zm-3.845-13c-1.777-.33-2.61,1.85-3.4,3.15l2.686,1.24C589.178,1934.12,591.324,1931.85,588.972,1931.05Zm0.361,4.85c0.231,0.12.4,0.21,0.551,0.29l0.441,0.2,0.6,0.28-0.176.45c-0.582,1.46-1.849,3.09-3.694,2.54-0.282.9,0.531,0.95,1.113,1.21a1.069,1.069,0,0,0,1.558-.42l0.555-.72c0-.01,0-0.01.006-0.01l1.292-1.86c0-.01,0-0.01.006-0.01l1.644-2.37a5.779,5.779,0,0,0,.522-0.98,1.185,1.185,0,0,0-.513-1.82,1.436,1.436,0,0,0-1.828.22l-1.839,2.65Zm-33.218,1.47,1.086,1.8,1.3,1.88,0.872,1.25,0.535,0.77a1.876,1.876,0,0,0,.968.37,1.592,1.592,0,0,0,1.358-.99l-4.734-6.82a1.124,1.124,0,0,0-1.442-.07c-0.7.35-.3,1.25-0.008,1.72Zm1.668,7.83c0.494,0.1,1.6-.16,1.445-0.97a1.332,1.332,0,0,0-.048-0.18l-3.494-5.03a1.024,1.024,0,0,0-1.557.54c-0.6,1.26.975,3.37,1.431,3.94A4.235,4.235,0,0,0,557.783,1945.2Zm8.641-11c-0.789-1.3-1.622-3.48-3.4-3.15-2.353.8-.207,3.07,0.714,4.39Zm-7.658,1.28,1.644,2.37s0,0,0,.01l1.3,1.87c-0.04-.07-0.083-0.13-0.125-0.19,0.042,0.06.085,0.12,0.126,0.19l0.554,0.72a1.069,1.069,0,0,0,1.558.42c0.581-.26,1.395-0.3,1.113-1.21-1.847.56-3.113-1.08-3.694-2.54l-0.177-.45,0.605-.28,0.44-.2c0.154-.08.319-0.17,0.551-0.29l-0.241-.35-1.838-2.64a1.438,1.438,0,0,0-1.828-.23,1.184,1.184,0,0,0-.512,1.82A5.779,5.779,0,0,0,558.766,1935.48Zm35.172,10.63c-1.229-.1-1.906-0.25-1.962-1.73-0.576.08-1.88,0.22-2.366-.8,0.14,0.75.7,5-.015,5.04-0.894-.03-0.788-2.55-0.8-3.13-0.053-2.76-1.052-4.34-3.9-5.17a18.239,18.239,0,0,1,1.2-1.68,2.55,2.55,0,0,0,3.467-1.35l-0.595-.28-1.378-.63-2.059-.95-1.179-.54c-0.138-.03-0.278-0.05-0.422-0.08-0.609-.08-2.552,2.96-3.04,3.68a10.634,10.634,0,0,0-1.777,3.58c-0.114,1.45,1.4,3.07,2.168,4.4s2.047,2.96,2.288,4.28a23.067,23.067,0,0,1,.238,3.33H592.8a7.554,7.554,0,0,1,.207-1.69,3.649,3.649,0,0,1,2.052-2.22,4.005,4.005,0,0,0,1.484-2.6,24.7,24.7,0,0,0,.633-3.31C596.339,1945.19,595.43,1946.23,593.938,1946.11Zm-10.2,12.94c-0.044,1.14-.1,2.17-0.151,2.95h9.383c-0.059-.6-0.121-1.7-0.164-2.95h-9.068Zm-2.038-1.64h-1.55a2.226,2.226,0,0,0,2.053,1.41h0.8v-1.26h-0.8A0.963,0.963,0,0,1,581.7,1957.41Zm-1.551-1.68h1.55a0.964,0.964,0,0,1,.5-0.15h0.8v-1.26h-0.8A2.215,2.215,0,0,0,580.152,1955.73Zm-21.908,2.85h10.248v-4.03H558.244v4.03Zm25.23-3v3h10.249v-4.03H583.474v1.03Z" transform="translate(-553 -1931)"/>
        </symbol>

        <symbol id="icon-arrow-forword" viewBox="0 0 370.814 370.814">
            <polygon points="292.92,24.848 268.781,0 77.895,185.401 268.781,370.814 292.92,345.961 127.638,185.401   "/>
        </symbol>
        <symbol id="icon-weather" viewBox="0 0 450.4 450.4">
            <path d="M374.4,219c0-20.8-8.4-40-22.4-53.6c-13.6-13.6-32.8-22.4-53.6-22.4c-14,0-27.6,4-39.2,10.8c-8.4,5.2-16,12-22,20
                c-1.6-1.2-3.6-2.8-5.2-4c-17.6-12.4-38.8-19.2-61.2-19.2c-26.4,0-51.2,9.6-70,26C84,191,71.6,211,66,233.8
                c-17.2,2-32.4,9.6-44,21.2C8.4,268.6,0,287,0,307.8c0,20.4,8.4,39.2,22,52.8c13.6,13.6,32,22,52.8,22H276
                c24-0.4,45.2-9.6,60.4-25.2c15.2-15.2,24.8-36.4,24.8-60c0-10-1.6-20-5.2-28.8c5.2-6,9.6-12.8,12.4-20
                C372.4,239.4,374.4,229,374.4,219z M320.8,344.6c-11.6,11.6-27.6,18.8-45.6,18.8H75.6c-15.2-1.6-28.4-7.6-38.4-17.6
                c-9.6-9.6-16-23.2-16-38s6-28.4,16-38c9.6-9.6,23.2-16,38-16c1.6,0,3.6-0.4,4.8-1.2c2.4-1.6,4-4,4.4-6.8
                c3.2-21.2,14-39.6,29.2-52.8c15.2-13.2,35.2-20.8,56.8-20.8c18,0,35.2,5.6,49.6,15.6c11.2,7.6,20.8,18.4,27.2,30.8
                c-2.4,0.8-4.4,1.6-6.4,2.8c-10.8,4.8-20.8,12-28.8,21.2c-3.6,4.4-3.2,10.8,0.8,14.4c4.4,3.6,10.8,3.2,14.4-0.8
                c6-6.8,13.6-12.4,21.6-16c8-3.6,17.2-5.6,26.4-5.6c17.6,0,34,7.2,45.6,18.8c11.6,11.6,18.8,27.6,18.8,45.6S332.4,333,320.8,344.6z
                M350,240.2c-1.2,2.8-2.4,5.2-4,8c-2.8-4-6-7.6-9.2-10.8c-15.2-15.2-36.4-24.8-60-24.8c-2.4,0-5.2,0-7.6,0.4
                c-4-9.2-9.6-17.2-16-24.8c4.4-6.8,10.4-12.4,17.2-16.8c8.4-5.2,18.4-8,28.8-8c15.2,0,29.2,6,39.2,16s16,24,16,39.2
                C354.4,226.2,352.8,233.4,350,240.2z"/>
            <path d="M406,111.8c-4-4-10.4-4-14.4,0l-22,22c-4,4-4,10.4,0,14.4s10.4,4,14.4,0l22-22C410,122.2,410,115.8,406,111.8z"/>
            <path d="M299.2,67.8c-5.6,0-10.4,4.4-10.4,10V109c0,5.6,4.8,10.4,10.4,10.4c5.6,0,10.4-4.8,10.4-10.4V78.2
                C309.6,72.6,304.8,67.8,299.2,67.8z"/>
            <path d="M228.4,133.8l-22-22c-3.6-4-10.4-4-14.4,0s-4,10.4,0,14.4l22,22c4,4,10.4,4,14.4,0S232.4,137.8,228.4,133.8z"/>
            <path d="M440,208.6h-30.8c-5.6,0-10.4,4.8-10.4,10.4s4.8,10.4,10.4,10.4H440c5.6,0,10.4-4.8,10.4-10.4
                C450.4,213,445.6,208.6,440,208.6z"/>
            <path d="M406,311.4l-22-22c-4-4-10.4-4-14.4,0s-4,10.4,0,14.4l22,22c4,4,10.4,4,14.4,0S410,315.4,406,311.4z"/>
        </symbol>
        <symbol id="icon-vision2030" viewBox="0 0 198.425 132.744">
            <path d="M141.468 75.372v0.145c0 9.575-6.977 16.611-18.315 16.611 -9.157 0-15.48-3.627-19.84-8.777l7.704-7.327c3.488 3.918 7.122 6.093 12.282 6.093 4.215 0 7.195-2.393 7.195-6.165 -0.056-0.1 0.822-6.6-9.957-6.6h-4.651l-1.745-7.11 16.32-16.385 -6.54 4.2h-17.628v-9.574h34.375v8.414l-12.863 12.258C134.709 62.316 141.468 65.942 141.468 75.372M109.563 17.265c0-4.597 3.302-8.297 7.936-8.297h5.222l-1.367 0.681c0.062 12.6-0.25 14.187 0.556 16.029l-4.353-0.001c-4.634 0-7.994-3.758-7.994-8.354V17.265zM117.499 27.788h4.637v-1.667c0.338 0.586 0.793 1.041 1.464 1.359 1.475 0.7 0.403 0.26 42.703 0.39V6.858h-2.231v18.785c0 0-38.678 0.149-39.413-0.181 -0.638-0.287-0.87-0.943-0.976-1.642 -0.169-1.135-0.066-1.156-0.097-16.962h-6.029c-6.169 0-10.369 4.885-10.369 10.465v0.058C107.188 22.96 111.33 27.788 117.499 27.788M182.746 4.63h-4.888c0.106-1.616-0.642-4.63 2.651-4.63h1.574v1.552c-1.524 0.113-2.401-0.371-2.401 0.846v0.515h3.064V4.63zM188.396 28.097c-0.595 0-1.2-0.083-1.813-0.251l0.586-2.143c1.009 0.287 2.299 0.304 2.831-0.598 0.621-1.068 0.399-1.444 0.432-18.247h2.231c-0.064 15.685 0.154 16.123-0.209 17.941C192.026 26.926 190.736 28.097 188.396 28.097M123.586 4.63h-2.232V2.403h2.232V4.63zM172.692 12.314c1.047-2.039 3.245-3.174 5.492-3.198V9.112h3.605l-1.274 0.635v10c-1.756-0.052-2.99 0.167-4.616-0.349 -2.22-0.698-3.724-2.406-3.724-4.885C172.175 13.716 172.347 12.982 172.692 12.314M172.692 20.206c2.905 2.07 6.866 1.728 7.073 1.767l0.75-1.571c-0.121 1.523 0.419 3.651-1.004 4.717 -1.203 0.899-3.348 0.87-4.672 0.556 -0.548-0.129-1.176-0.352-1.883-0.667l-0.697 2.143c1.414 0.521 2.766 0.946 4.267 0.946 2.176 0 3.756-0.515 4.742-1.544 0.985-1.031 1.478-2.418 1.478-4.162V6.858c-2.746 0.086-4.829-0.277-7.335 0.585C168.696 9.752 168.562 17.266 172.692 20.206M119.123 4.63h-2.232V2.403h2.232V4.63zM96.028 6.834h2.304v20.911h-1.886L81.607 8.936l1.312 3.048v15.761h-2.305V6.834h2.215l14.17 17.99 -0.971-2.566V6.834zM9.009 27.894L0 6.834h2.634c0.134 0.324 7.314 17.679 8.042 19.439l-0.228-2.298 7.121-17.141h2.543l-9.008 21.06H9.009zM48.932 6.834h2.364v20.91h-2.364V6.834zM74.29 17.349c0 4.75-3.411 8.573-8.2 8.573s-8.261-3.883-8.261-8.632v-0.061c0-4.749 3.413-8.572 8.201-8.572 4.789 0 8.26 3.883 8.26 8.633V17.349zM66.09 6.476c-6.375 0-10.715 5.048-10.715 10.814v0.059c0 5.765 4.28 10.754 10.655 10.754s10.715-5.048 10.715-10.813v-0.061C76.745 11.465 72.465 6.476 66.09 6.476M45.031 22.069v0.059c0 3.584-2.993 5.915-7.153 5.915 -3.322 0-6.045-1.105-8.559-3.346l1.466-1.732c2.185 1.971 4.28 2.956 7.184 2.956 2.813 0 4.668-1.492 4.668-3.554v-0.059c0-5.836-12.48-1.986-12.48-10.008v-0.059c0-3.286 2.903-5.706 6.884-5.706 3.052 0 5.237 0.867 7.362 2.57l-1.376 1.821c-4.75-3.864-10.506-2.384-10.506 1.106v0.06c0 1.971 1.077 3.076 5.687 4.062C42.877 17.17 45.031 18.873 45.031 22.069M25.688 27.745h-2.364V6.835h2.364V27.745zM163.293 30.096h2.232v2.227h-2.232V30.096zM158.83 30.096h2.232v2.227h-2.232V30.096zM18.71 81.609h19.398v9.649H0.461v-8.85c18.811-15.964 25.728-19.084 25.728-26.04 0-4.28-2.835-6.601-6.832-6.601 -3.925 0-6.614 2.175-10.393 6.817l-7.849-6.309C6.13 43.456 11 39.756 20.084 39.756c10.538 0 17.515 6.166 17.515 15.669v0.144c0 11.916-9.021 15.757-24.49 28.223l-2.16 1.664L18.71 81.609zM186.725 66.015c0 8.704-6.25 15.813-15.263 15.813 -9.012 0-15.407-7.254-15.407-15.959v-0.145c0-8.704 6.251-15.812 15.262-15.812 9.011 0 15.408 7.254 15.408 15.957V66.015zM171.462 39.612c-15.697 0-27.108 11.823-27.108 26.257v0.146c0 14.435 11.264 26.113 26.963 26.113s27.108-11.824 27.108-26.259v-0.145C198.425 51.29 187.16 39.612 171.462 39.612"/>
            <path d="M68.518 36.272L71.095 38.74 68.622 41.311 66.046 38.843"/>
            <path d="M74.415 38.843L76.99 41.311 79.463 38.74 76.887 36.272"/>
            <path d="M70.787 42.084L72.794 44.005 74.718 42.003 72.713 40.082"/>
            <path d="M78.142 43.183L80.148 45.105 82.072 43.103 80.066 41.181"/>
            <path d="M67.507 45.145L69.513 47.067 71.437 45.065 69.433 43.143"/>
            <path d="M74.238 45.378L76.243 47.3 78.168 45.298 76.162 43.376"/>
            <path d="M71.605 47.681L73.016 49.033 74.37 47.624 72.959 46.272"/>
            <path d="M76.928 48.742L78.339 50.094 79.694 48.685 78.283 47.334"/>
            <path d="M88.918 37.593H93.36800000000001V42.035000000000004H88.918z" transform="rotate(-10.39 91.135 39.818)"/>
            <path d="M83.133 39.508H86.70299999999999V43.072H83.133z" transform="rotate(-10.376 84.927 41.294)"/>
            <path d="M89.92 44.395H93.49V47.959H89.92z" transform="rotate(-10.39 91.7 46.17)"/>
            <path d="M85.014 44.984H87.794V47.758H85.014z" transform="rotate(-10.382 86.413 46.375)"/>
            <path d="M90.334 50.169H93.114V52.943999999999996H90.334z" transform="rotate(-10.382 91.733 51.56)"/>
            <path d="M80.917 46.094H83.69800000000001V48.869H80.917z" transform="rotate(-10.382 82.315 47.485)"/>
            <path d="M85.88 49.669H88.66V52.443999999999996H85.88z" transform="rotate(-10.382 87.28 51.06)"/>
            <path d="M82.329 50.08H84.285V52.032H82.329z" transform="rotate(-10.39 83.314 51.066)"/>
            <path d="M86.024 54.05H87.979V56.001H86.024z" transform="rotate(-10.36 87.01 55.033)"/>
            <path d="M101.572 52.342L99.659 56.354 103.679 58.262 105.59 54.251"/>
            <path d="M95.867 50.489L94.333 53.707 97.557 55.238 99.091 52.02"/>
            <path d="M98.505 58.416L96.971 61.635 100.196 63.165 101.73 59.947"/>
            <path d="M94.28 56.002L93.086 58.508 95.597 59.7 96.792 57.194"/>
            <path d="M95.555 63.315L94.36 65.821 96.87 67.013 98.066 64.507"/>
            <path d="M90.306 54.51L89.111 57.016 91.622 58.208 92.817 55.702"/>
            <path d="M92.237 60.308L91.042 62.814 93.552 64.006 94.748 61.5"/>
            <path d="M89.217 58.541L88.376 60.304 90.142 61.142 90.983 59.38"/>
            <path d="M89.372 64.241H91.324V66.196H89.372z" transform="rotate(-64.552 90.342 65.217)"/>
            <path d="M103.737 71.551L99.835 73.687 101.976 77.582 105.878 75.446"/>
            <path d="M100.198 66.717L97.068 68.431 98.785 71.555 101.915 69.841"/>
            <path d="M97.691 74.686L94.56 76.4 96.278 79.525 99.408 77.811"/>
            <path d="M95.679 70.261L93.242 71.596 94.578 74.028 97.017 72.694"/>
            <path d="M92.426 76.936L89.988 78.271 91.325 80.703 93.763 79.369"/>
            <path d="M93.331 66.731L90.893 68.065 92.23 70.499 94.669 69.164"/>
            <path d="M91.498 72.56L89.06 73.895 90.397 76.327 92.835 74.993"/>
            <path d="M90.084 69.364L88.369 70.303 89.31 72.014 91.024 71.076"/>
            <path d="M87.475 74.114L85.76 75.053 86.7 76.764 88.415 75.826"/>
            <path d="M89.529 88.1H93.972V92.55099999999999H89.529z" transform="rotate(-82.958 91.74 90.32)"/>
            <path d="M90.424 82.17H93.988V85.74H90.424z" transform="rotate(-82.935 92.21 83.955)"/>
            <path d="M83.719 87.169H87.28299999999999V90.74H83.719z" transform="rotate(-82.935 85.504 88.955)"/>
            <path d="M85.516 82.459H88.29100000000001V85.239H85.516z" transform="rotate(-82.952 86.912 83.852)"/>
            <path d="M78.966 85.97H81.741V88.75H78.966z" transform="rotate(-82.952 80.36 87.365)"/>
            <path d="M85.681 78.224H88.457V81.00500000000001H85.681z" transform="rotate(-82.935 87.072 79.615)"/>
            <path d="M80.778 81.88H83.55300000000001V84.661H80.778z" transform="rotate(-82.935 82.168 83.27)"/>
            <path d="M82.377 78.518H84.329V80.473H82.377z" transform="rotate(-82.946 83.36 79.498)"/>
            <path d="M77.476 80.846H79.428V82.802H77.476z" transform="rotate(-82.952 78.455 81.827)"/>
            <path d="M76.652 96.502L73.39 93.479 70.362 96.735 73.624 99.757"/>
            <path d="M76.051 34.279L72.789 31.256 69.761 34.512 73.023 37.534"/>
            <path d="M80.133 91.625L77.516 89.2 75.087 91.812 77.704 94.236"/>
            <path d="M71.765 91.764L69.147 89.339 66.718 91.951 69.335 94.375"/>
            <path d="M75.337 88.463L73.299 86.575 71.408 88.608 73.445 90.496"/>
            <path d="M67.965 87.486L65.928 85.598 64.037 87.631 66.075 89.52"/>
            <path d="M77.954 85.126L75.916 83.238 74.025 85.271 76.062 87.159"/>
            <path d="M71.833 85.227L69.795 83.339 67.904 85.372 69.941 87.26"/>
            <path d="M74.426 82.881L72.993 81.552 71.663 82.983 73.096 84.311"/>
            <path d="M69.087 81.907L67.654 80.579 66.323 82.009 67.756 83.337"/>
            <path d="M52.797 88.848H57.248V93.28999999999999H52.797z" transform="rotate(-11.333 55.022 91.072)"/>
            <path d="M59.437 87.709H63.007V91.273H59.437z" transform="rotate(-11.333 61.207 89.493)"/>
            <path d="M52.569 82.934H56.139V86.49799999999999H52.569z" transform="rotate(-11.344 54.34 84.698)"/>
            <path d="M58.262 83.048H61.042V85.82300000000001H58.262z" transform="rotate(-11.333 59.64 84.44)"/>
            <path d="M62.34 81.869H65.12V84.645H62.34z" transform="rotate(-11.333 63.72 83.263)"/>
            <path d="M57.317 78.377H60.097V81.152H57.317z" transform="rotate(-11.333 58.696 79.77)"/>
            <path d="M61.693 78.724H63.649V80.676H61.693z" transform="rotate(-11.314 62.682 79.71)"/>
            <path d="M57.934 74.815H59.888999999999996V76.767H57.934z" transform="rotate(-11.344 58.916 75.795)"/>
            <path d="M44.388 78.715L46.233 74.673 42.182 72.831 40.337 76.873"/>
            <path d="M50.122 80.474L51.602 77.231 48.353 75.754 46.872 78.997"/>
            <path d="M47.351 72.592L48.832 69.349 45.582 67.871 44.102 71.115"/>
            <path d="M49.54 71.708H52.316V74.487H49.54z" transform="rotate(-65.485 50.93 73.102)"/>
            <path d="M55.002 81.249L56.155 78.724 53.625 77.574 52.472 80.099"/>
            <path d="M48.145 64.418H50.92100000000001V67.197H48.145z" transform="rotate(-65.474 49.535 65.806)"/>
            <path d="M53.538 73.134H56.31399999999999V75.913H53.538z" transform="rotate(-65.474 54.928 74.522)"/>
            <path d="M51.512 67.369H54.288V70.148H51.512z" transform="rotate(-65.455 52.905 68.762)"/>
            <path d="M56.637 72.312L57.448 70.536 55.668 69.726 54.857 71.503"/>
            <path d="M55.879 66.948L56.69 65.171 54.91 64.362 54.099 66.139"/>
            <path d="M41.902 59.544L45.769 57.344 43.563 53.485 39.697 55.685"/>
            <path d="M45.522 64.32L48.624 62.555 46.854 59.459 43.753 61.225"/>
            <path d="M47.897 56.31L50.999 54.545 49.229 51.448 46.128 53.214"/>
            <path d="M49.982 60.701L52.396 59.326 51.019 56.916 48.604 58.29"/>
            <path d="M53.124 53.974L55.538 52.599 54.161 50.189 51.746 51.563"/>
            <path d="M52.387 64.192L54.803 62.818 53.426 60.407 51.01 61.782"/>
            <path d="M54.124 58.334L56.539 56.96 55.162 54.549 52.747 55.924"/>
            <path d="M55.591 61.506L57.29 60.539 56.321 58.844 54.622 59.81"/>
            <path d="M58.12 56.713L59.82 55.746 58.851 54.051 57.151 55.018"/>
            <path d="M51.354 38.35H55.796V42.800000000000004H51.354z" transform="rotate(-83.898 53.578 40.576)"/>
            <path d="M51.445 45.166H55.008V48.736999999999995H51.445z" transform="rotate(-83.892 53.227 46.953)"/>
            <path d="M58.066 40.057H61.63V43.628H58.066z" transform="rotate(-83.892 59.848 41.844)"/>
            <path d="M57.142 45.581H59.917V48.361000000000004H57.142z" transform="rotate(-83.886 58.533 46.972)"/>
            <path d="M63.634 41.961H66.409V44.741H63.634z" transform="rotate(-83.91 65.016 43.35)"/>
            <path d="M57.047 49.818H59.821999999999996V52.598H57.047z" transform="rotate(-83.886 58.435 51.21)"/>
            <path d="M61.889 46.08H64.664V48.86H61.889z" transform="rotate(-83.886 63.278 47.47)"/>
            <path d="M61.176 50.287H63.128V52.243H61.176z" transform="rotate(-83.892 62.153 51.266)"/>
            <path d="M66.039 47.877H67.991V49.834H66.039z" transform="rotate(-83.927 67.016 48.854)"/>
            <path d="M86.941 68.235c-2.33-1.342-5.572-1.732-8.931-0.502 -1.468 0.555-2.938 1.524-4.178 2.473 -0.781-4.735-0.4-9.13-0.218-11.289 0.001-0.012 0.015-0.018 0.026-0.011 1.677 1.055 1.207 4.003 0.855 4.846 -0.007 0.017 0.018 0.028 0.03 0.014 2.09-2.468 1.069-5.193 0.64-5.883 -0.078-0.125 0.395 0.254 0.783 0.751 1.461 1.86 0.786 3.949 0.949 3.9 0.004-0.001 0.009 0 0.011-0.005 0.971-1.905 0.659-4.321-1.338-6.066 -0.091-0.077 0.265 0.039 0.378 0.079 1.703 0.591 2.591 2.345 2.579 3.909 0 0.344 1.15-2.938-1.63-4.606 -0.52-0.311-1.054-0.482-1.403-0.524 -0.272-0.029 1.489-0.294 2.726 0.544 0.743 0.501 0.938 1.107 0.919 0.937 -0.216-2.197-2.806-3.065-4.376-2.406 -0.166 0.083 0.618-1.079 2.134-0.989 0.292 0.017 0.562 0.08 0.778 0.183 0.015 0.007 0.029-0.013 0.018-0.026 -1.145-1.309-3.029-1.336-4.029 0.178 -0.007 0.01-0.022 0.01-0.028 0 -0.379-0.679-0.696-1.548-0.833-2.368 -0.033-0.21-0.103 1.015-0.863 2.368 -0.006 0.01-0.02 0.01-0.027 0 -1.003-1.518-2.885-1.488-4.029-0.178 -0.012 0.013 0.002 0.033 0.018 0.026 0.764-0.363 2.207-0.256 2.93 0.781 0.009 0.014-0.004 0.032-0.02 0.025 -1.618-0.68-4.16 0.243-4.375 2.406 -0.001 0.018 0.023 0.028 0.032 0.012 0.072-0.135 0.25-0.423 0.583-0.715 1.294-1.14 3.329-0.81 3.03-0.778 -0.795 0.098-2.427 0.806-3.03 2.424 -0.493 1.322-0.018 3.063 0 2.632 0.016-1.471 0.859-3.441 2.94-3.943 0.016-0.004 0.028 0.018 0.015 0.029 -3.234 2.843-1.278 6.334-1.308 6.058 -0.1-1.127-0.183-3.139 1.686-4.658 0.014-0.011 0.036 0.004 0.026 0.02 -0.429 0.69-1.449 3.415 0.64 5.883 0.012 0.014 0.037 0.003 0.03-0.014 -0.351-0.843-0.821-3.791 0.855-4.846 0.011-0.007 0.025-0.001 0.026 0.011 0.183 2.159 0.564 6.554-0.218 11.289 -2.656-2.03-5.271-3.361-8.639-3.213 -1.694 0.074-3.301 0.567-4.47 1.242 -0.042 0.024-0.011 0.085 0.034 0.071 4.899-1.566 9.139 0.334 13.081 3.614 -1.991 1.735-3.798 3.551-4.848 4.099 -0.245-0.335-0.67-0.528-1.135-0.427 -0.876 0.193-1.085 1.29-0.61 1.762 1.721 1.717 4.412-1.69 7.631-4.538 3.098 2.738 5.913 6.254 7.631 4.538 0.137-0.137 0.296-0.589 0.214-0.948 -0.207-0.896-1.398-1.155-1.959-0.387 -1.01-0.509-2.783-2.301-4.848-4.099 3.97-3.309 8.164-5.156 13.08-3.614C86.952 68.32 86.983 68.259 86.941 68.235"/>
            <path d="M71.265 115.108h1.277v-11.436h-1.277V115.108zM37.804 113.833l-1.995-4.891c2.064-1.747 4.625-1.426 6.273 0l-1.995 4.891H37.804zM30.764 113.833c-1.004-0.03-1.71 0.095-2.642-0.198 -3.451-1.09-2.513-5.888 1.349-5.888h1.293V113.833zM66.268 113.833c-2.057-0.063-3.91 0.363-4.853-1.274 0.186-0.818 0.084-1.552 0.112-5.306H60.25v4.318c0 3.169-3.824 2.963-4.726 1.06 -0.362-0.765-0.141-1.085-0.207-5.378h-1.278v4.414c0 1.44-0.901 2.166-2.155 2.166H49.41v-6.58h-1.277v6.58h-6.705l2.235-5.337c-1.268-1.108-3.033-2.151-4.725-2.151 -1.719 0-3.45 0.998-4.726 2.151l2.251 5.337h-4.422v-7.376h-2.043c-2.888 0-5.285 1.66-5.285 4.381 0 4.843 5.941 4.246 6.051 4.27 -0.02 0.157 0.159 1.251-0.575 1.801 -0.686 0.514-1.911 0.499-2.674 0.319 -0.314-0.075-0.673-0.202-1.077-0.383l-0.399 1.227c0.81 0.298 1.583 0.542 2.442 0.542 2.434 0 3.56-1.214 3.56-3.267v-0.239c20.842-0.131 20.226 0.3 21.496-0.398 0.484-0.265 0.875-0.621 1.173-1.068 0.309 0.51 0.729 0.909 1.261 1.196 1.117 0.599 2.821 0.543 3.856 0.031 0.537-0.265 0.95-0.674 1.237-1.227 0.493 0.842 1.258 1.383 2.794 1.451v0.015h3.687v-11.436h-1.277V113.833zM180.858 113.268c-1.13 2.641-5.02 2.717-6.146-0.04 -0.331-0.809-0.331-1.768 0-2.589 1.363-3.378 6.41-2.408 6.41 1.299C181.122 112.415 181.034 112.859 180.858 113.268M168.47 113.268c-0.977 2.27-3.921 2.606-5.46 1.02 -1.263-1.306-1.226-3.433-0.007-4.716 0.993-1.055 2.524-1.225 3.695-0.742C168.544 109.6 169.159 111.667 168.47 113.268M137.412 113.833c-0.977-0.03-1.685 0.098-2.611-0.206 -3.363-1.105-2.561-5.896 1.349-5.896h1.262V113.833zM186.389 113.833H182c1.37-3.007-0.758-6.532-4.263-6.532 -3.228 0-5.486 3.308-4.167 6.532h-3.959c1.335-2.919-0.688-6.532-4.262-6.532 -3.23 0-5.486 3.309-4.167 6.532h-4.055v-10.161h-1.277v10.161h-4.07c-0.07-1.309 0.297-3.246-0.799-4.469 -0.743-0.838-1.57-1.099-2.698-1.099h-5.651l2.404-4.593h-1.389l-2.452 4.577c0.079 0.508 0.233 0.905 0.575 1.29 6.387 0.054 6.804-0.134 7.559 0.184 0.592 0.245 0.953 0.692 1.078 1.235 0.152 0.654 0.075 1.146 0.096 2.875h-11.814v-7.376h-2.012c-3.384 0-5.268 2.013-5.268 4.333 0 2.907 2.338 4.318 5.268 4.318h25.335c1.879 2.024 5.042 1.852 6.769 0h5.619c1.873 2.018 5.033 1.859 6.77 0h6.497v-11.436h-1.278V113.833zM191.386 115.108h1.277v-11.436h-1.277V115.108zM97.288 117.914H98.6v-1.309h-1.312V117.914zM109.774 113.833l-1.996-4.891c2.048-1.734 4.605-1.441 6.274 0l-1.995 4.891H109.774zM118.825 113.833h-5.427l2.234-5.337c-1.271-1.114-3.042-2.151-4.725-2.151 -1.725 0-3.451 1.003-4.726 2.151l2.251 5.337h-4.756v-7.376h-1.278v8.922c0 1.127-0.082 1.96-1.213 1.96 -0.263 0-0.402-0.023-0.654-0.096l-0.335 1.228c1.067 0.292 2.327 0.194 2.953-0.726 0.566-0.833 0.499-1.983 0.527-2.637h16.427v-11.436h-1.278V113.833zM21.872 107.572c-1.42-1.55-3.064-0.988-3.624-1.115v1.274c0.932 0.036 1.363-0.103 1.995 0.199 0.532 0.256 0.908 0.669 1.062 1.251 0.173 0.669 0.076 1.191 0.104 4.652h-5.987v1.275h7.264c-0.053-4.83 0.132-5.342-0.2-6.421C22.353 108.252 22.148 107.88 21.872 107.572M92.619 117.929h1.312v-1.309h-1.312V117.929zM84.854 113.833c-0.975-0.03-1.684 0.098-2.611-0.206 -3.367-1.106-2.556-5.896 1.349-5.896h1.262V113.833zM98.583 106.457h-1.277v7.376h-4.821v-7.376h-1.277v7.376h-5.077v-7.376c-1.606 0.05-4.002-0.325-5.843 1.234 -2.61 2.211-1.937 7.417 3.832 7.417h14.463V106.457zM90.382 117.929h1.312v-1.309h-1.312V117.929zM5.037 103.672H3.725v1.309h1.312V103.672zM136.446 103.672h-1.312v1.309h1.312V103.672zM86.125 103.672h-1.312v1.309h1.312V103.672zM12.571 117.929h1.312v-1.309h-1.312V117.929zM83.888 103.672h-1.312v1.309h1.312V103.672zM7.274 103.672H5.962v1.309h1.312V103.672zM10.334 117.929h1.312v-1.309h-1.312V117.929zM6.003 113.833c-0.973-0.03-1.686 0.098-2.61-0.206 -3.361-1.102-2.567-5.896 1.349-5.896h1.261V113.833zM13.634 106.457h-1.277v7.376H7.28v-7.376c-1.531 0.047-2.748-0.153-4.183 0.326 -1.203 0.404-2.186 1.147-2.722 2.287 -0.558 1.186-0.457 2.696 0.057 3.664 0.925 1.746 2.86 2.374 4.836 2.374h8.366V106.457zM123.822 115.108h1.277v-11.436h-1.277V115.108zM138.682 103.672h-1.312v1.309h1.312V103.672z"/>
            <path d="M1.251 123.484L2.854 123.484 2.854 128.062 7.193 123.484 9.161 123.484 5.369 127.399 9.33 132.588 7.389 132.588 4.275 128.491 2.854 129.948 2.854 132.588 1.251 132.588"/>
            <path d="M10.792 123.484H12.395V132.588H10.792z"/>
            <path d="M14.863 123.484L16.349 123.484 21.236 129.779 21.236 123.484 22.812 123.484 22.812 132.588 21.47 132.588 16.44 126.111 16.44 132.588 14.863 132.588"/>
            <path d="M24.797 128.062v-0.026c0-2.549 1.955-4.709 4.704-4.709 1.59 0 2.568 0.443 3.506 1.236l-1.016 1.21c-2.47-2.098-5.512-0.587-5.512 2.237v0.026c0 1.873 1.237 3.251 3.1 3.251 0.861 0 1.643-0.273 2.203-0.689v-1.704h-2.333v-1.391h3.884v3.823C30.071 134.113 24.797 132.681 24.797 128.062"/>
            <path d="M38.948 131.131c4.254 0 4.203-6.191 0-6.191H37.15v6.191H38.948zM35.547 123.484h3.401c6.508 0 6.42 9.104 0 9.104h-3.401V123.484z"/>
            <path d="M53.155 128.062v-0.026c0-1.769-1.29-3.238-3.102-3.238 -1.811 0-3.075 1.443-3.075 3.212v0.026c0 1.769 1.29 3.239 3.101 3.239C51.891 131.275 53.155 129.831 53.155 128.062M45.297 128.062v-0.026c0-2.562 1.981-4.709 4.782-4.709 2.802 0 4.757 2.121 4.757 4.683v0.026c0 2.562-1.98 4.708-4.783 4.708C47.252 132.744 45.297 130.624 45.297 128.062"/>
            <path d="M56.827 123.484L58.534 123.484 61.31 127.789 64.085 123.484 65.792 123.484 65.792 132.588 64.189 132.588 64.189 126.059 61.31 130.351 61.258 130.351 58.404 126.085 58.404 132.588 56.827 132.588"/>
            <path d="M79.506 128.062v-0.026c0-1.769-1.29-3.238-3.102-3.238 -1.811 0-3.075 1.443-3.075 3.212v0.026c0 1.769 1.29 3.239 3.101 3.239C78.242 131.275 79.506 129.831 79.506 128.062M71.648 128.062v-0.026c0-2.562 1.981-4.709 4.782-4.709 2.802 0 4.757 2.121 4.757 4.683v0.026c0 2.562-1.981 4.708-4.783 4.708C73.603 132.744 71.648 130.624 71.648 128.062"/>
            <path d="M83.179 123.484L89.968 123.484 89.968 124.941 84.782 124.941 84.782 127.425 89.382 127.425 89.382 128.881 84.782 128.881 84.782 132.588 83.179 132.588"/>
            <path d="M95.027 131.262l0.964-1.145c0.873 0.755 1.746 1.184 2.88 1.184 0.99 0 1.616-0.455 1.616-1.145v-0.025c0-2.034-5.096-0.646-5.096-4.111v-0.026c0-2.794 3.911-3.507 6.425-1.495l-0.86 1.209c-2.098-1.561-3.961-0.947-3.961 0.144v0.026c0 2.005 5.095 0.737 5.095 4.096V130C102.09 133.192 97.564 133.521 95.027 131.262"/>
            <path d="M109.296 128.973l-1.577-3.642 -1.564 3.642H109.296zM107.002 123.419h1.485l4.014 9.169h-1.694l-0.925-2.198h-4.314l-0.937 2.198h-1.643L107.002 123.419z"/>
            <path d="M113.444 128.726v-5.242h1.603v5.177c0 1.691 0.873 2.601 2.306 2.601 1.421 0 2.294-0.858 2.294-2.536v-5.242h1.603v5.164c0 2.718-1.538 4.084-3.923 4.084C114.955 132.732 113.444 131.366 113.444 128.726"/>
            <path d="M126.997 131.131c4.254 0 4.204-6.191 0-6.191h-1.798v6.191H126.997zM123.596 123.484h3.401c6.508 0 6.42 9.104 0 9.104h-3.401V123.484z"/>
            <path d="M133.875 123.484H135.478V132.588H133.875z"/>
            <path d="M147.352 128.973l-1.577-3.642 -1.564 3.642H147.352zM145.058 123.419h1.485l4.014 9.169h-1.694l-0.925-2.198h-4.314l-0.937 2.198h-1.643L145.058 123.419z"/>
            <path d="M156.02 127.997c1.147 0 1.877-0.598 1.877-1.522v-0.026c0-0.975-0.704-1.509-1.89-1.509h-2.332v3.057H156.02zM152.072 123.484h4.065c1.928 0 3.389 0.969 3.389 2.874 -0.037 0.1 0.19 2.108-2.177 2.784l2.463 3.446h-1.89l-2.241-3.174c-0.175 0-2.109 0-2.006 0v3.174h-1.603V123.484z"/>
            <path d="M167.299 128.973l-1.577-3.642 -1.564 3.642H167.299zM165.005 123.419h1.486l4.013 9.169h-1.694l-0.925-2.198h-4.314l-0.937 2.198h-1.643L165.005 123.419z"/>
            <path d="M176.253 131.171c1.095 0 1.759-0.43 1.759-1.249v-0.026c0-0.767-0.612-1.223-1.876-1.223h-2.541v2.498H176.253zM175.784 127.321c1.029 0 1.72-0.403 1.72-1.236v-0.026c0-0.715-0.573-1.157-1.603-1.157h-2.306v2.419H175.784zM172.018 123.484h4.092c1.604 0 2.997 0.75 2.997 2.315 -0.037 0.1 0.164 1.294-1.303 2.055 1.069 0.364 1.811 0.976 1.811 2.211v0.026c0 1.626-1.342 2.497-3.375 2.497h-4.222V123.484z"/>
            <path d="M181.6 123.484H183.203V132.588H181.6z"/>
            <path d="M191.041 128.973l-1.577-3.642 -1.564 3.642H191.041zM188.747 123.419h1.485l4.014 9.169h-1.694l-0.925-2.198h-4.314l-0.937 2.198h-1.643L188.747 123.419z"/>
        </symbol>
        <symbol id="icon-user" viewBox="0 0 24 24"><path d="M12 2C6.48 2 2 6.48 2 12s4.48 10 10 10 10-4.48 10-10S17.52 2 12 2zm0 3c1.66 0 3 1.34 3 3s-1.34 3-3 3-3-1.34-3-3 1.34-3 3-3zm0 14.2c-2.5 0-4.71-1.28-6-3.22.03-1.99 4-3.08 6-3.08 1.99 0 5.97 1.09 6 3.08-1.29 1.94-3.5 3.22-6 3.22z"/><path d="M0 0h24v24H0z" fill="none"/></symbol>
        <symbol id="icon-zoom-out" viewBox="0 0 498.61 498.75"><path d="M408.54,391.12c78.86-88.05,76-223.88-8.57-308.46C313.45-3.78,173.66-5,85.61,79.84S-6.34,304.46,76.86,394.1s222.86,96.15,314,14.66L494.28,512.14a12.47,12.47,0,0,0,17.64-17.64Zm-308.46-8.57C21.78,305,21.19,178.61,98.76,100.3S302.71,21.41,381,99l1.32,1.32c77.81,77.81,77.81,204.43,0,282.25S177.89,460.36,100.08,382.55Z" transform="translate(-16.93 -17)"/><path d="M253.65,253.87H316a12.48,12.48,0,0,0,0-25H166.37a12.48,12.48,0,1,0,0,25h87.28Z" transform="translate(-16.93 -17)"/></symbol>
        <symbol id="icon-zoom" viewBox="0 0 498.61 498.75"><path d="M408.54,391.12c78.86-88.05,76-223.88-8.57-308.46C313.45-3.78,173.66-5,85.61,79.84S-6.34,304.46,76.86,394.1s222.86,96.15,314,14.66L494.28,512.14a12.47,12.47,0,0,0,17.64-17.64Zm-308.46-8.57C21.78,305,21.19,178.61,98.76,100.3S302.71,21.41,381,99l1.32,1.32c77.81,77.81,77.81,204.43,0,282.25S177.89,460.36,100.08,382.55Z" transform="translate(-16.93 -17)"/></symbol>
        <symbol id="icon-zoom-in" viewBox="-17 -17 532 532.00082"><path d="m391.539062 374.117188c78.863282-88.046876 76.015626-223.878907-8.570312-308.460938-86.515625-86.433594-226.3125-87.6875-314.363281-2.8125-88.054688 84.871094-91.941407 224.621094-8.742188 314.253906 83.199219 89.636719 222.851563 96.15625 314.035157 14.660156l103.378906 103.378907c4.878906 4.835937 12.746094 4.816406 17.601562-.039063 4.855469-4.855468 4.875-12.722656.039063-17.601562zm-308.460937-8.570313c-78.300781-77.578125-78.890625-203.941406-1.316406-282.25 77.578125-78.300781 203.945312-78.890625 282.25-1.316406l1.316406 1.316406c77.816406 77.816406 77.816406 204.429687 0 282.25-77.820313 77.820313-204.4375 77.816406-282.25 0zm0 0"/><path d="m299.035156 211.921875h-62.386718v-62.332031c0-6.886719-5.582032-12.472656-12.472657-12.472656-6.882812 0-12.472656 5.585937-12.472656 12.472656v62.332031h-62.335937c-6.882813 0-12.472657 5.589844-12.472657 12.472656 0 6.890625 5.589844 12.472657 12.472657 12.472657h62.335937v62.390624c0 6.886719 5.589844 12.472657 12.472656 12.472657 6.890625 0 12.472657-5.585938 12.472657-12.472657v-62.390624h62.386718c6.890625 0 12.472656-5.582032 12.472656-12.472657 0-6.882812-5.582031-12.472656-12.472656-12.472656zm0 0"/></symbol>
        <symbol id="icon-share" version="1.1" viewBox="0 0 481.6 481.6" style="enable-background:new 0 0 481.6 481.6;" xml:space="preserve">
            <path d="M381.6,309.4c-27.7,0-52.4,13.2-68.2,33.6l-132.3-73.9c3.1-8.9,4.8-18.5,4.8-28.4c0-10-1.7-19.5-4.9-28.5l132.2-73.8   c15.7,20.5,40.5,33.8,68.3,33.8c47.4,0,86.1-38.6,86.1-86.1S429,0,381.5,0s-86.1,38.6-86.1,86.1c0,10,1.7,19.6,4.9,28.5   l-132.1,73.8c-15.7-20.6-40.5-33.8-68.3-33.8c-47.4,0-86.1,38.6-86.1,86.1s38.7,86.1,86.2,86.1c27.8,0,52.6-13.3,68.4-33.9   l132.2,73.9c-3.2,9-5,18.7-5,28.7c0,47.4,38.6,86.1,86.1,86.1s86.1-38.6,86.1-86.1S429.1,309.4,381.6,309.4z M381.6,27.1   c32.6,0,59.1,26.5,59.1,59.1s-26.5,59.1-59.1,59.1s-59.1-26.5-59.1-59.1S349.1,27.1,381.6,27.1z M100,299.8   c-32.6,0-59.1-26.5-59.1-59.1s26.5-59.1,59.1-59.1s59.1,26.5,59.1,59.1S132.5,299.8,100,299.8z M381.6,454.5   c-32.6,0-59.1-26.5-59.1-59.1c0-32.6,26.5-59.1,59.1-59.1s59.1,26.5,59.1,59.1C440.7,428,414.2,454.5,381.6,454.5z"/>
        </symbol>
        <symbol id="icon-sound" viewBox="0 0 60 60" style="enable-background:new 0 0 60 60;" xml:space="preserve">
            <path d="M28.404,7.758c-0.975-0.552-2.131-0.534-3.09,0.044c-0.046,0.027-0.09,0.059-0.13,0.093L11.634,19.358H1   c-0.553,0-1,0.447-1,1v19c0,0.266,0.105,0.52,0.293,0.707S0.734,40.358,1,40.358l10.61-0.005l13.543,12.44   c0.05,0.046,0.104,0.086,0.161,0.12c0.492,0.297,1.037,0.446,1.582,0.446c0.517-0.001,1.033-0.134,1.508-0.402   C29.403,52.393,30,51.363,30,50.201V10.514C30,9.353,29.403,8.323,28.404,7.758z M28,50.201c0,0.431-0.217,0.81-0.579,1.015   c-0.155,0.087-0.548,0.255-1,0.026L13,38.913v-4.556c0-0.553-0.447-1-1-1s-1,0.447-1,1v3.996l-9,0.004v-17h9v4c0,0.553,0.447,1,1,1   s1-0.447,1-1v-4.536l13.405-11.34c0.461-0.242,0.861-0.07,1.016,0.018C27.783,9.704,28,10.083,28,10.514V50.201z"/>
            <path d="M52.026,29.858c0-8.347-5.316-15.76-13.229-18.447c-0.522-0.177-1.091,0.103-1.269,0.626   c-0.177,0.522,0.103,1.091,0.626,1.269c7.101,2.411,11.872,9.063,11.872,16.553c0,7.483-4.762,14.136-11.849,16.554   c-0.522,0.178-0.802,0.746-0.623,1.27c0.142,0.415,0.53,0.677,0.946,0.677c0.107,0,0.216-0.017,0.323-0.054   C46.721,45.611,52.026,38.198,52.026,29.858z"/>
            <path d="M44.453,6.374c-0.508-0.213-1.095,0.021-1.312,0.53C42.926,7.413,43.163,8,43.672,8.216C52.376,11.909,58,20.405,58,29.858   c0,9.777-5.894,18.38-15.015,21.914c-0.515,0.2-0.771,0.779-0.571,1.294c0.153,0.396,0.532,0.639,0.933,0.639   c0.12,0,0.242-0.021,0.361-0.067C53.605,49.801,60,40.467,60,29.858C60,19.6,53.897,10.382,44.453,6.374z"/>
            <path d="M43.026,29.858c0-5.972-4.009-11.302-9.749-12.962c-0.53-0.151-1.084,0.152-1.238,0.684   c-0.153,0.53,0.152,1.085,0.684,1.238c4.889,1.413,8.304,5.953,8.304,11.04s-3.415,9.627-8.304,11.04   c-0.531,0.153-0.837,0.708-0.684,1.238c0.127,0.438,0.526,0.723,0.961,0.723c0.092,0,0.185-0.013,0.277-0.039   C39.018,41.159,43.026,35.829,43.026,29.858z"/>
        </symbol>
        <symbol id="icon-news" viewBox="0 0 463.101 463.101" style="enable-background:new 0 0 463.101 463.101;" xml:space="preserve">
            <path d="M451.2,42.401c-6.6,0-12,5.4-12,12v318.5c0,33.7-27.4,61-61,61H85c-33.7,0-61-27.4-61-61v-343.6h351.3v309    c0,6.6,5.4,12,12,12s12-5.4,12-12v-321c0-6.6-5.4-12-12-12H12c-6.6,0-12,5.4-12,12v355.5c0,46.9,38.1,85,85,85h293.1    c46.9,0,85-38.1,85-85v-318.4C463.2,47.801,457.8,42.401,451.2,42.401z"/>
            <path d="M329.3,98.501c6.6,0,12-5.4,12-12s-5.4-12-12-12H67.7c-6.6,0-12,5.4-12,12s5.4,12,12,12H329.3z"/>
            <path d="M329.3,319.101H67.7c-6.6,0-12,5.4-12,12s5.4,12,12,12h261.5c6.6,0,12-5.4,12-12S335.9,319.101,329.3,319.101z"/>
            <path d="M329.3,380.601H109.2c-6.6,0-12,5.4-12,12s5.4,12,12,12h220.1c6.6,0,12-5.4,12-12S335.9,380.601,329.3,380.601z"/>
            <path d="M51.7,140.401v129.8c0,6.6,5.4,12,12,12H194c6.6,0,12-5.4,12-12v-129.8c0-6.6-5.4-12-12-12H63.7    C57.1,128.401,51.7,133.801,51.7,140.401z M75.7,152.401H182v105.8H75.7V152.401z"/>
            <path d="M335.7,140.401h-86.3c-6.6,0-12,5.4-12,12s5.4,12,12,12h86.3c6.6,0,12-5.4,12-12S342.4,140.401,335.7,140.401z"/>
            <path d="M335.7,194.601h-86.3c-6.6,0-12,5.4-12,12s5.4,12,12,12h86.3c6.6,0,12-5.4,12-12S342.4,194.601,335.7,194.601z"/>
            <path d="M347.7,264.201c0-6.6-5.4-12-12-12h-86.3c-6.6,0-12,5.4-12,12s5.4,12,12,12h86.3    C342.4,276.201,347.7,270.801,347.7,264.201z"/>
         </symbol>
         <symbol id="icon-ads" data-name="Layer 1" viewBox="0 0 512 512"><path d="M348.266,116.7l-31.283,31.282a96.058,96.058,0,1,0,9.912,9.889l31.27-31.271,34.206,8.552a7,7,0,0,0,6.648-1.842L451.338,81a7,7,0,0,0-4.261-11.916l-37.57-3.716-3.717-37.57a7,7,0,0,0-11.916-4.261l-52.319,52.32a7,7,0,0,0-1.841,6.647Zm-9.933,103.963a84.131,84.131,0,1,1-29.868-64.162l-30.878,30.878a40.7,40.7,0,1,0,9.922,9.878L318.374,166.4A83.61,83.61,0,0,1,338.333,220.667Zm-55.373,0a28.657,28.657,0,1,1-14.04-24.618l-19.68,19.68a7,7,0,0,0,9.9,9.9l19.714-19.715A28.444,28.444,0,0,1,282.96,220.667ZM391.921,120.612,369.71,115.06l36-36,25.266,2.5Zm1.393-76.72,2.5,25.264-36,36-5.553-22.211Z"/><path d="M162.916,321.586A85.612,85.612,0,0,1,190.3,384.592v64.693a25.966,25.966,0,0,0,25.936,25.936h32.379V495.1a6,6,0,0,0,12,0V475.221h32.379a25.966,25.966,0,0,0,25.937-25.936V384.5a87.4,87.4,0,0,1,28.1-63.572A135.77,135.77,0,0,0,390.156,218.13,134.191,134.191,0,0,0,361.645,138.6a6,6,0,1,0-9.467,7.374,122.269,122.269,0,0,1,25.982,72.463,123.772,123.772,0,0,1-39.314,93.7,99.768,99.768,0,0,0-31.722,66.449H202.107a97.489,97.489,0,0,0-31.074-65.845A123.589,123.589,0,0,1,254.6,98.114c.388,0,.775,0,1.163,0a122.417,122.417,0,0,1,72.791,24.668,6,6,0,0,0,7.2-9.6A134.341,134.341,0,0,0,255.876,86.12q-.638-.006-1.274-.006a135.59,135.59,0,0,0-91.686,235.472ZM292.991,463.221H216.233A13.952,13.952,0,0,1,202.3,449.285v-2.574h68.751a6,6,0,0,0,0-12H202.3V418.2h16.915a6,6,0,0,0,0-12H202.3v-15.61H306.928V406.2h-67.08a6,6,0,1,0,0,12h67.08v16.509H291.684a6,6,0,1,0,0,12h15.244v2.574A13.952,13.952,0,0,1,292.991,463.221Z"/><path d="M259.347,62.772a6,6,0,0,0,6-6V16.9a6,6,0,0,0-12,0V56.772A6,6,0,0,0,259.347,62.772Z"/><path d="M404.738,200.9a6,6,0,0,0,0,12h39.874a6,6,0,0,0,0-12Z"/><path d="M64.612,212.9h39.874a6,6,0,1,0,0-12H64.612a6,6,0,1,0,0,12Z"/><path d="M141.294,102.066a6,6,0,0,0,8.486-8.485L118.666,62.466a6,6,0,0,0-8.486,8.486Z"/></symbol>
         <symbol id="icon-reports" viewBox="0 0 480.006 480.006" style="enable-background:new 0 0 480.006 480.006;" xml:space="preserve">
            <g>
                <g>
                    <rect x="40.003" y="48.006" width="104" height="16"/>
                </g>
            </g>
            <g>
                <g>
                    <rect x="40.003" y="80.006" width="104" height="16"/>
                </g>
            </g>
            <g>
                <g>
                    <rect x="40.003" y="112.006" width="72" height="16"/>
                </g>
            </g>
            <g>
                <g>
                    <rect x="40.003" y="144.006" width="72" height="16"/>
                </g>
            </g>
            <g>
                <g>
                    <rect x="0.003" y="464.006" width="480" height="16"/>
                </g>
            </g>
            <g>
                <g>
                    <path d="M463.163,68.43l-32-64c-1.973-3.954-6.776-5.56-10.73-3.587c-0.002,0.001-0.004,0.002-0.006,0.003l-64,32    c-3.954,1.975-5.559,6.782-3.584,10.736s6.782,5.559,10.736,3.584l46.352-23.16l-12.648,36.112    C341.69,218.446,198.501,329.522,31.323,344.006l1.36,16C206.16,344.978,354.737,229.701,412.395,65.398l12.912-36.896    l23.536,47.08c1.975,3.954,6.782,5.559,10.736,3.584C463.534,77.191,465.138,72.385,463.163,68.43z"/>
                </g>
            </g>
            <g>
                <g>
                    <path d="M96.003,384.006h-56c-4.418,0-8,3.582-8,8v48c0,4.418,3.582,8,8,8h56c4.418,0,8-3.582,8-8v-48    C104.003,387.588,100.421,384.006,96.003,384.006z M88.003,432.006h-40v-32h40V432.006z"/>
                </g>
            </g>
            <g>
                <g>
                    <path d="M184.003,360.006h-56c-4.418,0-8,3.582-8,8v72c0,4.418,3.582,8,8,8h56c4.418,0,8-3.582,8-8v-72    C192.003,363.588,188.421,360.006,184.003,360.006z M176.003,432.006h-40v-56h40V432.006z"/>
                </g>
            </g>
            <g>
                <g>
                    <path d="M272.003,320.006h-56c-4.418,0-8,3.582-8,8v112c0,4.418,3.582,8,8,8h56c4.418,0,8-3.582,8-8v-112    C280.003,323.588,276.421,320.006,272.003,320.006z M264.003,432.006h-40v-96h40V432.006z"/>
                </g>
            </g>
            <g>
                <g>
                    <path d="M360.003,264.006h-56c-4.418,0-8,3.582-8,8v168c0,4.418,3.582,8,8,8h56c4.418,0,8-3.582,8-8v-168    C368.003,267.588,364.421,264.006,360.003,264.006z M352.003,432.006h-40v-152h40V432.006z"/>
                </g>
            </g>
            <g>
                <g>
                    <path d="M448.003,152.006h-56c-4.418,0-8,3.582-8,8v280c0,4.418,3.582,8,8,8h56c4.418,0,8-3.582,8-8v-280    C456.003,155.588,452.421,152.006,448.003,152.006z M440.003,432.006h-40v-264h40V432.006z"/>
                </g>
            </g>
        </symbol>
        <symbol id="icon-play" viewBox="0 0 30.051 30.051" style="enable-background:new 0 0 30.051 30.051;" xml:space="preserve">
            <path d="M19.982,14.438l-6.24-4.536c-0.229-0.166-0.533-0.191-0.784-0.062c-0.253,0.128-0.411,0.388-0.411,0.669v9.069   c0,0.284,0.158,0.543,0.411,0.671c0.107,0.054,0.224,0.081,0.342,0.081c0.154,0,0.31-0.049,0.442-0.146l6.24-4.532   c0.197-0.145,0.312-0.369,0.312-0.607C20.295,14.803,20.177,14.58,19.982,14.438z"/>
            <path d="M15.026,0.002C6.726,0.002,0,6.728,0,15.028c0,8.297,6.726,15.021,15.026,15.021c8.298,0,15.025-6.725,15.025-15.021   C30.052,6.728,23.324,0.002,15.026,0.002z M15.026,27.542c-6.912,0-12.516-5.601-12.516-12.514c0-6.91,5.604-12.518,12.516-12.518   c6.911,0,12.514,5.607,12.514,12.518C27.541,21.941,21.937,27.542,15.026,27.542z"/>
        </symbol>
        <symbol id="icon-information" viewBox="0 0 24 24"><path d="M11 7h2v2h-2zm0 4h2v6h-2zm1-9C6.48 2 2 6.48 2 12s4.48 10 10 10 10-4.48 10-10S17.52 2 12 2zm0 18c-4.41 0-8-3.59-8-8s3.59-8 8-8 8 3.59 8 8-3.59 8-8 8z"/></symbol>
        <symbol id="icon-user-reg" viewBox="0 0 24 24"><path d="M11 12c2.21 0 4-1.79 4-4s-1.79-4-4-4-4 1.79-4 4 1.79 4 4 4zm0-6c1.1 0 2 .9 2 2s-.9 2-2 2-2-.9-2-2 .9-2 2-2zM5 18c.2-.63 2.57-1.68 4.96-1.94l2.04-2c-.39-.04-.68-.06-1-.06-2.67 0-8 1.34-8 4v2h9l-2-2H5zm15.6-5.5l-5.13 5.17-2.07-2.08L12 17l3.47 3.5L22 13.91z"/></symbol>
        <symbol id="icon-touch" viewBox="0 0 24 24"><path d="M18.12 14.44l-3.24-1.62c1.29-1 2.12-2.56 2.12-4.32C17 5.47 14.53 3 11.5 3S6 5.47 6 8.5c0 2.13 1.22 3.98 3 4.89v3.26l-1.84-.39-.1-.02c-.1-.02-.2-.03-.32-.03-.53 0-1.03.21-1.41.59l-1.4 1.42 5.09 5.09c.43.44 1.03.69 1.65.69h6.3c.98 0 1.81-.7 1.97-1.67l.8-4.71c.22-1.3-.43-2.58-1.62-3.18zm-.35 2.85l-.8 4.71h-6.3c-.09 0-.17-.04-.24-.1l-3.68-3.68 4.25.89V8.5c0-.28.22-.5.5-.5s.5.22.5.5v6h1.76l3.46 1.73c.4.2.62.63.55 1.06zM8 8.5C8 6.57 9.57 5 11.5 5S15 6.57 15 8.5c0 .95-.38 1.81-1 2.44V8.5C14 7.12 12.88 6 11.5 6S9 7.12 9 8.5v2.44c-.62-.63-1-1.49-1-2.44z"/></symbol>
        <symbol id="icon-video" viewBox="0 0 24 24"><path d="M13.05 9.79L10 7.5v9l3.05-2.29L16 12l-2.95-2.21zm0 0L10 7.5v9l3.05-2.29L16 12l-2.95-2.21zm0 0L10 7.5v9l3.05-2.29L16 12l-2.95-2.21zM11 4.07V2.05c-2.01.2-3.84 1-5.32 2.21L7.1 5.69c1.11-.86 2.44-1.44 3.9-1.62zM5.69 7.1L4.26 5.68C3.05 7.16 2.25 8.99 2.05 11h2.02c.18-1.46.76-2.79 1.62-3.9zM4.07 13H2.05c.2 2.01 1 3.84 2.21 5.32l1.43-1.43c-.86-1.1-1.44-2.43-1.62-3.89zm1.61 6.74C7.16 20.95 9 21.75 11 21.95v-2.02c-1.46-.18-2.79-.76-3.9-1.62l-1.42 1.43zM22 12c0 5.16-3.92 9.42-8.95 9.95v-2.02C16.97 19.41 20 16.05 20 12s-3.03-7.41-6.95-7.93V2.05C18.08 2.58 22 6.84 22 12z"/></symbol>
        <symbol id="icon-details" viewBox="0 0 24 24"><path d="M8 16h8v2H8zm0-4h8v2H8zm6-10H6c-1.1 0-2 .9-2 2v16c0 1.1.89 2 1.99 2H18c1.1 0 2-.9 2-2V8l-6-6zm4 18H6V4h7v5h5v11z"/></symbol>
    </defs>
</svg>
